<svg width="730" height="445" viewBox="0 0 730 445" fill="none" xmlns="http://www.w3.org/2000/svg">
<path opacity="0.3" d="M673.466 348.665H588.07C597.209 340.244 603.037 327.492 603.037 313.219V302.738C603.037 272.354 625.071 247.721 652.252 247.721C680.113 247.721 702.702 222.47 702.702 191.323C702.702 160.176 680.116 134.925 652.252 134.925H643.986C616.807 134.917 594.763 110.285 594.763 79.9104C594.763 54.5617 576.376 34 553.695 34H232.823C207.577 34 187.116 56.8772 187.116 85.0996C187.116 104.391 196.681 121.185 210.799 129.882H154.428C130.921 129.882 111.865 149.598 111.865 173.918C111.865 203.064 89.0287 226.689 60.8582 226.689H52.2882C23.4102 226.689 0 250.91 0 280.799C0 310.677 23.4102 334.909 52.2882 334.909C80.4587 334.909 103.295 358.537 103.295 387.681V397.742C103.295 422.062 122.351 441.778 145.858 441.778H343.92C345.414 441.923 346.927 441.997 348.459 442H673.466C699.167 442 720 421.114 720 395.349C719.998 369.554 699.164 348.665 673.466 348.665Z" fill="#9BC1F9"/>
<path fill-rule="evenodd" clip-rule="evenodd" d="M205.508 292C204.127 292 203.003 293.56 203 295.494C202.997 297.427 204.111 298.995 205.492 299C206.873 299.005 207.997 297.44 208 295.506C208.003 293.573 206.881 292.005 205.508 292ZM205.508 292.99C206.249 292.99 206.85 293.356 206.847 293.804C206.845 294.252 206.244 294.613 205.503 294.611C204.762 294.608 204.161 294.244 204.163 293.796C204.166 293.349 204.764 292.987 205.505 292.99H205.508ZM203.619 296.433C203.617 297.122 204.471 297.687 205.507 297.687C205.507 297.687 205.507 297.687 205.507 297.687H205.492C205.497 297.687 205.502 297.687 205.507 297.687H205.508C205.507 297.687 205.507 297.687 205.507 297.687C206.547 297.684 207.402 297.129 207.404 296.443C207.407 295.753 206.562 295.191 205.516 295.188C204.469 295.186 203.622 295.743 203.619 296.433Z" fill="#466EB6"/>
<path d="M200.795 300C200.314 301.042 200.063 302.176 200.059 303.325L200 327.343C200.009 328.797 201.187 329.971 202.634 329.967L216.295 330C216.992 330.005 217.663 329.731 218.159 329.239C218.655 328.747 218.936 328.077 218.941 327.376L219 303.359C219.006 302.207 218.763 301.067 218.288 300.019L200.795 300Z" fill="#7F1CA0"/>
<path d="M200.795 300C200.314 301.042 200.063 302.176 200.059 303.325L200 327.343C200.009 328.797 201.187 329.971 202.634 329.967L216.295 330C216.992 330.005 217.663 329.731 218.159 329.239C218.655 328.747 218.936 328.077 218.941 327.376L219 303.359C219.006 302.207 218.763 301.067 218.288 300.019L200.795 300Z" fill="#7F1CA0"/>
<path d="M219 303.356L218.941 327.376C218.936 328.077 218.655 328.747 218.159 329.239C217.663 329.731 216.992 330.005 216.295 330L202.634 329.967C201.187 329.971 200.009 328.797 200 327.343L200.059 303.323C200.063 302.175 200.314 301.041 200.795 300L218.279 300.043C218.753 301.082 218.999 302.212 219 303.356Z" fill="#F47458"/>
<path d="M202.474 327.373L202.531 303.329C202.535 302.179 202.775 301.043 203.237 300H199.762C199.301 301.043 199.06 302.179 199.057 303.329L199 327.373C199.009 328.829 200.138 330.004 201.526 330H205C203.612 330.004 202.483 328.829 202.474 327.373Z" fill="#F48C7F"/>
<path d="M219 303.341L218.943 327.375C218.939 328.076 218.667 328.746 218.188 329.239C217.709 329.731 217.062 330.005 216.39 330L211 329.986C211.676 329.995 212.328 329.723 212.812 329.23C213.296 328.738 213.573 328.065 213.58 327.36L213.638 303.327C213.636 302.177 213.393 301.042 212.928 300L218.297 300.014C218.759 301.057 218.999 302.192 219 303.341Z" fill="#B75742"/>
<path d="M219 299L201 298.97C201.007 298.43 201.651 297.996 202.441 298L217.564 298.025C218.353 298.024 218.995 298.46 218.998 299H219Z" fill="#13375B"/>
<path d="M199.73 325.228L199.737 322.18L219.16 322.228L219.152 325.276L199.73 325.228Z" fill="#355389"/>
<path d="M182.859 290.386H185C184.626 290.132 184.186 289.997 183.735 290H130.082C127.274 290 125 292.039 125 294.554V297.446C125 299.961 127.274 302 130.082 302L183.134 301.983L182.859 290.386Z" fill="#86B1F2"/>
<path d="M151.959 290.017C149.231 290.017 147 291.968 147 294.374V297.643C147 300.049 149.219 302 151.959 302H186V301.262H185.859L177.203 300.541L175.453 294.507C175.453 294.507 178.83 291.171 179.048 291.085C179.266 290.999 185.856 290.738 185.856 290.738H185.998V290L151.959 290.017Z" fill="#466EB6"/>
<path d="M183.969 296.478C183.969 292.79 186 291 186 291H153.458C150.995 291 149 292.872 149 295.184V297.816C149 300.13 150.997 302 153.458 302H186C186 302 183.969 301.126 183.969 296.478Z" fill="#FAE0B2"/>
<g style="mix-blend-mode:multiply">
<path d="M149 295.746V298.102C149.001 298.406 149.045 298.708 149.131 299C150.229 296.743 152.333 294.57 156.336 293.872C165.684 292.242 186 292 186 292H153.46C150.997 292.002 149 293.679 149 295.746Z" fill="#DAEEF7"/>
</g>
<path d="M182.564 314.491H185C184.588 314.174 184.084 314.001 183.565 314H122.76C119.611 313.969 117.032 316.517 117 319.692V323.308C117.032 326.483 119.611 329.031 122.76 329L182.879 328.98L182.564 314.491Z" fill="#50BFA5"/>
<path d="M146.589 314C143.533 313.972 141.031 316.412 141 319.453V323.547C141.031 326.588 143.533 329.028 146.589 329H185V328.085H184.842L175.076 327.182L173.098 319.628C173.098 319.628 176.907 315.447 177.157 315.346C177.407 315.245 184.837 314.91 184.837 314.91H184.995V314H146.589Z" fill="#3C8F7C"/>
<path d="M182.695 322.475C182.695 318.103 185 316 185 316H148.061C145.294 315.973 143.028 318.187 143 320.945V324.055C143.028 326.813 145.294 329.027 148.061 329H185C185 329 182.695 327.965 182.695 322.475Z" fill="#FAE0B2"/>
<g style="mix-blend-mode:multiply">
<path d="M143 320.352V323.718C143 324.15 143.05 324.581 143.149 325C144.394 321.779 146.781 318.673 151.328 317.675C161.939 315.344 185 315 185 315H148.061C146.731 314.986 145.451 315.542 144.502 316.546C143.553 317.55 143.013 318.919 143 320.352Z" fill="#DAEEF7"/>
</g>
<path d="M114.435 302.387H112C112.435 302.129 112.93 301.995 113.434 302H174.24C177.422 302 180 304.041 180 306.558V309.442C180 311.959 177.422 314 174.24 314L114.123 313.983L114.435 302.387Z" fill="#F47458"/>
<path d="M149.412 302C152.498 302 155 303.955 155 306.363V309.637C155 312.048 152.498 314 149.412 314H111V313.256H111.158L120.921 312.534L122.897 306.489C122.897 306.489 119.088 303.148 118.841 303.064C118.594 302.98 111.161 302.717 111.161 302.717H111.002V302H149.412Z" fill="#B75742"/>
<path d="M113.307 308.477C113.307 304.787 111 303 111 303H147.939C150.735 303 153 304.872 153 307.185V309.815C153 312.125 150.735 314 147.939 314H111C111 314 113.307 313.109 113.307 308.477Z" fill="#FAE0B2"/>
<g style="mix-blend-mode:multiply">
<path d="M153 307.746V310.101C152.999 310.406 152.949 310.709 152.851 311C151.607 308.745 149.217 306.573 144.673 305.873C134.061 304.25 111 304 111 304H147.939C150.735 304.009 153 305.676 153 307.746Z" fill="#DAEEF7"/>
</g>
<path d="M331.867 308.3L337.564 309.381L312.826 440.098L307.129 439.017L331.867 308.3Z" fill="#184655"/>
<path d="M502.199 441H509L483.654 308L478 309.084L502.199 441Z" fill="#184655"/>
<path d="M376.199 441H383L357.654 308L352 309.084L376.199 441Z" fill="#184655"/>
<path d="M439.529 439.934L434 440L458.335 308L464 309.08L439.529 439.934Z" fill="#184655"/>
<path d="M415.154 130.566C437.763 132.986 467.022 135.537 496.393 185.351C528.496 239.792 511.596 321.117 486.258 343.716C460.921 366.315 378.167 394.219 308.601 352.446C308.601 352.446 266.597 327.13 288.153 285.117C321.319 220.462 316.639 206.98 331.471 181.642C346.303 156.304 367.163 125.428 415.154 130.566Z" fill="#FAE0B2"/>
<path d="M495.424 184.812C475.408 150.894 455.446 138.943 437.612 134C444.51 141.128 451.504 150.289 458.504 162.161C490.554 216.471 473.682 297.6 448.386 320.145C425.952 340.137 358.438 364.283 295 340.431C301.523 347.637 307.933 351.498 307.933 351.498C377.385 393.171 460.004 365.334 485.3 342.789C510.597 320.245 527.474 239.125 495.424 184.812Z" fill="#F7CC7F"/>
<path d="M102.051 168.809C101.436 174.107 106.497 178.314 110.978 177.982C115.943 177.616 120.155 173.166 120.881 167.835C121.667 162.063 118.494 157.447 113.585 157.025C108.807 156.614 105.748 161.263 107.129 165.953C108.119 169.315 110.926 170.568 112.342 169.64C113.444 168.916 113.379 167.083 112.043 166.771C111.509 166.674 110.973 166.927 110.671 167.418C109.501 166.906 108.39 164.584 109.146 162.073C110.11 158.867 113.826 158.683 116.124 160.178C119.055 162.084 119.516 166.183 118.442 169.448C117.312 172.877 114.231 175.585 110.875 175.841C107.055 176.104 103.744 172.98 103.425 168.812C103.425 168.397 103.118 168.06 102.739 168.06C102.36 168.059 102.052 168.394 102.051 168.809Z" fill="#F48C7F"/>
<path d="M448.655 0.00123528C425.171 -0.136936 406.091 11.3337 406 25.6236C405.959 32.7673 410.675 39.2637 418.339 43.9907L408.686 65L428.831 48.7418C435.142 50.7261 441.723 51.7391 448.345 51.7452C471.829 51.8834 490.909 40.4128 491 26.1229C491.09 11.8331 472.127 0.139407 448.655 0.00123528Z" fill="#FAE0B2"/>
<path d="M433.481 28.199C435.524 35.9397 443.455 40.559 451.197 38.5169C458.938 36.4747 463.559 28.5443 461.517 20.8033C459.475 13.0623 451.545 8.44167 443.803 10.4825C440.084 11.4622 436.906 13.8795 434.97 17.2023C433.035 20.5251 432.499 24.481 433.481 28.199Z" fill="#F7CC7F"/>
<path d="M455.731 25C456.472 27.7525 455.658 30.6833 453.595 32.6882C451.532 34.6932 448.533 35.4677 445.729 34.7202C442.925 33.9726 440.741 31.8164 440 29.0639L455.731 25Z" fill="#EFEFEF"/>
<path d="M208.996 203L273.359 202.522C274.823 202.505 276 201.334 276 199.895L275.677 157.596C275.66 156.157 274.468 155 273.004 155L208.641 155.478C207.177 155.495 206 156.666 206 158.105L206.323 200.404C206.34 201.843 207.532 203 208.996 203Z" fill="#F47458"/>
<path d="M273.734 179L294 201L269 196.031L273.734 179Z" fill="#F47458"/>
<path d="M254.72 175.811L248.333 175.697C248.333 175.697 240.284 169.709 240.036 167.593C239.787 165.477 241.107 160.997 239.859 160.423C238.611 159.85 235.966 159.417 234.296 162.218C233.083 164.253 234.093 171.68 233.344 172.174C232.875 172.486 229.202 172.523 226.518 172.508C224.752 172.496 223.126 173.463 222.3 175.017C221.732 176.072 221.989 177.379 222.915 178.142L224.339 179.329L223.218 180.812C222.384 181.92 222.606 183.49 223.714 184.325L224.838 185.181L224.069 186.056C223.599 186.593 223.38 187.303 223.465 188.01C223.551 188.717 223.933 189.354 224.518 189.764L225.51 190.462L225.359 190.736C224.734 191.882 225.093 193.315 226.185 194.034L227.178 194.697L244.189 194.998C245.783 195.026 247.365 194.729 248.839 194.126L254.839 193.245C255.483 193.15 255.961 192.599 255.963 191.95L256 177.116C255.996 176.408 255.43 175.831 254.72 175.811Z" fill="white"/>
<path d="M341.907 213L336 230L354 223.206L341.907 213Z" fill="#F79C8D"/>
<path d="M359.796 161C358.627 161.048 355.422 162.117 350.735 170.95C344.752 182.229 336 216.304 336 216.304L362.12 226L365.475 218.888L371 164.135C371 164.135 360.12 160.986 359.796 161Z" fill="#042A44"/>
<path d="M395.399 156C387.885 156 369.294 158.191 360.667 160.95C360.667 160.95 354.329 215.331 366.372 256.656C369.068 265.908 364.143 295 364.143 295L442 293.975C442 293.975 432.777 223.636 436.251 212.275C439.725 200.914 439.807 161.318 439.807 161.318C439.807 161.318 439.275 161.235 422.304 158.308C414.405 156.942 403.422 155.99 395.399 156Z" fill="#07345A"/>
<path d="M404.386 396C404.386 396 402.627 415.931 399.39 421.448C396.153 426.965 399.562 436.348 399.73 437.637C399.899 438.926 406.543 440.765 417.104 439.662C427.666 438.559 427.495 436.167 426.642 432.303C425.79 428.44 420.17 423.473 419.83 419.795C419.49 416.117 423.06 402.869 423.06 402.869L404.386 396Z" fill="#F7A491"/>
<path d="M372.584 278.219C372.584 278.219 318.83 275.234 306.825 282.505C294.821 289.777 308.997 304.717 308.997 304.717C308.997 304.717 352.765 323.756 426.025 327.984C443.375 328.985 444.87 282.728 441.626 278.898C438.383 275.068 372.584 278.219 372.584 278.219Z" fill="#327F6B"/>
<path d="M418.008 440.818C428.606 439.726 427.296 434.695 426.442 430.876C425.907 428.484 422.865 425.667 421.054 423C420.108 423.73 418.565 425.017 413.962 426.331C409.183 427.695 402.631 424.995 398.466 423.305C396.977 428.655 396.909 435.48 397.05 436.515C397.212 437.792 407.41 441.909 418.008 440.818Z" fill="#355389"/>
<path d="M411.657 317.042C409.531 333.252 399 413.948 399 413.948L423.435 417C423.435 417 453.484 311.671 451.943 295.562C450.401 279.454 439.153 278.096 439.153 278.096C439.153 278.096 417.287 274.132 411.657 317.042Z" fill="#3C8F7C"/>
<path d="M388.363 87.334C388.363 87.334 396.632 78.7103 403.285 89.2018C403.285 89.2018 408.409 86.3564 412.005 91.4239C412.005 91.4239 421.263 88.6682 423.512 102.357C423.512 102.357 428.276 101.469 428.909 107.068C429.542 112.667 426.662 116.402 426.662 116.402C426.662 116.402 429.338 118.387 428.134 123.537C427.101 127.903 423.436 128.582 423.436 128.582C423.436 128.582 422.455 135.961 419.212 138.184C415.969 140.406 411.571 139.338 411.571 139.338C411.571 139.338 410.403 143.338 406.628 142.977C402.853 142.615 398.177 139.067 393.953 140.665C389.729 142.264 378.762 140.575 378.762 140.575C378.762 140.575 366.447 135.154 370.132 122.707C370.132 122.707 363.661 116.929 369.322 109.996C369.322 109.996 365.186 99.15 373.367 92.7508C381.548 86.3515 388.363 87.334 388.363 87.334Z" fill="#07345A"/>
<path d="M389.798 146.138L388.269 157.02C388.269 157.02 384.842 172.696 389.251 175.717C393.66 178.738 408 156.573 408 156.573L406.496 129L389.798 146.138Z" fill="#F7A491"/>
<path d="M406 137.144C402.451 146.779 393.999 152.703 388 155L389.263 145.548L405.533 128L406 137.144Z" fill="#F47458"/>
<path d="M396.547 99.7951C387.83 96.8078 378.537 102.571 377.206 111.516C376.505 116.192 376.104 120.909 376.006 125.636C375.762 138.489 382.459 151 388.323 151C394.187 151 410.397 142.68 410.983 124.43C411.347 113.164 405.696 102.928 396.547 99.7951Z" fill="#F7A491"/>
<ellipse cx="410" cy="125.5" rx="4" ry="5.5" fill="#F7A491"/>
<path d="M370.33 92.9289C364.329 97.7105 362.223 104.977 365.631 109.157C369.038 113.338 376.668 112.851 382.67 108.069C388.671 103.288 390.777 96.0217 387.369 91.8412C383.962 87.6606 376.332 88.1522 370.33 92.9289Z" fill="#07345A"/>
<path d="M439.808 167.083C432.5 164.356 428.924 229.861 427.938 256.823C415 258.061 392.432 256.823 386.815 256.414C384.174 256.216 378.081 253.997 375.455 253.656C372.769 253.305 370.328 253.122 368.998 253.351C368.51 253.437 355.02 258.923 353.863 260.127C352.433 261.62 348.561 265.384 349.225 267.011C349.889 268.639 356.668 262.475 356.668 262.475L359.986 260.624C355.855 264.636 347.976 269.923 349.111 271.847C350.216 273.723 357.325 268.361 362.39 264.704C358.045 268.602 352.648 275.592 353.893 276.681C355.011 277.655 361.15 269.574 367.712 267.245C370.153 266.383 372.567 268.773 374.478 269.06C375.884 269.272 378.054 269.723 379.434 269.336L386.537 267.331C388.956 267.547 389.017 268.973 391.461 269.489C394.297 270.091 398.952 270.722 402.565 271.599C423.37 276.654 430.31 279.002 436.679 279C455.963 278.988 457.084 173.526 439.808 167.083Z" fill="#F7A491"/>
<path d="M453.474 228.79C454.835 201.137 454.636 167.052 439.16 161.237C433.056 158.941 422.296 172.738 424.229 229.351C432.493 230.034 444.619 230.585 453.474 228.79Z" fill="#07345A"/>
<path d="M368 216H369.559L393 274L391.385 273.753L368 216Z" fill="#F79C8D"/>
<path d="M332.648 412C332.648 412 334.802 419.012 330.944 423.65C327.087 428.288 311.055 432.839 308.95 435.35C306.845 437.861 307.003 440 307.003 440L352 438.743L351.513 424.949L349.442 415.034L332.648 412Z" fill="#F7A491"/>
<path d="M327.851 427.056C327.851 427.056 339.316 431.821 344.854 428.999C350.392 426.177 350.226 425.396 351.828 426.448C353.431 427.501 354 440.484 354 440.484L303.829 442C300.337 441.918 298.573 439.262 301.415 437.023C303.36 435.472 305.607 434.432 306.886 433.68C310.807 431.356 327.851 427.056 327.851 427.056Z" fill="#355389"/>
<path d="M334.049 290.822C330.534 283.522 322.539 274.033 308.466 279.753C295.049 285.209 291.448 298.613 295.674 312.339C299.9 326.065 327.776 406.749 328.748 417.854L351 418C351 418 346.956 354.106 345.965 338.662C345.02 323.807 340.135 303.446 334.049 290.822Z" fill="#3C8F7C"/>
<path d="M296.83 216H370.86C372.819 216.001 374.583 217.19 375.326 219.01L398.12 274.854H438.934C440.074 274.854 440.999 275.781 441 276.927C440.999 278.072 440.074 279 438.934 279H322.782C319.589 278.999 316.693 277.116 315.386 274.19L292.423 222.834C291.753 221.334 291.886 219.594 292.776 218.213C293.666 216.833 295.192 215.999 296.83 216V216Z" fill="#F47458"/>
<path d="M337.101 248.863C337.584 251.584 339.739 253.397 341.892 252.925C344.044 252.453 345.392 249.858 344.898 247.137C344.404 244.416 342.26 242.603 340.108 243.075C337.955 243.547 336.61 246.134 337.101 248.863Z" fill="white"/>
<path opacity="0.3" d="M579.927 100.212C581.189 120.332 565.905 137.663 545.786 138.927C525.667 140.191 508.337 124.899 507.073 104.784C505.809 84.6692 521.095 67.3233 541.214 66.0717C561.334 64.8202 578.663 80.0948 579.927 100.212Z" fill="#9BC1F9"/>
<rect x="505" y="102" width="13" height="1" fill="#184655"/>
<rect x="571" y="102" width="13" height="1" fill="#184655"/>
<rect x="544" y="63" width="1" height="13" fill="#184655"/>
<rect x="544" y="128" width="1" height="13" fill="#184655"/>
<circle cx="544" cy="103" r="1" fill="#184655"/>
<path d="M544.488 103C544.356 103.001 544.229 102.948 544.136 102.854L524.147 82.8501C523.952 82.6561 523.951 82.341 524.145 82.1464C524.339 81.9517 524.655 81.9511 524.85 82.1451L544.839 102.149C544.992 102.287 545.042 102.506 544.963 102.697C544.884 102.887 544.694 103.008 544.488 102.998V103Z" fill="#184655"/>
<path d="M550.494 121.957C550.411 121.913 550.347 121.834 550.318 121.74L544.019 101.495C543.978 101.367 544.005 101.227 544.089 101.126C544.172 101.025 544.301 100.98 544.424 101.008C544.548 101.036 544.648 101.132 544.687 101.26L550.982 121.507C551.027 121.651 550.986 121.81 550.878 121.909C550.77 122.008 550.617 122.028 550.489 121.96L550.494 121.957Z" fill="#184655"/>
<path fill-rule="evenodd" clip-rule="evenodd" d="M605.415 179.115L602.173 184.244C601.995 184.517 601.952 184.855 602.055 185.163C602.159 185.471 602.398 185.718 602.708 185.836L603.275 186.061C603.779 186.26 604.357 186.076 604.642 185.625L608.078 180.176L612.699 181.995L609.457 187.122C609.286 187.394 609.246 187.725 609.348 188.028C609.45 188.331 609.684 188.575 609.987 188.695L610.554 188.92C611.058 189.119 611.635 188.935 611.921 188.484L615.357 183.035L618.536 184.291C618.81 184.402 619.119 184.401 619.393 184.289C619.667 184.177 619.884 183.963 619.995 183.694C620.109 183.426 620.108 183.126 619.993 182.859C619.878 182.592 619.658 182.381 619.382 182.273L616.602 181.173L619.455 176.551L622.456 177.736C622.731 177.846 623.039 177.846 623.313 177.734C623.588 177.621 623.804 177.407 623.915 177.139C624.029 176.871 624.028 176.57 623.913 176.303C623.798 176.037 623.578 175.825 623.302 175.717L620.7 174.689L623.83 169.714C624.001 169.442 624.04 169.111 623.938 168.809C623.836 168.507 623.603 168.263 623.3 168.143L622.77 167.935C622.268 167.736 621.692 167.918 621.405 168.366L618.04 173.64L613.419 171.818L616.549 166.843C616.719 166.571 616.759 166.24 616.657 165.938C616.554 165.635 616.321 165.392 616.019 165.272L615.532 165.08C615.03 164.881 614.455 165.063 614.168 165.511L610.802 170.785L607.623 169.529C607.349 169.418 607.04 169.419 606.766 169.531C606.492 169.643 606.275 169.858 606.164 170.126C606.051 170.394 606.051 170.694 606.166 170.961C606.282 171.228 606.501 171.439 606.777 171.548L609.557 172.647L606.66 177.252L603.659 176.068C603.385 175.957 603.076 175.958 602.802 176.07C602.528 176.182 602.311 176.396 602.2 176.665C602.086 176.932 602.087 177.233 602.202 177.5C602.317 177.767 602.537 177.978 602.813 178.086L605.415 179.115ZM616.814 175.53L613.917 180.136L609.297 178.314L612.193 173.708L616.814 175.53Z" fill="#07345A"/>
<path d="M317.149 41.4835L320.515 33.8142L316.167 26.6663C315.941 26.2928 315.945 25.8227 316.176 25.4526C316.406 25.0826 316.825 24.8765 317.255 24.9204L325.517 25.7834L330.902 19.3986C331.184 19.0698 331.624 18.929 332.042 19.0344C332.459 19.1399 332.782 19.4735 332.877 19.8974L334.618 28.1004L342.294 31.3002C342.696 31.4677 342.969 31.851 342.997 32.2889C343.026 32.7267 342.806 33.1431 342.43 33.3628L335.245 37.5703L334.603 45.9354C334.57 46.3735 334.293 46.7544 333.889 46.9176C333.486 47.0807 333.025 46.9977 332.702 46.7036L326.529 41.1019L318.455 43.0697C318.034 43.1703 317.593 43.0213 317.316 42.6852C317.039 42.349 316.975 41.8836 317.149 41.4835Z" fill="#F48C7F"/>
<path d="M557.901 40.8669L560.512 35.1132L557.13 29.7509C556.954 29.4705 556.957 29.1173 557.136 28.8392C557.316 28.5611 557.642 28.4061 557.977 28.4391L564.403 29.085L568.592 24.2965C568.812 24.0508 569.155 23.9465 569.479 24.0265C569.804 24.1066 570.054 24.3575 570.128 24.6756L571.482 30.8284L577.452 33.2301C577.764 33.3562 577.975 33.6431 577.998 33.9709C578.021 34.2986 577.851 34.6107 577.56 34.7765L571.971 37.9314L571.472 44.204C571.445 44.5315 571.23 44.8159 570.917 44.938C570.604 45.0601 570.246 44.9989 569.995 44.7801L565.187 40.5776L558.907 42.0541C558.582 42.1235 558.244 42.0098 558.032 41.7597C557.82 41.5095 557.769 41.1649 557.901 40.8669Z" fill="#F7CC7F"/>
<path d="M533.04 201.391L532.624 196.62L528.341 194.248C528.118 194.123 527.986 193.886 528.001 193.637C528.016 193.387 528.176 193.167 528.413 193.069L532.955 191.211L533.955 186.522C534.009 186.278 534.199 186.084 534.448 186.021C534.697 185.958 534.961 186.037 535.13 186.225L538.348 189.848L543.248 189.321C543.505 189.294 543.756 189.411 543.894 189.623C544.033 189.835 544.035 190.106 543.901 190.32L541.358 194.42L543.386 198.784C543.491 199.012 543.454 199.279 543.291 199.472C543.128 199.665 542.866 199.751 542.615 199.696L537.816 198.607L534.171 201.83C533.979 201.999 533.705 202.046 533.465 201.953C533.224 201.859 533.06 201.642 533.04 201.391Z" fill="#F48C7F"/>
<path d="M160.643 133.043L162.509 128.936L160.094 125.111C159.967 124.91 159.969 124.657 160.097 124.458C160.226 124.259 160.46 124.149 160.7 124.174L165.286 124.635L168.276 121.217C168.433 121.038 168.68 120.961 168.914 121.019C169.148 121.077 169.328 121.259 169.378 121.489L170.345 125.88L174.607 127.594C174.83 127.683 174.982 127.888 174.999 128.123C175.015 128.357 174.893 128.581 174.684 128.698L170.696 130.951L170.34 135.43C170.322 135.664 170.169 135.868 169.945 135.956C169.721 136.043 169.465 135.999 169.286 135.842L165.854 132.842L161.368 133.895C161.133 133.95 160.887 133.87 160.733 133.689C160.579 133.508 160.544 133.258 160.643 133.043Z" fill="#F7CC7F"/>
<path d="M302.643 125.043L304.509 120.936L302.094 117.111C301.967 116.91 301.969 116.657 302.097 116.458C302.226 116.259 302.46 116.149 302.7 116.174L307.286 116.635L310.276 113.217C310.433 113.038 310.68 112.961 310.914 113.019C311.148 113.077 311.328 113.259 311.378 113.489L312.345 117.88L316.607 119.594C316.83 119.683 316.982 119.888 316.999 120.123C317.015 120.357 316.893 120.581 316.684 120.698L312.696 122.951L312.34 127.43C312.322 127.664 312.169 127.868 311.945 127.956C311.721 128.043 311.465 127.999 311.286 127.842L307.854 124.842L303.368 125.895C303.133 125.95 302.887 125.87 302.733 125.689C302.579 125.508 302.544 125.258 302.643 125.043Z" fill="#50BFA5"/>
<path d="M232.277 59.0006L239.503 57.9727L242.474 69.1868L253.227 68.9626L256.849 77L261 75.2017L256.154 64.4526L245.962 64.6649L242.873 53L232 54.5455L232.277 59.0006Z" fill="#50BFA5"/>
<path d="M216.737 250.686L222.236 245.513L231.04 254L239.956 247.49L247.522 252.694L250 248.624L239.883 241.661L231.431 247.83L222.273 239L214 246.785L216.737 250.686Z" fill="#07345A"/>
<path fill-rule="evenodd" clip-rule="evenodd" d="M135.809 249.583L131.233 257.065C130.99 257.463 130.934 257.948 131.079 258.392C131.225 258.835 131.557 259.191 131.988 259.365L132.788 259.692C133.5 259.982 134.315 259.713 134.717 259.054L139.57 251.113L146.077 253.773L141.501 261.259C141.259 261.656 141.202 262.14 141.346 262.582C141.49 263.025 141.82 263.381 142.249 263.557L143.049 263.884C143.761 264.174 144.576 263.905 144.978 263.246L149.831 255.305L154.32 257.138C155.124 257.465 156.039 257.075 156.365 256.266C156.69 255.456 156.302 254.534 155.499 254.205L151.573 252.602L155.601 245.853L159.84 247.584C160.644 247.911 161.559 247.521 161.885 246.711C162.21 245.901 161.822 244.98 161.019 244.651L157.343 243.15L161.761 235.884C162.002 235.487 162.057 235.004 161.913 234.563C161.769 234.121 161.439 233.766 161.012 233.591L160.264 233.286C159.556 232.997 158.744 233.263 158.34 233.916L153.589 241.615L147.082 238.956L151.5 231.69C151.741 231.293 151.796 230.81 151.652 230.369C151.508 229.927 151.178 229.572 150.751 229.397L150.066 229.116C149.358 228.827 148.546 229.093 148.142 229.746L143.392 237.446L138.903 235.612C138.099 235.285 137.184 235.676 136.857 236.485C136.533 237.295 136.92 238.217 137.724 238.545L141.652 240.149L137.561 246.873L133.322 245.142C132.518 244.815 131.603 245.206 131.277 246.015C130.952 246.825 131.34 247.747 132.143 248.075L135.809 249.583ZM151.906 244.343L147.815 251.067L141.307 248.408L145.398 241.684L151.906 244.343Z" fill="#50BFA5"/>
<path d="M547.911 350.727C547.45 346.589 546.902 342.356 545.014 338.663C542.717 334.174 538.681 330.932 535.164 327.364C528.55 320.659 523.521 312.515 520.456 303.546C518.104 296.633 516.929 289.269 513.688 282.742C511.709 278.756 509.008 275.192 506.76 271.357C501.446 262.293 498.551 251.572 491.343 244C489.995 253.336 492.656 262.811 498.649 270.016C500.425 272.122 502.493 274.02 503.836 276.428C506.291 280.8 506.068 286.137 506.356 291.167C506.907 300.654 509.505 309.902 513.967 318.253C518.695 327.083 525.523 334.943 528.05 344.667C529.946 351.953 529.381 360.126 533.422 366.44C533.859 367.124 534.361 367.813 534.467 368.622C534.506 369.079 534.479 369.54 534.388 369.989L534.116 371.748C533.196 377.711 532.247 385.3 537.287 389.762C540.781 392.855 545.276 392.926 547.784 388.817C550.292 384.709 550.085 378.627 549.898 373.971C549.588 366.208 548.771 358.434 547.911 350.727Z" fill="#3C8F7C"/>
<path d="M557.119 346.997C555.088 340.113 551.934 333.558 550.354 326.56C548.821 319.774 548.808 312.758 548.803 305.807C548.803 298.191 548.797 290.574 548.786 282.956C548.786 278.213 548.786 273.456 547.977 268.77C546.254 258.707 540.911 249.405 540.012 239.24C539.621 234.855 540.074 230.403 539.581 226.018C539.3 223.512 538.643 220.957 537.458 218.733C536.869 217.638 535.695 216.967 534.432 217.001C533.168 217.036 532.035 217.771 531.51 218.896C528.913 224.398 527.278 230.344 528.316 236.244C528.946 239.781 530.511 243.079 531.679 246.474C536.883 261.625 534.12 278.399 538.15 293.893C539.365 298.57 541.204 303.149 541.418 307.977C541.931 319.518 533.122 330.058 533.931 341.592C534.593 351.04 541.535 358.859 544.447 367.899C546.078 372.953 546.439 378.348 548.181 383.366C549.537 387.264 552.696 391.999 557.599 390.815C562.254 389.692 560.847 385.973 560.641 382.421C559.922 370.393 560.584 358.735 557.119 346.997Z" fill="#327F6B"/>
<path d="M566.857 353.444C566.652 349.868 566.031 346.27 566.545 342.725C566.978 339.729 568.204 336.906 569.08 334.002C570.72 328.563 571.128 322.853 571.523 317.194L573.688 286.348C574.81 270.366 575.941 254.338 579.01 238.604C579.863 234.234 580.819 229.498 578.802 225.511C578.376 224.67 577.55 223.779 576.622 224.049C575.969 224.249 575.648 224.948 575.41 225.577C568.697 243.33 566.149 262.442 558.668 279.898C556.873 284.078 554.785 288.192 553.857 292.633C552.74 297.965 553.356 303.475 553.499 308.915C553.706 316.71 552.926 324.58 550.71 332.083C549.551 336.007 548.002 339.844 547.366 343.88C546.575 348.913 547.239 354.04 547.734 359.109C548.687 368.859 549.01 378.657 548.7 388.445C548.518 394.199 553.509 394.048 556.815 390.514C559.128 388.041 559.106 385.327 559.897 382.251C562.495 372.151 567.488 364.395 566.857 353.444Z" fill="#3C8F7C"/>
<path d="M536.559 367.873C532.347 360.99 523.958 357.078 521.27 349.447C520.585 347.503 520.315 345.416 519.481 343.535C517.623 339.361 513.397 337.002 509.243 335.08C508.972 334.955 508.658 334.978 508.408 335.14C508.157 335.302 508.004 335.582 508.001 335.884C507.979 336.911 508.468 337.88 509.3 338.462C512.531 340.683 514.904 343.975 516.015 347.777C517.298 352.25 516.732 357.153 518.337 361.522C519.675 365.188 522.431 368.187 523.726 371.87C524.921 375.238 524.784 378.916 525.341 382.446C525.898 385.977 527.438 389.735 530.627 391.22C542.161 396.626 539.275 372.319 536.559 367.873Z" fill="#327F6B"/>
<path d="M585.742 366.158C585.564 369.495 586.059 372.995 584.794 376.071C583.982 378.038 582.521 379.63 581.323 381.375C577.113 387.503 575.588 396.188 569.122 399.637C568.696 399.864 568.22 400.068 567.746 399.978C567.083 399.851 566.65 399.193 566.382 398.555C564.796 394.752 566.577 390.467 567.63 386.474C567.815 385.775 567.969 384.997 567.644 384.354C567.289 383.647 566.477 383.34 565.923 382.787C564.817 381.68 564.922 379.862 565.142 378.277C565.69 374.348 566.46 370.455 567.448 366.619C568.009 364.444 568.656 362.251 569.873 360.381C571.213 358.326 573.159 356.791 574.982 355.177C583.073 347.987 589.171 338.72 592.655 328.318C593.404 326.078 594.076 323.711 595.613 321.956C597.15 320.201 599.908 319.297 601.79 320.659C603.128 321.634 597.649 330.702 597.01 331.791C595.184 334.902 595.161 337.607 594.128 341.054C591.595 349.519 586.225 357.093 585.742 366.158Z" fill="#3C8F7C"/>
<path d="M578.441 369.68C579.675 366.511 580.921 363.297 581.326 359.921C581.778 356.169 581.18 352.33 581.815 348.604C582.645 343.816 585.454 339.602 586.846 334.945C587.85 331.581 588.097 328.048 588.7 324.589C590.424 314.702 595.104 305.04 593.761 295.094C593.468 292.931 592.486 290.41 590.324 290.041C588.37 289.706 586.587 291.485 586.079 293.395C585.571 295.305 585.95 297.319 586.079 299.29C586.452 304.84 584.9 310.349 581.683 314.901C578.61 319.221 574.15 322.475 571.385 326.997C567.992 332.545 567.531 339.314 565.801 345.575C562.36 358.028 553.726 368.889 552.153 381.708C551.527 386.805 552.732 393.011 557.47 395.057C571.199 400.945 575.337 377.658 578.441 369.68Z" fill="#327F6B"/>
<path d="M556.107 386H524.362C523.332 386.001 522.36 386.46 521.723 387.246C521.085 388.033 520.853 389.059 521.092 390.032L532.663 437.483C533.022 438.957 534.375 439.998 535.933 440H574.067C575.625 439.998 576.978 438.957 577.337 437.483L588.908 390.032C589.147 389.059 588.915 388.033 588.277 387.246C587.64 386.46 586.668 386.001 585.638 386L556.107 386Z" fill="#F47458"/>
<rect x="90" y="329" width="152" height="8" fill="#184655"/>
<rect x="92" y="375" width="99" height="7" fill="#184655"/>
<rect x="220" y="334" width="6" height="108" fill="#184655"/>
<rect x="129" y="334" width="6" height="108" fill="#184655"/>
<path d="M174.292 441L209 333.861L203.311 332L168 441H174.292Z" fill="#184655"/>
<path d="M76.2272 441L106 333.608L100.218 332L70 441H76.2272Z" fill="#184655"/>
<path fill-rule="evenodd" clip-rule="evenodd" d="M501 102.5C501 79.0281 520.028 60 543.5 60C566.972 60 586 79.0281 586 102.5C586 125.972 566.972 145 543.5 145C520.028 145 501 125.972 501 102.5ZM507.181 104.779C508.441 124.834 525.732 140.079 545.779 138.807V138.819C565.836 137.562 581.077 120.283 579.819 100.223C578.561 80.164 561.28 64.9352 541.221 66.183C521.162 67.4308 505.921 84.7246 507.181 104.779Z" fill="#184655"/>
<rect x="30" y="440" width="700" height="5" fill="#042A44"/>
<path d="M383 135.204L394 135C394 135 393.815 139.738 388.979 139.987C383.085 140.288 383 135.204 383 135.204Z" fill="white"/>
</svg>
