<svg width="817" height="654" viewBox="0 0 817 654" fill="none" xmlns="http://www.w3.org/2000/svg">
<mask id="mask0_52_2" style="mask-type:luminance" maskUnits="userSpaceOnUse" x="0" y="0" width="817" height="654">
<path fill-rule="evenodd" clip-rule="evenodd" d="M817 335.92C817 519.095 700.855 671.151 485.218 652.438C269.581 633.725 91.099 498.881 12.8932 327C-65.3126 155.119 229.134 8.70313 441.211 0.314135C653.288 -8.07386 817 152.744 817 335.92Z" fill="white"/>
</mask>
<g mask="url(#mask0_52_2)">
<path fill-rule="evenodd" clip-rule="evenodd" d="M-5 659H822V-4.99976H-5V659Z" fill="#FED2FF"/>
</g>
<mask id="mask1_52_2" style="mask-type:luminance" maskUnits="userSpaceOnUse" x="108" y="62" width="561" height="527">
<path fill-rule="evenodd" clip-rule="evenodd" d="M669 332.768C669 479.981 589.333 602.184 441.423 587.145C293.512 572.106 171.087 463.735 117.444 325.6C63.8001 187.465 265.768 69.794 411.237 63.052C556.706 56.311 669 185.556 669 332.768Z" fill="white"/>
</mask>
<g mask="url(#mask1_52_2)">
<path fill-rule="evenodd" clip-rule="evenodd" d="M103.6 593.4H674V57.8H103.6V593.4Z" fill="#FED2FF"/>
</g>
<mask id="mask2_52_2" style="mask-type:luminance" maskUnits="userSpaceOnUse" x="622" y="440" width="11" height="87">
<path fill-rule="evenodd" clip-rule="evenodd" d="M625.392 443.318C626.512 445.272 627.905 448.24 629.2 452.07C631.854 459.703 633.52 470.971 632.532 483.259C631.553 495.546 628.713 506.331 626.521 514.008C624.28 521.689 622.63 526.35 622.345 526.272C622.031 526.185 623.145 521.362 624.984 513.606C626.777 505.852 629.334 495.124 630.292 483.089C631.255 471.057 629.885 460.107 627.682 452.536C625.544 444.927 623.048 440.616 623.402 440.432C623.523 440.362 624.276 441.358 625.392 443.318Z" fill="white"/>
</mask>
<g mask="url(#mask2_52_2)">
<path fill-rule="evenodd" clip-rule="evenodd" d="M617.293 531.273H637.82V435.429H617.293V531.273Z" fill="white"/>
</g>
<mask id="mask3_52_2" style="mask-type:luminance" maskUnits="userSpaceOnUse" x="630" y="378" width="33" height="132">
<path fill-rule="evenodd" clip-rule="evenodd" d="M633.547 383.626C635.068 386.705 637.205 391.192 639.733 396.791C644.748 407.988 651.498 423.663 656.394 441.861C658.8 450.964 660.441 459.813 661.271 467.94C662.108 476.065 662.193 483.448 661.775 489.609C661.369 495.774 660.591 500.72 659.842 504.084C659.101 507.454 658.514 509.269 658.382 509.24C658.259 509.216 658.334 508.543 658.511 507.289L658.562 506.933C658.588 506.748 658.617 506.552 658.646 506.345L658.773 505.463C659.249 502.104 659.963 496.628 660.189 489.536C660.673 477.355 659.074 460.433 654.222 442.44C649.382 424.44 642.909 408.757 638.275 397.42C635.941 391.748 634.054 387.156 632.748 383.983C631.472 380.796 630.83 379.004 630.972 378.94C631.113 378.878 632.025 380.547 633.547 383.626Z" fill="white"/>
</mask>
<g mask="url(#mask3_52_2)">
<path fill-rule="evenodd" clip-rule="evenodd" d="M625.953 514.24H667.02V373.938H625.953V514.24Z" fill="white"/>
</g>
<mask id="mask4_52_2" style="mask-type:luminance" maskUnits="userSpaceOnUse" x="331" y="451" width="20" height="58">
<path fill-rule="evenodd" clip-rule="evenodd" d="M350.8 451.114C351.06 451.393 348.513 453.823 345.206 458.335C344.386 459.468 343.494 460.707 342.66 462.123C341.748 463.487 340.955 465.052 340.072 466.667C338.43 469.961 336.872 473.704 335.67 477.778C334.521 481.868 333.85 485.866 333.489 489.529C333.379 491.365 333.219 493.113 333.265 494.751C333.219 496.395 333.314 497.92 333.406 499.317C333.658 502.833 334.096 505.489 334.292 506.997L334.329 507.292C334.413 507.989 334.424 508.374 334.303 508.407C334.079 508.484 332.653 505.187 331.826 499.479C331.628 498.053 331.439 496.486 331.403 494.791C331.275 493.097 331.367 491.285 331.424 489.377C331.682 485.573 332.317 481.402 333.512 477.157C334.758 472.925 336.437 469.056 338.244 465.698C339.209 464.05 340.093 462.467 341.104 461.101C342.034 459.684 343.03 458.457 343.956 457.355C347.692 452.962 350.653 450.931 350.8 451.114Z" fill="white"/>
</mask>
<g mask="url(#mask4_52_2)">
<path fill-rule="evenodd" clip-rule="evenodd" d="M326.338 513.408H355.818V446.102H326.338V513.408Z" fill="white"/>
</g>
<mask id="mask5_52_2" style="mask-type:luminance" maskUnits="userSpaceOnUse" x="344" y="470" width="13" height="29">
<path fill-rule="evenodd" clip-rule="evenodd" d="M356.78 470.801C356.877 470.957 356.544 471.322 355.944 471.927L355.409 472.461C354.921 472.95 354.333 473.548 353.694 474.264C352.755 475.29 351.766 476.619 350.793 478.159C349.861 479.726 348.969 481.523 348.267 483.505C347.597 485.496 347.193 487.462 346.962 489.272C346.777 491.084 346.737 492.739 346.844 494.127C347.024 496.903 347.474 498.635 347.139 498.756C346.898 498.857 345.888 497.273 345.27 494.338C344.948 492.874 344.815 491.082 344.899 489.097C345.029 487.118 345.409 484.949 346.143 482.772C346.907 480.606 347.947 478.665 349.063 477.025C350.219 475.409 351.429 474.081 352.584 473.128C354.88 471.195 356.652 470.571 356.78 470.801Z" fill="white"/>
</mask>
<g mask="url(#mask5_52_2)">
<path fill-rule="evenodd" clip-rule="evenodd" d="M339.874 503.761H361.796V465.756H339.874V503.761Z" fill="white"/>
</g>
<mask id="mask6_52_2" style="mask-type:luminance" maskUnits="userSpaceOnUse" x="273" y="287" width="31" height="94">
<path fill-rule="evenodd" clip-rule="evenodd" d="M276.621 290.104C277.497 291.038 278.532 292.213 279.628 293.664C280.735 295.101 282.066 296.697 283.315 298.615C283.959 299.562 284.636 300.553 285.339 301.586C286.036 302.626 286.667 303.764 287.37 304.914C288.809 307.196 290.099 309.773 291.502 312.461C294.151 317.915 296.684 324.104 298.702 330.813C300.654 337.542 301.893 344.115 302.634 350.131C302.917 353.151 303.234 356.016 303.267 358.712C303.301 360.059 303.39 361.358 303.37 362.61C303.342 363.86 303.313 365.058 303.287 366.203C303.28 368.495 303.03 370.556 302.883 372.366C302.75 374.177 302.521 375.726 302.292 376.985C301.871 379.508 301.565 380.885 301.411 380.864C301.015 380.811 301.761 375.221 301.699 366.186C301.678 365.057 301.658 363.876 301.637 362.643C301.611 361.412 301.48 360.133 301.406 358.81C301.295 356.16 300.912 353.349 300.58 350.387C299.738 344.489 298.463 338.055 296.547 331.451C294.565 324.866 292.14 318.77 289.64 313.361C288.31 310.695 287.102 308.128 285.756 305.842C285.097 304.691 284.512 303.548 283.866 302.5C283.214 301.455 282.589 300.451 281.992 299.493C277.134 291.875 273.468 287.589 273.774 287.329C273.89 287.228 274.896 288.217 276.621 290.104Z" fill="white"/>
</mask>
<g mask="url(#mask6_52_2)">
<path fill-rule="evenodd" clip-rule="evenodd" d="M268.756 385.864H308.373V282.322H268.756V385.864Z" fill="white"/>
</g>
<mask id="mask7_52_2" style="mask-type:luminance" maskUnits="userSpaceOnUse" x="299" y="297" width="19" height="59">
<path fill-rule="evenodd" clip-rule="evenodd" d="M305.267 304.75C306.918 307.065 308.658 309.984 310.352 313.349C311.997 316.737 313.567 320.585 314.819 324.755C316.034 328.936 316.806 333.02 317.267 336.758C317.673 340.505 317.799 343.899 317.669 346.741C317.442 352.428 316.587 355.857 316.335 355.818C316.178 355.799 316.144 355.132 316.14 353.926L316.141 353.348C316.142 352.802 316.146 352.173 316.147 351.468L316.147 350.924C316.146 349.716 316.132 348.311 316.08 346.739C316.006 343.96 315.72 340.658 315.215 337.028C314.654 333.405 313.843 329.454 312.666 325.392C311.448 321.342 309.981 317.584 308.483 314.239C306.935 310.915 305.381 307.989 303.933 305.613C301.063 300.845 298.936 298.088 299.214 297.855C299.405 297.684 301.985 300.098 305.267 304.75Z" fill="white"/>
</mask>
<g mask="url(#mask7_52_2)">
<path fill-rule="evenodd" clip-rule="evenodd" d="M294.189 360.819H322.718V292.846H294.189V360.819Z" fill="white"/>
</g>
<mask id="mask8_52_2" style="mask-type:luminance" maskUnits="userSpaceOnUse" x="153" y="477" width="79" height="81">
<path fill-rule="evenodd" clip-rule="evenodd" d="M208.177 477.698L210.133 481.692L231.681 512.081L177.486 557.776L153.734 519.297L208.177 477.698Z" fill="white"/>
</mask>
<g mask="url(#mask8_52_2)">
<path fill-rule="evenodd" clip-rule="evenodd" d="M148.734 562.776H236.681V472.698H148.734V562.776Z" fill="#FF7B5B"/>
</g>
<mask id="mask9_52_2" style="mask-type:luminance" maskUnits="userSpaceOnUse" x="156" y="520" width="23" height="37">
<path fill-rule="evenodd" clip-rule="evenodd" d="M156.016 520.187L159.634 521.936L178.216 555.676L176.881 556.271L156.016 520.187Z" fill="white"/>
</mask>
<g mask="url(#mask9_52_2)">
<path fill-rule="evenodd" clip-rule="evenodd" d="M151.016 561.271H183.216V515.187H151.016V561.271Z" fill="#D7D4D4"/>
</g>
<mask id="mask10_52_2" style="mask-type:luminance" maskUnits="userSpaceOnUse" x="156" y="480" width="60" height="42">
<path fill-rule="evenodd" clip-rule="evenodd" d="M209.058 480.901C209.058 480.901 209.851 481.28 211.018 482.154C212.184 483.024 215.399 483.771 215.399 483.771L159.634 521.937C159.634 521.937 158.872 522.07 157.554 521.55C156.418 521.101 156.097 520.41 156.031 520.23L156.018 520.191L156.016 520.186L209.058 480.901Z" fill="white"/>
</mask>
<g mask="url(#mask10_52_2)">
<path fill-rule="evenodd" clip-rule="evenodd" d="M151.016 526.952H220.399V475.901H151.016V526.952Z" fill="#F5F3F3"/>
</g>
<mask id="mask11_52_2" style="mask-type:luminance" maskUnits="userSpaceOnUse" x="158" y="482" width="81" height="80">
<path fill-rule="evenodd" clip-rule="evenodd" d="M216.762 482.231C216.762 482.231 217.207 483.917 217.601 484.751C217.994 485.585 225.209 498.596 228.885 504.113C229.159 504.525 229.447 504.957 229.745 505.403L230.292 506.222C230.724 506.87 231.172 507.541 231.626 508.22L232.016 508.803C232.276 509.193 232.538 509.585 232.799 509.975L233.189 510.558C236.043 514.826 238.683 518.767 238.683 518.767L180.557 561.787L177.516 556.832L158.638 521.055L216.762 482.231Z" fill="white"/>
</mask>
<g mask="url(#mask11_52_2)">
<path fill-rule="evenodd" clip-rule="evenodd" d="M153.638 566.787H243.683V477.231H153.638V566.787Z" fill="#FF7B5B"/>
</g>
<mask id="mask12_52_2" style="mask-type:luminance" maskUnits="userSpaceOnUse" x="678" y="210" width="66" height="69">
<path fill-rule="evenodd" clip-rule="evenodd" d="M697.737 210.845L743.456 245.777L723.51 278.09L678.001 239.718L696.096 214.199L697.737 210.845Z" fill="white"/>
</mask>
<g mask="url(#mask12_52_2)">
<path fill-rule="evenodd" clip-rule="evenodd" d="M673.001 283.09H748.456V205.845H673.001V283.09Z" fill="#775298"/>
</g>
<mask id="mask13_52_2" style="mask-type:luminance" maskUnits="userSpaceOnUse" x="722" y="246" width="20" height="31">
<path fill-rule="evenodd" clip-rule="evenodd" d="M741.54 246.524L724.02 276.825L722.898 276.327L738.502 247.994L741.54 246.524Z" fill="white"/>
</mask>
<g mask="url(#mask13_52_2)">
<path fill-rule="evenodd" clip-rule="evenodd" d="M717.898 281.825H746.54V241.524H717.898V281.825Z" fill="#D7D4D4"/>
</g>
<mask id="mask14_52_2" style="mask-type:luminance" maskUnits="userSpaceOnUse" x="691" y="213" width="51" height="36">
<path fill-rule="evenodd" clip-rule="evenodd" d="M696.999 213.534L741.54 246.524C741.54 246.524 741.352 247.232 740.249 247.668C739.142 248.105 738.501 247.994 738.501 247.994L691.674 215.944C691.674 215.944 694.373 215.318 695.353 214.586C696.332 213.853 696.999 213.534 696.999 213.534Z" fill="white"/>
</mask>
<g mask="url(#mask14_52_2)">
<path fill-rule="evenodd" clip-rule="evenodd" d="M686.674 253.006H746.54V208.534H686.674V253.006Z" fill="#F5F3F3"/>
</g>
<mask id="mask15_52_2" style="mask-type:luminance" maskUnits="userSpaceOnUse" x="672" y="214" width="68" height="68">
<path fill-rule="evenodd" clip-rule="evenodd" d="M690.529 214.653L739.338 247.253L723.487 277.298L720.933 281.457L672.121 245.332L672.158 245.278C672.622 244.585 677.415 237.43 680.349 233.025C683.343 228.536 689.126 218.133 689.778 216.86L689.824 216.767C690.155 216.069 690.529 214.653 690.529 214.653Z" fill="white"/>
</mask>
<g mask="url(#mask15_52_2)">
<path fill-rule="evenodd" clip-rule="evenodd" d="M667.121 286.457H744.338V209.653H667.121V286.457Z" fill="#775298"/>
</g>
<mask id="mask16_52_2" style="mask-type:luminance" maskUnits="userSpaceOnUse" x="142" y="151" width="21" height="23">
<path fill-rule="evenodd" clip-rule="evenodd" d="M150.046 151.327C150.046 151.327 163.343 173.084 162.924 173.099C152.702 173.498 145.134 161.682 143.408 157.699C141.682 153.716 145.134 151.327 145.134 151.327H150.046Z" fill="white"/>
</mask>
<g mask="url(#mask16_52_2)">
<path fill-rule="evenodd" clip-rule="evenodd" d="M137.925 178.109H167.934V146.327H137.925V178.109Z" fill="#FF7B5B"/>
</g>
<mask id="mask17_52_2" style="mask-type:luminance" maskUnits="userSpaceOnUse" x="80" y="359" width="50" height="47">
<path fill-rule="evenodd" clip-rule="evenodd" d="M112.62 359.778C116.712 357.733 129.496 369.153 129.496 369.153L123.462 386.011C123.462 386.011 123.46 386.01 123.458 386.009L123.424 385.998C122.616 385.727 108.989 381.371 98.0998 392.663C86.8758 404.305 80.5768 408.941 80.1178 403.53C78.9998 390.32 107.619 362.278 112.62 359.778Z" fill="white"/>
</mask>
<g mask="url(#mask17_52_2)">
<path fill-rule="evenodd" clip-rule="evenodd" d="M75.0859 410.779H134.496V354.533H75.0859V410.779Z" fill="#775298"/>
</g>
<mask id="mask18_52_2" style="mask-type:luminance" maskUnits="userSpaceOnUse" x="110" y="379" width="51" height="45">
<path fill-rule="evenodd" clip-rule="evenodd" d="M145.122 379.154L160.555 388.412L155.566 405.459C155.566 405.459 141.345 398.766 130.121 410.405C118.896 422.047 116.11 425.449 111.37 421.657C107.12 418.256 124.257 399.827 135.66 388.381L136.65 387.39C141.522 382.529 145.122 379.154 145.122 379.154Z" fill="white"/>
</mask>
<g mask="url(#mask18_52_2)">
<path fill-rule="evenodd" clip-rule="evenodd" d="M105.707 428.137H165.555V374.154H105.707V428.137Z" fill="#775298"/>
</g>
<mask id="mask19_52_2" style="mask-type:luminance" maskUnits="userSpaceOnUse" x="193" y="265" width="65" height="42">
<path fill-rule="evenodd" clip-rule="evenodd" d="M254.825 265.031L257.719 306.126L193.478 289.39L254.825 265.031Z" fill="white"/>
</mask>
<g mask="url(#mask19_52_2)">
<path fill-rule="evenodd" clip-rule="evenodd" d="M188.478 311.126H262.719V260.031H188.478V311.126Z" fill="#F3A683"/>
</g>
<mask id="mask20_52_2" style="mask-type:luminance" maskUnits="userSpaceOnUse" x="185" y="290" width="76" height="126">
<path fill-rule="evenodd" clip-rule="evenodd" d="M193.478 290.804C193.478 290.804 209.864 291.837 226.117 292.393L227.922 292.453C241.139 292.877 253.861 292.947 257.153 291.849C257.153 291.849 268.135 399.732 248.595 411.371C229.053 423.013 185.202 405.967 185.202 405.967L197.042 382.685L222.57 381.022V339.448L220.739 339.864L193.478 290.804Z" fill="white"/>
</mask>
<g mask="url(#mask20_52_2)">
<path fill-rule="evenodd" clip-rule="evenodd" d="M180.202 420.439H265.228V285.804H180.202V420.439Z" fill="#112129"/>
</g>
<mask id="mask21_52_2" style="mask-type:luminance" maskUnits="userSpaceOnUse" x="112" y="290" width="146" height="125">
<path fill-rule="evenodd" clip-rule="evenodd" d="M193.478 290.804C193.478 290.804 204.02 291.411 214.916 291.929L216.044 291.982L217.173 292.034C224.312 292.363 231.301 292.633 235.276 292.648C237.033 292.655 239.916 292.575 243.021 292.463L243.741 292.437C250.13 292.199 257.154 291.848 257.154 291.848L222.369 339.36C212.485 371.242 198.356 408.56 185.203 413.451C164.543 421.134 124.701 392.759 115.436 385.838L114.853 385.401C113.961 384.728 113.478 384.35 113.478 384.35C108.904 370.214 123.038 364.392 123.038 364.392C123.038 364.392 134.505 368.776 146.333 372.693L147.698 373.142C158.172 376.569 168.593 379.483 171.276 378.528C177.109 376.45 193.478 290.804 193.478 290.804Z" fill="white"/>
</mask>
<g mask="url(#mask21_52_2)">
<path fill-rule="evenodd" clip-rule="evenodd" d="M107.567 419.759H262.154V285.804H107.567V419.759Z" fill="#22343D"/>
</g>
<mask id="mask22_52_2" style="mask-type:luminance" maskUnits="userSpaceOnUse" x="206" y="62" width="106" height="141">
<path fill-rule="evenodd" clip-rule="evenodd" d="M293.046 62.814C295.543 63.229 288.059 79.445 288.059 79.445C288.059 79.445 298.455 64.477 301.364 64.894C304.238 65.3042 294.12 81.3395 293.884 81.7124L293.883 81.715C294.173 81.3796 305.54 68.24 307.184 69.882C308.847 71.545 298.037 81.719 298.037 81.719C298.037 81.719 309.677 75.036 310.925 77.239C312.173 79.445 299.284 85.264 299.284 85.264C299.284 85.264 298.037 94.827 290.139 98.983C290.139 98.983 274.499 141.239 260.363 154.958L214.954 202.153L206.572 183.384C206.572 183.384 240.25 151.786 246.069 143.47C251.888 135.155 264.364 107.3 279.743 95.659L272.261 79.86C272.261 79.86 276.836 77.367 279.743 84.017C279.743 84.017 290.551 62.4 293.046 62.814Z" fill="white"/>
</mask>
<g mask="url(#mask22_52_2)">
<path fill-rule="evenodd" clip-rule="evenodd" d="M201.572 207.153H316.01V57.8079H201.572V207.153Z" fill="#FFC6B2"/>
</g>
<mask id="mask23_52_2" style="mask-type:luminance" maskUnits="userSpaceOnUse" x="44" y="199" width="141" height="105">
<path fill-rule="evenodd" clip-rule="evenodd" d="M166.372 199.76L184.883 217.311L135.077 252.602C121.224 266.609 81.2008 282.534 81.2008 282.534C76.9668 290.396 67.3948 291.55 67.3948 291.55C67.3948 291.55 61.4548 304.383 59.2638 303.116C57.0688 301.849 63.8618 290.272 63.8618 290.272C63.8618 290.272 63.4507 290.7 62.7798 291.373L62.4769 291.675C61.5228 292.624 60.175 293.932 58.755 295.206L58.2794 295.629C55.5743 298.013 52.7388 300.12 51.9398 299.304C51.1471 298.497 53.884 295.415 56.9383 292.433L57.4228 291.963C59.2053 290.246 61.0375 288.605 62.2961 287.501L62.6247 287.213C63.4083 286.529 63.8988 286.114 63.8988 286.114C63.8988 286.114 47.3938 296.353 47.0048 293.441C46.8229 292.079 50.0191 289.112 53.4744 286.339L54.0521 285.879C57.8161 282.904 61.6808 280.273 61.6808 280.273C61.6808 280.273 58.1211 281.876 54.2903 283.327L53.6499 283.567C49.4783 285.115 45.2028 286.372 45.0048 285.106C44.8186 283.925 49.5701 280.933 54.6345 278.106L55.3427 277.713L56.0522 277.323C61.0165 274.608 65.8689 272.225 66.2998 272.014L66.3308 271.999C59.7068 269.028 62.2428 264.479 62.2428 264.479L77.9708 272.11C89.7538 256.838 117.723 244.621 126.093 238.882C129.608 236.471 137.275 229.184 144.987 221.542L146.089 220.449C146.456 220.084 146.823 219.718 147.188 219.353L148.283 218.259C157.743 208.786 166.372 199.76 166.372 199.76Z" fill="white"/>
</mask>
<g mask="url(#mask23_52_2)">
<path fill-rule="evenodd" clip-rule="evenodd" d="M40 308.204H189.883V194.76H40V308.204Z" fill="#FFC6B2"/>
</g>
<mask id="mask24_52_2" style="mask-type:luminance" maskUnits="userSpaceOnUse" x="162" y="175" width="105" height="130">
<path fill-rule="evenodd" clip-rule="evenodd" d="M210.345 175.692C210.345 175.692 215.686 181.889 230.369 201.685C245.051 221.483 266.316 292.309 266.316 292.309L266.306 292.318C265.988 292.622 257.802 300.227 233.767 301.042C233.031 301.067 232.293 301.093 231.554 301.12L230.073 301.177C228.839 301.225 227.601 301.276 226.365 301.33L224.883 301.396C203.159 302.378 182.285 304.111 182.285 304.111C182.285 304.111 188.328 282.032 184.592 267.551C183.534 263.454 179.864 253.769 176.084 244.207L175.569 242.904C170.924 231.197 166.288 220.066 166.288 220.066L162.196 202.255L178.334 186.456L188.727 180.418L210.345 175.692Z" fill="white"/>
</mask>
<g mask="url(#mask24_52_2)">
<path fill-rule="evenodd" clip-rule="evenodd" d="M157.196 309.111H271.316V170.692H157.196V309.111Z" fill="white"/>
</g>
<mask id="mask25_52_2" style="mask-type:luminance" maskUnits="userSpaceOnUse" x="201" y="163" width="42" height="37">
<path fill-rule="evenodd" clip-rule="evenodd" d="M224.805 163.516C245.083 177.094 242.515 188.606 242.515 188.606L225.699 199.35L201.025 178.417L224.805 163.516Z" fill="white"/>
</mask>
<g mask="url(#mask25_52_2)">
<path fill-rule="evenodd" clip-rule="evenodd" d="M196.025 204.35H247.62V158.516H196.025V204.35Z" fill="white"/>
</g>
<mask id="mask26_52_2" style="mask-type:luminance" maskUnits="userSpaceOnUse" x="137" y="200" width="43" height="46">
<path fill-rule="evenodd" clip-rule="evenodd" d="M165.596 201.006C200.232 196.148 158.901 245.597 158.901 245.597C149.508 244.969 137.652 225.62 137.652 225.62C139.531 225.664 156.378 202.3 165.596 201.006Z" fill="white"/>
</mask>
<g mask="url(#mask26_52_2)">
<path fill-rule="evenodd" clip-rule="evenodd" d="M132.652 250.597H184.427V195.67H132.652V250.597Z" fill="white"/>
</g>
<mask id="mask27_52_2" style="mask-type:luminance" maskUnits="userSpaceOnUse" x="146" y="133" width="53" height="62">
<path fill-rule="evenodd" clip-rule="evenodd" d="M153.892 139.549C166.635 131.977 163.981 132.271 170.036 135.601C177.732 139.834 190.259 159.919 187.661 167.714C187.178 169.162 185.321 170.794 185.203 171.8C184.77 175.525 196.414 184.495 197.968 185.674L198.076 185.756C198.118 185.787 198.139 185.803 198.139 185.803L179.065 194.102L171.184 176.596C165.64 176.133 159.479 173.391 154.1 166.989C148.409 160.216 141.149 147.122 153.892 139.549Z" fill="white"/>
</mask>
<g mask="url(#mask27_52_2)">
<path fill-rule="evenodd" clip-rule="evenodd" d="M141.819 199.102H203.139V128.369H141.819V199.102Z" fill="#FFC6B2"/>
</g>
<mask id="mask28_52_2" style="mask-type:luminance" maskUnits="userSpaceOnUse" x="173" y="180" width="33" height="26">
<path fill-rule="evenodd" clip-rule="evenodd" d="M204.584 187.212C207.117 193.427 198.608 202.771 193.858 204.708C189.108 206.646 176.493 205.915 173.96 199.701C171.425 193.485 176.225 185.654 184.68 182.205C193.138 178.755 202.045 180.998 204.584 187.212Z" fill="white"/>
</mask>
<g mask="url(#mask28_52_2)">
<path fill-rule="evenodd" clip-rule="evenodd" d="M168.283 210.657H210.045V175.586H168.283V210.657Z" fill="#FFC6B2"/>
</g>
<mask id="mask29_52_2" style="mask-type:luminance" maskUnits="userSpaceOnUse" x="149" y="166" width="12" height="6">
<path fill-rule="evenodd" clip-rule="evenodd" d="M153.921 166.984C154.035 166.985 154.1 166.989 154.1 166.989L160.378 170.369C157.238 172.542 148.788 172.542 149.272 169.645C149.672 167.243 152.729 166.998 153.761 166.985L153.921 166.984Z" fill="white"/>
</mask>
<g mask="url(#mask29_52_2)">
<path fill-rule="evenodd" clip-rule="evenodd" d="M144.252 176.918H165.378V161.984H144.252V176.918Z" fill="#FFC6B2"/>
</g>
<mask id="mask30_52_2" style="mask-type:luminance" maskUnits="userSpaceOnUse" x="138" y="120" width="37" height="50">
<path fill-rule="evenodd" clip-rule="evenodd" d="M159.169 120.605C161.025 120.296 165.945 123.699 167.667 125C170.673 127.27 173.944 130.274 174.26 133.979C174.621 138.233 170.9 140.737 167.427 142.024C163.779 143.376 156.988 142.187 153.025 142.594C152.537 142.644 152.029 142.694 151.653 142.987C150.86 143.607 150.997 145.042 151.514 146.138C152.032 147.235 152.843 148.187 153.322 149.299C154.539 152.129 152.822 155.44 150.148 155.419C149.87 160.519 155.448 164.411 156.274 169.645C152.393 167.727 150.961 164.417 148.032 161.131C146.657 159.589 144.756 158.254 143.994 156.238C143.74 155.57 144.113 151.622 144.553 152.24C142.767 149.719 138.905 148.667 138.514 145.711C138.281 143.951 139.476 142.884 140.756 141.891L141.106 141.622C141.514 141.309 141.919 140.997 142.277 140.668C143.977 139.103 144.774 136.657 145.526 134.301C146.276 131.946 147.092 129.507 148.816 127.971C150.539 126.436 153.463 126.133 155.445 128.02C155.649 124.856 156.336 121.076 159.169 120.605Z" fill="white"/>
</mask>
<g mask="url(#mask30_52_2)">
<path fill-rule="evenodd" clip-rule="evenodd" d="M133.485 174.645H179.284V115.585H133.485V174.645Z" fill="#FF7B5B"/>
</g>
<mask id="mask31_52_2" style="mask-type:luminance" maskUnits="userSpaceOnUse" x="170" y="157" width="11" height="9">
<path fill-rule="evenodd" clip-rule="evenodd" d="M180.553 157.677C182.545 171.432 170.651 162.798 170.651 162.798L180.553 157.677Z" fill="white"/>
</mask>
<g mask="url(#mask31_52_2)">
<path fill-rule="evenodd" clip-rule="evenodd" d="M165.651 170.473H185.778V152.677H165.651V170.473Z" fill="white"/>
</g>
<mask id="mask32_52_2" style="mask-type:luminance" maskUnits="userSpaceOnUse" x="161" y="158" width="7" height="6">
<path fill-rule="evenodd" clip-rule="evenodd" d="M166.93 159.707C167.471 160.734 166.67 162.219 165.141 163.023C163.612 163.828 161.934 163.648 161.393 162.621C160.854 161.594 161.653 160.111 163.182 159.305C164.712 158.5 166.389 158.68 166.93 159.707Z" fill="white"/>
</mask>
<g mask="url(#mask32_52_2)">
<path fill-rule="evenodd" clip-rule="evenodd" d="M156.225 168.526H172.099V153.802H156.225V168.526Z" fill="#FFB2A0"/>
</g>
<mask id="mask33_52_2" style="mask-type:luminance" maskUnits="userSpaceOnUse" x="175" y="148" width="7" height="6">
<path fill-rule="evenodd" clip-rule="evenodd" d="M181.389 149.83C181.93 150.857 181.129 152.341 179.6 153.146C178.071 153.95 176.394 153.771 175.852 152.744C175.313 151.717 176.112 150.232 177.641 149.428C179.172 148.623 180.848 148.803 181.389 149.83Z" fill="white"/>
</mask>
<g mask="url(#mask33_52_2)">
<path fill-rule="evenodd" clip-rule="evenodd" d="M170.684 158.649H186.558V143.925H170.684V158.649Z" fill="#FFB2A0"/>
</g>
<mask id="mask34_52_2" style="mask-type:luminance" maskUnits="userSpaceOnUse" x="167" y="149" width="11" height="9">
<path fill-rule="evenodd" clip-rule="evenodd" d="M167.259 149.043C167.437 149.035 167.496 150.179 168.171 151.801C168.511 152.607 169.02 153.523 169.76 154.388C170.122 154.826 170.576 155.235 170.9 155.248C171.036 155.255 171.142 155.209 171.397 154.995C171.657 154.777 171.919 154.557 172.184 154.334C172.73 153.893 173.202 153.446 173.827 153.031C174.434 152.622 175.299 152.364 176.074 152.627C176.901 152.845 177.387 153.809 177.243 154.48C177.149 155.163 176.809 155.667 176.423 156.035C175.608 156.717 174.878 156.882 174.419 157.088C173.948 157.266 173.69 157.377 173.64 157.313C173.595 157.256 173.779 157.013 174.208 156.703C174.617 156.388 175.328 156.048 175.856 155.479C176.379 154.928 176.567 153.778 175.766 153.616C174.934 153.333 173.989 154.288 172.905 155.196C172.637 155.418 172.372 155.639 172.108 155.856C171.863 156.082 171.346 156.412 170.81 156.345C169.788 156.18 169.353 155.498 168.961 155.042C168.176 154.035 167.692 152.98 167.424 152.068C166.892 150.223 167.131 149.033 167.259 149.043Z" fill="white"/>
</mask>
<g mask="url(#mask34_52_2)">
<path fill-rule="evenodd" clip-rule="evenodd" d="M162.093 162.332H182.268V144.043H162.093V162.332Z" fill="#FF7B5B"/>
</g>
<mask id="mask35_52_2" style="mask-type:luminance" maskUnits="userSpaceOnUse" x="171" y="174" width="10" height="6">
<path fill-rule="evenodd" clip-rule="evenodd" d="M180.927 174.521C180.927 174.521 178.028 178.082 172.227 179.005L171.184 176.596C171.184 176.596 177.5 176.632 180.927 174.521Z" fill="white"/>
</mask>
<g mask="url(#mask35_52_2)">
<path fill-rule="evenodd" clip-rule="evenodd" d="M166.184 184.005H185.927V169.521H166.184V184.005Z" fill="#FFA192"/>
</g>
<mask id="mask36_52_2" style="mask-type:luminance" maskUnits="userSpaceOnUse" x="170" y="147" width="4" height="3">
<path fill-rule="evenodd" clip-rule="evenodd" d="M173.923 148.269C173.866 148.581 172.983 148.678 172.049 149.09C171.102 149.472 170.419 150.04 170.156 149.863C169.886 149.721 170.332 148.593 171.611 148.055C172.888 147.513 174.006 147.974 173.923 148.269Z" fill="white"/>
</mask>
<g mask="url(#mask36_52_2)">
<path fill-rule="evenodd" clip-rule="evenodd" d="M165.08 154.896H178.927V142.804H165.08V154.896Z" fill="#22343D"/>
</g>
<mask id="mask37_52_2" style="mask-type:luminance" maskUnits="userSpaceOnUse" x="161" y="152" width="4" height="5">
<path fill-rule="evenodd" clip-rule="evenodd" d="M164.81 153.081C164.941 153.364 164.225 154.023 163.418 154.937C162.599 155.847 161.803 156.582 161.545 156.389C161.306 156.212 161.68 155.195 162.589 154.176C163.51 153.136 164.686 152.79 164.81 153.081Z" fill="white"/>
</mask>
<g mask="url(#mask37_52_2)">
<path fill-rule="evenodd" clip-rule="evenodd" d="M156.474 161.42H169.825V147.982H156.474V161.42Z" fill="#22343D"/>
</g>
<mask id="mask38_52_2" style="mask-type:luminance" maskUnits="userSpaceOnUse" x="156" y="148" width="7" height="7">
<path fill-rule="evenodd" clip-rule="evenodd" d="M162.245 149.407C162.53 150.017 161.794 150.885 160.059 152.852C158.298 154.813 157.3 155.234 156.746 154.819C156.234 154.44 155.835 152.816 157.794 150.628C159.771 148.391 161.98 148.785 162.245 149.407Z" fill="white"/>
</mask>
<g mask="url(#mask38_52_2)">
<path fill-rule="evenodd" clip-rule="evenodd" d="M151.327 159.964H167.305V143.922H151.327V159.964Z" fill="#FF7B5B"/>
</g>
<mask id="mask39_52_2" style="mask-type:luminance" maskUnits="userSpaceOnUse" x="167" y="142" width="8" height="5">
<path fill-rule="evenodd" clip-rule="evenodd" d="M174.002 143.805C173.997 144.438 173.025 144.881 170.755 145.859C168.469 146.819 167.45 146.778 167.145 146.201C166.862 145.671 167.174 144.129 169.722 143.055C172.305 141.945 174.027 143.169 174.002 143.805Z" fill="white"/>
</mask>
<g mask="url(#mask39_52_2)">
<path fill-rule="evenodd" clip-rule="evenodd" d="M162.059 151.612H179.003V137.607H162.059V151.612Z" fill="#FF7B5B"/>
</g>
<mask id="mask40_52_2" style="mask-type:luminance" maskUnits="userSpaceOnUse" x="644" y="161" width="67" height="14">
<path fill-rule="evenodd" clip-rule="evenodd" d="M710.52 161.539C710.686 161.704 707.943 164.792 702.249 168.154C696.626 171.512 687.778 174.841 677.601 174.917C667.424 174.992 658.527 171.793 652.855 168.518C647.114 165.241 644.324 162.193 644.488 162.025C644.725 161.726 647.845 164.296 653.594 167.11C659.288 169.936 667.869 172.74 677.583 172.67C687.301 172.596 695.838 169.666 701.49 166.757C707.195 163.858 710.279 161.242 710.52 161.539Z" fill="white"/>
</mask>
<g mask="url(#mask40_52_2)">
<path fill-rule="evenodd" clip-rule="evenodd" d="M639.481 179.918H715.527V156.516H639.481V179.918Z" fill="#775298"/>
</g>
<mask id="mask41_52_2" style="mask-type:luminance" maskUnits="userSpaceOnUse" x="590" y="146" width="59" height="11">
<path fill-rule="evenodd" clip-rule="evenodd" d="M599.357 148.026C601.936 148.519 605.047 148.9 608.512 149.245C611.985 149.562 615.821 149.822 619.867 150.106C623.915 150.394 627.789 150.765 631.298 151.269C634.805 151.82 637.951 152.461 640.525 153.278C645.694 154.856 648.548 156.662 648.432 156.876C648.277 157.218 645.239 155.957 640.121 154.816C637.57 154.214 634.475 153.749 631.028 153.321C627.568 152.938 623.743 152.634 619.705 152.346C615.664 152.064 611.797 151.738 608.285 151.303C604.773 150.837 601.617 150.283 599.017 149.58C593.798 148.218 590.841 146.605 590.944 146.378C591.08 146.035 594.188 147.096 599.357 148.026Z" fill="white"/>
</mask>
<g mask="url(#mask41_52_2)">
<path fill-rule="evenodd" clip-rule="evenodd" d="M585.942 161.933H653.436V141.312H585.942V161.933Z" fill="#775298"/>
</g>
<mask id="mask42_52_2" style="mask-type:luminance" maskUnits="userSpaceOnUse" x="566" y="70" width="205" height="101">
<path fill-rule="evenodd" clip-rule="evenodd" d="M694.204 70.2469C701.579 70.3049 708.529 73.4549 715.714 75.1209C720.369 76.2009 725.125 76.657 729.893 77.0559L732.278 77.2532C735.855 77.5498 739.431 77.8674 742.967 78.4449C752.006 79.9219 761.343 83.5569 766.451 91.1589C772.511 100.18 770.849 112.905 764.49 121.718C758.131 130.533 747.948 135.9 737.514 138.941C735.97 139.391 734.405 139.801 732.837 140.207L731.492 140.556L730.149 140.908C725.228 142.212 720.383 143.696 716.184 146.509C709.813 150.778 705.653 157.649 699.718 162.504C684.823 174.684 661.644 171.193 646.259 159.639C642.393 156.737 638.811 153.368 634.468 151.244C627.755 147.958 619.925 147.574 611.961 147.498L610.702 147.488L610.073 147.484L608.182 147.474L607.552 147.47L606.293 147.46C605.608 147.454 604.925 147.445 604.243 147.432L603.221 147.41C593.181 147.159 583.503 145.88 576.185 138.312C560.736 122.335 562.937 95.5539 586.867 90.4779C596.57 88.4199 606.623 90.1919 616.406 91.8219C617.073 91.9331 617.742 92.0436 618.412 92.1521L619.755 92.3659C628.492 93.7341 637.435 94.6245 645.914 92.2969C652.619 90.4563 658.696 86.7002 664.672 82.8017L665.757 82.0916C674.794 76.1684 683.669 70.1646 694.204 70.2469Z" fill="white"/>
</mask>
<g mask="url(#mask42_52_2)">
<path fill-rule="evenodd" clip-rule="evenodd" d="M561.362 175.129H775.226V65.2458H561.362V175.129Z" fill="#775298"/>
</g>
<mask id="mask43_52_2" style="mask-type:luminance" maskUnits="userSpaceOnUse" x="582" y="392" width="20" height="37">
<path fill-rule="evenodd" clip-rule="evenodd" d="M592.713 392.177C592.713 392.177 593.633 393.53 594.84 395.341L595.175 395.846C595.631 396.532 596.117 397.268 596.603 398.011L596.967 398.569C598.48 400.892 599.916 403.177 600.348 404.11C601.361 406.313 601.986 421.741 600.097 428.167C598.204 434.59 582.019 399.9 582.019 399.9L592.713 392.177Z" fill="white"/>
</mask>
<g mask="url(#mask43_52_2)">
<path fill-rule="evenodd" clip-rule="evenodd" d="M577.019 433.96H606.315V387.177H577.019V433.96Z" fill="#FFB2A0"/>
</g>
<mask id="mask44_52_2" style="mask-type:luminance" maskUnits="userSpaceOnUse" x="695" y="97" width="30" height="26">
<path fill-rule="evenodd" clip-rule="evenodd" d="M708.052 101.971C711.807 99.396 715.547 97.1146 716.314 97.6569C717.95 98.8129 707.031 107.782 707.031 107.782C707.031 107.782 719.595 100.707 721.523 102.003C723.453 103.303 710.394 111.409 710.394 111.409C710.394 111.409 723.335 105.807 723.946 107.563C724.561 109.321 713.352 112.841 713.352 112.841C713.352 112.841 723.948 112.094 724.076 114.096C724.205 116.094 713.019 115.798 713.019 115.798C713.019 115.798 708.288 121.761 701.241 122.006C699.545 119.24 700.546 121.3 699.048 119.382C698.358 118.499 695.806 116.655 695.806 116.655L695.636 102.633L695.728 102.632C696.337 102.644 699.735 102.945 699.534 108.175C699.534 108.175 703.415 105.184 707.459 102.38L708.052 101.971Z" fill="white"/>
</mask>
<g mask="url(#mask44_52_2)">
<path fill-rule="evenodd" clip-rule="evenodd" d="M690.636 127.006H729.077V92.5769H690.636V127.006Z" fill="#FFC6B2"/>
</g>
<mask id="mask45_52_2" style="mask-type:luminance" maskUnits="userSpaceOnUse" x="517" y="28" width="30" height="29">
<path fill-rule="evenodd" clip-rule="evenodd" d="M527.97 28.006C530.272 28.315 534.972 41.945 534.972 41.945C534.972 41.945 532.761 27.991 534.747 28.212C536.414 28.3955 539.198 41.6125 540.057 45.8943L540.134 46.28C540.216 46.6958 540.273 46.9886 540.3 47.1269L540.317 47.217C543.963 42.776 546.908 45.662 546.908 45.662L537.665 55.828C537.665 55.828 536.89 55.8028 535.965 55.7994L535.561 55.7994C534.673 55.8029 533.733 55.8309 533.24 55.921C530.846 56.363 532.702 55.53 529.595 56.479C524.492 51.612 525.169 43.965 525.169 43.965C525.169 43.965 516.611 36.76 518.03 35.352C519.285 34.1113 525.177 39.8331 526.581 41.2324L526.725 41.3763C526.745 41.3968 526.764 41.4154 526.78 41.4321L526.856 41.5086C526.873 41.526 526.882 41.535 526.882 41.535L526.862 41.5021C526.488 40.8735 520.895 31.4288 522.466 30.553C524.09 29.647 530.05 42.428 530.05 42.428C530.05 42.428 525.664 27.697 527.97 28.006Z" fill="white"/>
</mask>
<g mask="url(#mask45_52_2)">
<path fill-rule="evenodd" clip-rule="evenodd" d="M512.871 61.479H551.908V23.001H512.871V61.479Z" fill="#FFC6B2"/>
</g>
<mask id="mask46_52_2" style="mask-type:luminance" maskUnits="userSpaceOnUse" x="574" y="114" width="32" height="47">
<path fill-rule="evenodd" clip-rule="evenodd" d="M576.976 127.064C580.72 118.957 588.204 113.982 591.299 114.491C599.06 115.763 606.951 133.393 605.682 136.567C603.981 140.817 601.771 146.007 597.632 148.38C596.098 149.259 594.359 149.698 592.733 150.391C588.679 152.119 587.841 155.97 587.281 159.942L587.203 160.51L587.164 160.794L578.329 157.226C578.329 157.226 580.545 151.02 579.876 149.052C579.346 147.497 576.976 147.062 575.842 143.59C573.437 136.211 574.879 131.601 576.976 127.064Z" fill="white"/>
</mask>
<g mask="url(#mask46_52_2)">
<path fill-rule="evenodd" clip-rule="evenodd" d="M569.591 165.794H610.817V109.455H569.591V165.794Z" fill="#FFC6B2"/>
</g>
<mask id="mask47_52_2" style="mask-type:luminance" maskUnits="userSpaceOnUse" x="522" y="229" width="71" height="172">
<path fill-rule="evenodd" clip-rule="evenodd" d="M565.981 229.036L580.783 234.975C580.783 234.975 554.287 336.96 564.215 348.38C574.142 359.797 592.713 392.178 592.713 392.178L582.568 400.946C582.568 400.946 522.42 355.696 522.238 333.096C522.055 310.495 565.981 229.036 565.981 229.036Z" fill="white"/>
</mask>
<g mask="url(#mask47_52_2)">
<path fill-rule="evenodd" clip-rule="evenodd" d="M517.237 405.946H597.713V224.036H517.237V405.946Z" fill="#FFB2A0"/>
</g>
<mask id="mask48_52_2" style="mask-type:luminance" maskUnits="userSpaceOnUse" x="645" y="310" width="37" height="18">
<path fill-rule="evenodd" clip-rule="evenodd" d="M656.343 312.629C658.454 311.438 673.785 309.563 680.34 310.923C686.895 312.29 654.273 327.769 654.273 327.769L645.069 321.204C645.069 321.204 647.598 319.166 650.305 317.058L651.093 316.446C653.286 314.751 655.447 313.134 656.343 312.629Z" fill="white"/>
</mask>
<g mask="url(#mask48_52_2)">
<path fill-rule="evenodd" clip-rule="evenodd" d="M640.069 332.769H686.211V305.449H640.069V332.769Z" fill="#FFC6B2"/>
</g>
<mask id="mask49_52_2" style="mask-type:luminance" maskUnits="userSpaceOnUse" x="557" y="234" width="98" height="131">
<path fill-rule="evenodd" clip-rule="evenodd" d="M595.322 234.268C624.72 261.213 620.215 281.216 613.684 300.811C607.152 320.406 602.253 334.286 602.253 334.286C611.452 327.887 643.74 321.467 645.027 321.213L645.067 321.205L654.656 327.587L625.93 343.268C591.634 361.986 567.554 372.253 558.982 356.737C550.408 341.228 572.868 242.438 572.868 242.438L595.322 234.268Z" fill="white"/>
</mask>
<g mask="url(#mask49_52_2)">
<path fill-rule="evenodd" clip-rule="evenodd" d="M552.031 369.303H659.656V229.268H552.031V369.303Z" fill="#FFC6B2"/>
</g>
<mask id="mask50_52_2" style="mask-type:luminance" maskUnits="userSpaceOnUse" x="567" y="155" width="25" height="27">
<path fill-rule="evenodd" clip-rule="evenodd" d="M576.36 155.655C582.923 155.655 591.997 157.956 591.997 164.521C591.997 171.088 586.825 181.747 580.258 181.747C573.695 181.747 567.684 173.532 567.684 166.965C567.684 160.402 569.797 155.655 576.36 155.655Z" fill="white"/>
</mask>
<g mask="url(#mask50_52_2)">
<path fill-rule="evenodd" clip-rule="evenodd" d="M562.684 186.747H596.997V150.655H562.684V186.747Z" fill="#FFC6B2"/>
</g>
<mask id="mask51_52_2" style="mask-type:luminance" maskUnits="userSpaceOnUse" x="527" y="54" width="46" height="127">
<path fill-rule="evenodd" clip-rule="evenodd" d="M537.354 54.2451C537.354 54.2451 541.152 73.4708 544.783 92.2352L545.077 93.7552C546.25 99.8282 547.395 105.797 548.375 110.989C552.457 132.627 572.867 154.714 572.867 154.714L556.688 180.923C554.173 175.013 549.017 161.47 543.823 147.852L543.146 146.076C537.277 130.69 531.507 115.628 529.597 111.806C527.906 108.426 527.771 96.4489 528.118 84.4987L528.166 82.9408C528.603 69.4529 529.597 56.4791 529.597 56.4791L537.354 54.2451Z" fill="white"/>
</mask>
<g mask="url(#mask51_52_2)">
<path fill-rule="evenodd" clip-rule="evenodd" d="M522.963 185.923H577.867V49.2451H522.963V185.923Z" fill="#FFC6B2"/>
</g>
<mask id="mask52_52_2" style="mask-type:luminance" maskUnits="userSpaceOnUse" x="594" y="116" width="108" height="72">
<path fill-rule="evenodd" clip-rule="evenodd" d="M696.673 116.118L701.531 121.676C701.531 121.676 675.075 152.235 659.683 157.595C653.988 159.579 645.925 163.722 637.856 168.241L636.547 168.977C636.329 169.1 636.112 169.223 635.894 169.346L634.59 170.089C622.005 177.28 610.188 184.802 608.237 185.782C603.811 188.008 603.283 190.735 597.678 178.478L597.283 177.609C596.544 175.971 595.721 174.088 594.795 171.929C594.795 171.929 596.364 165.058 622.173 155.72C647.982 146.383 696.673 116.118 696.673 116.118Z" fill="white"/>
</mask>
<g mask="url(#mask52_52_2)">
<path fill-rule="evenodd" clip-rule="evenodd" d="M589.795 192.706H706.531V111.118H589.795V192.706Z" fill="#FFC6B2"/>
</g>
<mask id="mask53_52_2" style="mask-type:luminance" maskUnits="userSpaceOnUse" x="552" y="154" width="60" height="91">
<path fill-rule="evenodd" clip-rule="evenodd" d="M572.867 154.714L577.428 155.668C577.428 155.668 566.372 172.536 570.846 175.02C592.715 187.163 588.066 160.937 587.546 158.284L587.519 158.148C587.509 158.097 587.503 158.07 587.503 158.07L609.682 162.352L611.633 185.297L595.321 234.269C595.321 234.269 594.567 234.843 593.259 235.721L592.906 235.957C589.307 238.34 582.177 242.566 574.882 244.066C565.534 245.987 557.932 244.282 557.105 244.084L557.05 244.071C557.037 244.067 557.031 244.066 557.031 244.066C552.388 236.598 552.143 197.222 552.131 193.303L552.13 192.989C552.13 162.381 571.641 155.139 572.812 154.733L572.861 154.716L572.867 154.714Z" fill="white"/>
</mask>
<g mask="url(#mask53_52_2)">
<path fill-rule="evenodd" clip-rule="evenodd" d="M547.13 249.971H616.633V149.714H547.13V249.971Z" fill="#22343D"/>
</g>
<mask id="mask54_52_2" style="mask-type:luminance" maskUnits="userSpaceOnUse" x="545" y="141" width="33" height="40">
<path fill-rule="evenodd" clip-rule="evenodd" d="M565.327 141.547C565.327 141.547 567.224 148.057 569.303 150.544C571.382 153.029 577.435 155.675 577.435 155.675L555.321 180.377L545.103 159.089C545.103 159.089 546.569 146.175 565.327 141.547Z" fill="white"/>
</mask>
<g mask="url(#mask54_52_2)">
<path fill-rule="evenodd" clip-rule="evenodd" d="M540.103 185.377H582.435V136.547H540.103V185.377Z" fill="#22343D"/>
</g>
<mask id="mask55_52_2" style="mask-type:luminance" maskUnits="userSpaceOnUse" x="588" y="156" width="40" height="33">
<path fill-rule="evenodd" clip-rule="evenodd" d="M618.698 156.646C629.816 168.203 627.814 178.23 626.812 181.306L626.741 181.516C626.57 182.011 626.443 182.274 626.443 182.274L593.951 188.934L589.061 161.205C589.061 161.205 586.844 158.718 590.073 158.45C591.493 158.332 597.05 157.978 602.895 157.614L603.732 157.562L604.989 157.484L605.824 157.433C612.492 157.021 618.698 156.646 618.698 156.646Z" fill="white"/>
</mask>
<g mask="url(#mask55_52_2)">
<path fill-rule="evenodd" clip-rule="evenodd" d="M583.318 193.934H632.626V151.646H583.318V193.934Z" fill="#22343D"/>
</g>
<mask id="mask56_52_2" style="mask-type:luminance" maskUnits="userSpaceOnUse" x="521" y="226" width="128" height="91">
<path fill-rule="evenodd" clip-rule="evenodd" d="M581.377 226.666L595.339 230.847C627.705 247.717 648.641 292.03 648.641 292.03C611.836 342.163 521.17 300.513 521.17 300.513C526.247 290.361 556.979 233.54 556.979 233.54L557.525 233.267L581.377 226.666Z" fill="white"/>
</mask>
<g mask="url(#mask56_52_2)">
<path fill-rule="evenodd" clip-rule="evenodd" d="M516.17 321.745H653.641V221.666H516.17V321.745Z" fill="#22343D"/>
</g>
<mask id="mask57_52_2" style="mask-type:luminance" maskUnits="userSpaceOnUse" x="602" y="134" width="9" height="7">
<path fill-rule="evenodd" clip-rule="evenodd" d="M610.146 134.952C612.3 137.376 602.339 140.877 602.339 140.877L604.492 136.03C604.492 136.03 607.993 132.529 610.146 134.952Z" fill="white"/>
</mask>
<g mask="url(#mask57_52_2)">
<path fill-rule="evenodd" clip-rule="evenodd" d="M597.339 145.877H615.451V129.098H597.339V145.877Z" fill="#FFC6B2"/>
</g>
<mask id="mask58_52_2" style="mask-type:luminance" maskUnits="userSpaceOnUse" x="570" y="84" width="99" height="19">
<path fill-rule="evenodd" clip-rule="evenodd" d="M617.21 84.6909C624.39 85.4739 631.11 86.7459 637.217 87.6689C643.323 88.6089 648.841 89.1839 653.488 89.2919C662.804 89.5519 668.442 87.8989 668.527 88.2829C668.561 88.4039 667.209 88.9899 664.627 89.6029C662.052 90.2229 658.23 90.7849 653.483 90.8819C648.74 90.9769 643.099 90.5549 636.924 89.7169C630.745 88.8979 624.033 87.6949 616.971 86.9249C609.92 86.1709 603.141 86.0329 597.137 87.0029C591.131 87.9559 585.933 89.9239 581.959 92.2209C577.986 94.5359 575.221 97.1049 573.524 99.0489C571.817 100.995 571.048 102.238 570.875 102.133C570.78 102.084 571.293 100.685 572.84 98.5029C574.377 96.3279 577.09 93.4589 581.135 90.8639C585.177 88.2849 590.55 86.0689 596.793 84.9609C603.044 83.8359 610.036 83.9219 617.21 84.6909Z" fill="white"/>
</mask>
<g mask="url(#mask58_52_2)">
<path fill-rule="evenodd" clip-rule="evenodd" d="M565.864 107.139H673.528V79.114H565.864V107.139Z" fill="#775298"/>
</g>
<mask id="mask59_52_2" style="mask-type:luminance" maskUnits="userSpaceOnUse" x="582" y="125" width="10" height="10">
<path fill-rule="evenodd" clip-rule="evenodd" d="M590.924 125.317C591.05 125.301 591.298 126.325 590.746 127.87C590.465 128.627 589.976 129.495 589.186 130.257C588.401 131.018 587.314 131.642 586.079 131.912C585.463 132.049 584.843 132.102 584.246 132.071C583.986 132.057 583.577 132.005 583.458 131.979C583.348 131.961 583.362 131.936 583.34 131.95C583.327 131.963 583.321 131.984 583.322 132.015C583.366 132.162 583.447 132.303 583.559 132.429C583.787 132.685 584.117 132.877 584.439 133.037C585.755 133.683 586.689 133.874 586.665 134.043C586.655 134.18 585.657 134.276 584.135 133.771C583.759 133.639 583.314 133.465 582.9 133.086C582.696 132.896 582.506 132.644 582.39 132.342C582.223 131.918 582.237 131.438 582.402 131.071C582.451 130.998 582.447 130.823 582.544 130.82L582.84 130.81C583.03 130.784 583.254 130.846 583.473 130.887C583.875 130.964 584.004 130.952 584.29 130.972C584.792 130.983 585.312 130.931 585.832 130.816C587.958 130.368 589.38 128.821 590.018 127.549C590.687 126.269 590.746 125.306 590.924 125.317Z" fill="white"/>
</mask>
<g mask="url(#mask59_52_2)">
<path fill-rule="evenodd" clip-rule="evenodd" d="M577.271 139.152H596.09V120.317H577.271V139.152Z" fill="#FF7B5B"/>
</g>
<mask id="mask60_52_2" style="mask-type:luminance" maskUnits="userSpaceOnUse" x="579" y="134" width="13" height="8">
<path fill-rule="evenodd" clip-rule="evenodd" d="M579.376 134.421L591.345 139.137L591.342 139.139L591.317 139.156C591.268 139.189 591.155 139.263 590.989 139.365L590.855 139.447C588.763 140.698 580.637 144.835 579.376 134.421Z" fill="white"/>
</mask>
<g mask="url(#mask60_52_2)">
<path fill-rule="evenodd" clip-rule="evenodd" d="M574.376 146.315H596.345V129.421H574.376V146.315Z" fill="white"/>
</g>
<mask id="mask61_52_2" style="mask-type:luminance" maskUnits="userSpaceOnUse" x="591" y="133" width="6" height="5">
<path fill-rule="evenodd" clip-rule="evenodd" d="M595.05 134.084C596.252 134.717 596.881 135.882 596.456 136.69C596.031 137.498 594.713 137.639 593.511 137.006C592.309 136.375 591.68 135.207 592.103 134.401C592.529 133.593 593.848 133.451 595.05 134.084Z" fill="white"/>
</mask>
<g mask="url(#mask61_52_2)">
<path fill-rule="evenodd" clip-rule="evenodd" d="M586.972 142.402H601.589V128.688H586.972V142.402Z" fill="#FFB2A0"/>
</g>
<mask id="mask62_52_2" style="mask-type:luminance" maskUnits="userSpaceOnUse" x="578" y="126" width="6" height="5">
<path fill-rule="evenodd" clip-rule="evenodd" d="M581.497 127.115C582.743 127.655 583.461 128.77 583.098 129.607C582.735 130.445 581.432 130.687 580.186 130.147C578.94 129.607 578.222 128.492 578.585 127.655C578.946 126.818 580.251 126.576 581.497 127.115Z" fill="white"/>
</mask>
<g mask="url(#mask62_52_2)">
<path fill-rule="evenodd" clip-rule="evenodd" d="M573.491 135.435H588.192V121.828H573.491V135.435Z" fill="#FFB2A0"/>
</g>
<mask id="mask63_52_2" style="mask-type:luminance" maskUnits="userSpaceOnUse" x="578" y="147" width="10" height="5">
<path fill-rule="evenodd" clip-rule="evenodd" d="M587.237 149.93C587.237 149.93 587.192 149.998 587.087 150.106L587.008 150.183C586.406 150.749 584.499 152.017 579.919 151.363L579.924 151.335C579.969 151.065 580.271 148.936 578.821 147.675L578.743 147.611C579.337 148.081 583.21 150.971 587.237 149.93Z" fill="white"/>
</mask>
<g mask="url(#mask63_52_2)">
<path fill-rule="evenodd" clip-rule="evenodd" d="M573.664 156.546H592.237V142.548H573.664V156.546Z" fill="#FFA192"/>
</g>
<mask id="mask64_52_2" style="mask-type:luminance" maskUnits="userSpaceOnUse" x="593" y="128" width="3" height="3">
<path fill-rule="evenodd" clip-rule="evenodd" d="M594.36 128.225C594.883 128.225 595.308 128.65 595.308 129.173C595.308 129.696 594.883 130.121 594.36 130.121C593.836 130.121 593.411 129.696 593.411 129.173C593.411 128.65 593.836 128.225 594.36 128.225Z" fill="white"/>
</mask>
<g mask="url(#mask64_52_2)">
<path fill-rule="evenodd" clip-rule="evenodd" d="M588.411 135.121H600.308V123.225H588.411V135.121Z" fill="#22343D"/>
</g>
<mask id="mask65_52_2" style="mask-type:luminance" maskUnits="userSpaceOnUse" x="585" y="125" width="3" height="3">
<path fill-rule="evenodd" clip-rule="evenodd" d="M586.599 125.429C587.122 125.429 587.547 125.854 587.547 126.378C587.547 126.901 587.122 127.326 586.599 127.326C586.076 127.326 585.652 126.901 585.652 126.378C585.652 125.854 586.076 125.429 586.599 125.429Z" fill="white"/>
</mask>
<g mask="url(#mask65_52_2)">
<path fill-rule="evenodd" clip-rule="evenodd" d="M580.652 132.326H592.547V120.429H580.652V132.326Z" fill="#22343D"/>
</g>
<mask id="mask66_52_2" style="mask-type:luminance" maskUnits="userSpaceOnUse" x="594" y="124" width="5" height="3">
<path fill-rule="evenodd" clip-rule="evenodd" d="M597.264 124.598C598.419 125.367 598.647 126.555 598.355 126.647C598.062 126.771 597.496 126.086 596.639 125.532C595.801 124.953 594.95 124.693 594.952 124.376C594.924 124.071 596.111 123.825 597.264 124.598Z" fill="white"/>
</mask>
<g mask="url(#mask66_52_2)">
<path fill-rule="evenodd" clip-rule="evenodd" d="M589.952 131.662H603.47V119.083H589.952V131.662Z" fill="#775298"/>
</g>
<mask id="mask67_52_2" style="mask-type:luminance" maskUnits="userSpaceOnUse" x="584" y="121" width="6" height="2">
<path fill-rule="evenodd" clip-rule="evenodd" d="M587.041 121.413C588.429 121.442 589.454 122.116 589.312 122.397C589.181 122.682 588.215 122.559 586.997 122.536C585.772 122.5 584.698 122.368 584.678 122.046C584.659 121.75 585.677 121.377 587.041 121.413Z" fill="white"/>
</mask>
<g mask="url(#mask67_52_2)">
<path fill-rule="evenodd" clip-rule="evenodd" d="M579.678 127.582H594.325V116.41H579.678V127.582Z" fill="#775298"/>
</g>
<mask id="mask68_52_2" style="mask-type:luminance" maskUnits="userSpaceOnUse" x="588" y="396" width="14" height="35">
<path fill-rule="evenodd" clip-rule="evenodd" d="M595.218 396.003L600.347 404.111C600.347 404.111 601.294 410.153 601.628 416.431L601.665 417.201C601.94 423.361 601.565 429.52 599.072 430.221C593.931 431.668 588.952 413.995 588.952 413.995C600.036 437.29 595.218 396.003 595.218 396.003Z" fill="white"/>
</mask>
<g mask="url(#mask68_52_2)">
<path fill-rule="evenodd" clip-rule="evenodd" d="M583.952 435.305H606.742V391.003H583.952V435.305Z" fill="#22343D"/>
</g>
<mask id="mask69_52_2" style="mask-type:luminance" maskUnits="userSpaceOnUse" x="651" y="310" width="32" height="11">
<path fill-rule="evenodd" clip-rule="evenodd" d="M682.128 310.97C684.433 313.055 669.411 320.045 669.411 320.045C669.411 320.045 674.645 316.709 672.472 315.47C668.631 313.274 651.735 316.018 651.735 316.018C651.735 316.018 651.796 315.951 651.913 315.832L652.048 315.698C653.018 314.743 656.119 311.953 659.744 311.41C664.135 310.751 679.824 308.885 682.128 310.97Z" fill="white"/>
</mask>
<g mask="url(#mask69_52_2)">
<path fill-rule="evenodd" clip-rule="evenodd" d="M646.735 325.045H687.368V305.011H646.735V325.045Z" fill="#22343D"/>
</g>
<mask id="mask70_52_2" style="mask-type:luminance" maskUnits="userSpaceOnUse" x="645" y="319" width="9" height="12">
<path fill-rule="evenodd" clip-rule="evenodd" d="M646.552 319.41L653.102 329.234L650.422 330.722L645.51 320.749L646.552 319.41Z" fill="white"/>
</mask>
<g mask="url(#mask70_52_2)">
<path fill-rule="evenodd" clip-rule="evenodd" d="M640.51 335.722H658.102V314.41H640.51V335.722Z" fill="#22343D"/>
</g>
<mask id="mask71_52_2" style="mask-type:luminance" maskUnits="userSpaceOnUse" x="578" y="388" width="15" height="15">
<path fill-rule="evenodd" clip-rule="evenodd" d="M590.584 388.179L592.221 391.008L582.099 402.024L578.526 399.046L590.584 388.179Z" fill="white"/>
</mask>
<g mask="url(#mask71_52_2)">
<path fill-rule="evenodd" clip-rule="evenodd" d="M573.526 407.024H597.221V383.179H573.526V407.024Z" fill="#22343D"/>
</g>
<mask id="mask72_52_2" style="mask-type:luminance" maskUnits="userSpaceOnUse" x="297" y="173" width="124" height="142">
<path fill-rule="evenodd" clip-rule="evenodd" d="M345.789 177.418C357.316 182.86 366.125 192.738 373.614 203.056C381.104 213.372 387.661 224.444 396.383 233.742C398.404 235.896 400.542 237.958 402.676 240.022L403.955 241.261C408.209 245.398 412.346 249.618 415.391 254.68C428.745 276.884 415.005 304.978 391.43 312.992C370.715 320.031 345.671 297.783 338.504 279.992C335.075 271.483 333.757 262.009 328.641 254.394C325.562 249.812 321.297 246.195 316.94 242.677L315.802 241.76C310.109 237.185 304.42 232.648 301.161 226.226C298.623 221.226 297.827 215.506 297.8 209.899C297.752 198.806 301.072 187.014 309.641 179.964C319.486 171.864 334.258 171.977 345.789 177.418Z" fill="white"/>
</mask>
<g mask="url(#mask72_52_2)">
<path fill-rule="evenodd" clip-rule="evenodd" d="M292.8 319.326H425.622V168.572H292.8V319.326Z" fill="#22343D"/>
</g>
<mask id="mask73_52_2" style="mask-type:luminance" maskUnits="userSpaceOnUse" x="283" y="432" width="29" height="31">
<path fill-rule="evenodd" clip-rule="evenodd" d="M290.565 432.09L306.141 433.014C306.141 433.014 308.049 435.814 308.993 436.592C311.043 438.278 308.806 437.11 311.789 439.053C311.123 446.504 304.231 451.199 304.231 451.199C304.231 451.199 303.94 463.062 301.726 462.818C299.507 462.578 300.928 451.395 300.928 451.395C300.928 451.395 296.391 463.08 294.471 462.336C293.512 461.966 294.769 458.428 296.266 454.984L296.532 454.377C297.961 451.156 299.499 448.187 299.499 448.187C299.499 448.187 297.488 450.956 295.168 453.778L294.767 454.261C292.082 457.483 289.121 460.572 288.426 459.475C287.09 457.364 295.656 444.433 295.656 444.433C295.656 444.433 295.05 445.069 294.111 446.011L293.766 446.356C290.667 449.445 284.759 455.042 283.883 453.727C282.69 451.936 296.507 436.514 296.507 436.514C290.979 436.453 290.568 433.192 290.558 432.309L290.559 432.216C290.56 432.135 290.565 432.09 290.565 432.09Z" fill="white"/>
</mask>
<g mask="url(#mask73_52_2)">
<path fill-rule="evenodd" clip-rule="evenodd" d="M278.81 467.822H316.789V427.09H278.81V467.822Z" fill="#FFC6B2"/>
</g>
<mask id="mask74_52_2" style="mask-type:luminance" maskUnits="userSpaceOnUse" x="441" y="183" width="34" height="31">
<path fill-rule="evenodd" clip-rule="evenodd" d="M463.662 183.252C466.229 182.925 461.349 198.545 461.349 198.545C461.349 198.545 461.362 198.518 461.388 198.466L461.455 198.33C461.469 198.303 461.484 198.272 461.5 198.239L461.68 197.88C462.221 196.804 463.362 194.575 464.64 192.329L464.976 191.743C466.838 188.528 468.899 185.48 469.788 185.953C470.706 186.441 469.424 189.438 467.939 192.268L467.658 192.796C466.297 195.333 464.872 197.597 464.872 197.597C464.872 197.597 473.136 189.547 474.726 191.043C476.305 192.536 466.779 200.176 466.779 200.176C466.779 200.176 467.533 208.284 461.852 213.445C458.394 212.439 460.462 213.322 457.797 212.855C457.225 212.756 456.115 212.727 455.093 212.725L454.662 212.726C453.678 212.731 452.872 212.755 452.872 212.755L441.456 201.561L441.468 201.552C441.701 201.388 445.281 198.985 450.323 203.088C450.323 203.088 453.904 183.703 456.118 183.471C458.33 183.237 455.871 198.034 455.871 198.034C455.871 198.034 461.102 183.58 463.662 183.252Z" fill="white"/>
</mask>
<g mask="url(#mask74_52_2)">
<path fill-rule="evenodd" clip-rule="evenodd" d="M436.456 218.445H479.902V178.247H436.456V218.445Z" fill="#FFC6B2"/>
</g>
<mask id="mask75_52_2" style="mask-type:luminance" maskUnits="userSpaceOnUse" x="377" y="277" width="33" height="49">
<path fill-rule="evenodd" clip-rule="evenodd" d="M408.362 305.753C408.05 307.377 405.929 310.952 405.401 312.43C404.734 314.302 409.932 321.155 409.932 321.155L396.512 325.442C396.383 324.524 396.332 323.511 396.28 322.471L396.254 321.95C396.079 318.55 395.758 315 392.567 313.704C390.945 313.045 389.208 312.628 387.678 311.792C383.546 309.535 381.34 304.599 379.643 300.558C378.375 297.538 377.411 294.291 377.447 291.014C377.535 282.763 384.842 278.853 392.588 277.643C397.407 276.891 412.102 286.414 408.362 305.753Z" fill="white"/>
</mask>
<g mask="url(#mask75_52_2)">
<path fill-rule="evenodd" clip-rule="evenodd" d="M372.446 330.442H414.932V272.602H372.446V330.442Z" fill="#FFC6B2"/>
</g>
<mask id="mask76_52_2" style="mask-type:luminance" maskUnits="userSpaceOnUse" x="392" y="320" width="28" height="27">
<path fill-rule="evenodd" clip-rule="evenodd" d="M409.948 320.99C417.253 320.99 419.461 323.647 419.461 330.608C419.461 337.571 412.77 346.283 405.466 346.283C398.157 346.283 392.998 337.571 392.998 330.608C392.998 323.647 402.642 320.99 409.948 320.99Z" fill="white"/>
</mask>
<g mask="url(#mask76_52_2)">
<path fill-rule="evenodd" clip-rule="evenodd" d="M387.998 351.283H424.461V315.99H387.998V351.283Z" fill="#FFC6B2"/>
</g>
<mask id="mask77_52_2" style="mask-type:luminance" maskUnits="userSpaceOnUse" x="413" y="211" width="51" height="137">
<path fill-rule="evenodd" clip-rule="evenodd" d="M453.219 211.077L461.853 213.445C461.853 213.445 465.944 264.324 461.853 272.116C457.765 279.909 434.59 334.022 435.045 347.873L413.691 317.616C413.691 317.616 436.408 294.194 440.952 271.249C442.088 265.513 443.423 258.885 444.786 252.168L445.606 248.134L445.934 246.523C449.649 228.292 453.219 211.077 453.219 211.077Z" fill="white"/>
</mask>
<g mask="url(#mask77_52_2)">
<path fill-rule="evenodd" clip-rule="evenodd" d="M408.691 352.873H468.671V206.077H408.691V352.873Z" fill="#FFC6B2"/>
</g>
<mask id="mask78_52_2" style="mask-type:luminance" maskUnits="userSpaceOnUse" x="305" y="328" width="79" height="112">
<path fill-rule="evenodd" clip-rule="evenodd" d="M373.197 328.957C394.552 338.912 377.285 362.725 373.197 361.857C370.292 361.244 365.098 371.104 359.891 382.607L359.451 383.583C359.084 384.399 358.718 385.222 358.353 386.049L357.915 387.043C357.696 387.54 357.478 388.039 357.261 388.538L356.827 389.536L356.395 390.533C356.323 390.699 356.251 390.865 356.18 391.031L355.752 392.026C355.04 393.681 354.34 395.321 353.659 396.923C346.844 412.939 311.404 439.344 311.404 439.344L305.496 433.904C305.496 433.904 341.845 383.936 353.659 357.097C365.473 330.255 373.197 328.957 373.197 328.957Z" fill="white"/>
</mask>
<g mask="url(#mask78_52_2)">
<path fill-rule="evenodd" clip-rule="evenodd" d="M300.496 444.344H388.664V323.957H300.496V444.344Z" fill="#FFC6B2"/>
</g>
<mask id="mask79_52_2" style="mask-type:luminance" maskUnits="userSpaceOnUse" x="410" y="303" width="35" height="49">
<path fill-rule="evenodd" clip-rule="evenodd" d="M422.084 303.654C442.961 308.563 444.593 322.256 444.593 322.256L434.016 351.452L410.257 320.694L422.084 303.654Z" fill="white"/>
</mask>
<g mask="url(#mask79_52_2)">
<path fill-rule="evenodd" clip-rule="evenodd" d="M405.257 356.452H449.593V298.654H405.257V356.452Z" fill="#FF7B5B"/>
</g>
<mask id="mask80_52_2" style="mask-type:luminance" maskUnits="userSpaceOnUse" x="354" y="326" width="34" height="40">
<path fill-rule="evenodd" clip-rule="evenodd" d="M376.724 326.717C403.617 340.025 373.391 365.861 373.391 365.861C365.253 365.343 354.129 349.985 354.129 349.985C364.244 327.768 376.724 326.717 376.724 326.717Z" fill="white"/>
</mask>
<g mask="url(#mask80_52_2)">
<path fill-rule="evenodd" clip-rule="evenodd" d="M349.129 370.861H392.869V321.717H349.129V370.861Z" fill="#FF7B5B"/>
</g>
<mask id="mask81_52_2" style="mask-type:luminance" maskUnits="userSpaceOnUse" x="389" y="581" width="23" height="41">
<path fill-rule="evenodd" clip-rule="evenodd" d="M399.11 581.997L411.012 590.186C411.012 590.186 410.794 590.631 410.403 591.414L410.173 591.875C406.597 599.014 392.724 626.087 390.892 620.162C388.789 613.348 389.484 596.986 390.612 594.651C391.069 593.709 392.539 591.469 394.131 589.132L394.515 588.569C396.763 585.285 399.11 581.997 399.11 581.997Z" fill="white"/>
</mask>
<g mask="url(#mask81_52_2)">
<path fill-rule="evenodd" clip-rule="evenodd" d="M384.535 626.003H416.012V576.997H384.535V626.003Z" fill="#FFC6B2"/>
</g>
<mask id="mask82_52_2" style="mask-type:luminance" maskUnits="userSpaceOnUse" x="399" y="408" width="79" height="184">
<path fill-rule="evenodd" clip-rule="evenodd" d="M428.863 408.998C428.863 408.998 428.907 409.076 428.992 409.227L429.217 409.627C433.629 417.48 477.743 496.578 477.551 519.347C477.348 543.31 410.402 591.296 410.402 591.296L399.11 581.997C399.11 581.997 430.841 535.342 441.89 523.236C447.415 517.18 407.861 487.509 401.87 458.959C395.879 430.409 412.389 415.297 412.389 415.297L428.863 408.998Z" fill="white"/>
</mask>
<g mask="url(#mask82_52_2)">
<path fill-rule="evenodd" clip-rule="evenodd" d="M394.11 596.296H482.552V403.998H394.11V596.296Z" fill="#654287"/>
</g>
<mask id="mask83_52_2" style="mask-type:luminance" maskUnits="userSpaceOnUse" x="281" y="558" width="33" height="33">
<path fill-rule="evenodd" clip-rule="evenodd" d="M306.695 558.442L313.338 570.915C313.338 570.915 279.641 595.753 281.043 588.783C282.449 581.805 290.932 567.566 293.059 565.982C294.04 565.254 297.007 563.599 299.924 562.024L300.526 561.7C303.727 559.979 306.695 558.442 306.695 558.442Z" fill="white"/>
</mask>
<g mask="url(#mask83_52_2)">
<path fill-rule="evenodd" clip-rule="evenodd" d="M276 595.016H318.338V553.442H276V595.016Z" fill="#FFC6B2"/>
</g>
<mask id="mask84_52_2" style="mask-type:luminance" maskUnits="userSpaceOnUse" x="306" y="417" width="111" height="155">
<path fill-rule="evenodd" clip-rule="evenodd" d="M416.308 417.638C416.308 417.638 418.242 515.761 406.541 536.977C394.842 558.194 312.262 571.635 312.262 571.635L306.695 558.442C306.695 558.442 357.642 528.087 373.284 522.146C388.927 516.203 367.568 445.886 367.568 445.886L416.308 417.638Z" fill="white"/>
</mask>
<g mask="url(#mask84_52_2)">
<path fill-rule="evenodd" clip-rule="evenodd" d="M301.695 576.635H421.427V412.638H301.695V576.635Z" fill="#775298"/>
</g>
<mask id="mask85_52_2" style="mask-type:luminance" maskUnits="userSpaceOnUse" x="366" y="398" width="62" height="90">
<path fill-rule="evenodd" clip-rule="evenodd" d="M396.595 398.316L406.444 406.665L427.107 409.286L406.444 453.512L385.862 487.283C385.862 487.283 374.428 480.748 367.568 445.886C360.707 411.023 396.595 398.316 396.595 398.316Z" fill="white"/>
</mask>
<g mask="url(#mask85_52_2)">
<path fill-rule="evenodd" clip-rule="evenodd" d="M361.697 492.283H432.107V393.316H361.697V492.283Z" fill="#775298"/>
</g>
<mask id="mask86_52_2" style="mask-type:luminance" maskUnits="userSpaceOnUse" x="372" y="317" width="69" height="97">
<path fill-rule="evenodd" clip-rule="evenodd" d="M413.691 317.616C413.691 317.616 440.114 332.424 440.114 365.885C440.114 365.885 440.111 365.919 440.105 365.986L440.089 366.163C439.773 369.625 436.485 404.448 431.317 412.366C431.317 412.366 422.474 414.526 411.448 412.366C399.888 410.103 388.7 401.978 388.7 401.978L379.671 355.274L372.646 328.004L376.454 326.749L396.326 324.566L396.323 324.601C396.222 325.736 393.915 353.955 415.66 339.509C420.333 336.404 409.842 320.926 409.842 320.926L413.691 317.616Z" fill="white"/>
</mask>
<g mask="url(#mask86_52_2)">
<path fill-rule="evenodd" clip-rule="evenodd" d="M367.646 418.326H445.114V312.616H367.646V418.326Z" fill="#FF7B5B"/>
</g>
<mask id="mask87_52_2" style="mask-type:luminance" maskUnits="userSpaceOnUse" x="429" y="135" width="88" height="89">
<path fill-rule="evenodd" clip-rule="evenodd" d="M464.488 135.775L516.425 164.629L485.262 223.492L429.864 191.174L464.488 135.775Z" fill="white"/>
</mask>
<g mask="url(#mask87_52_2)">
<path fill-rule="evenodd" clip-rule="evenodd" d="M424.864 228.492H521.425V130.775H424.864V228.492Z" fill="white"/>
</g>
<mask id="mask88_52_2" style="mask-type:luminance" maskUnits="userSpaceOnUse" x="477" y="391" width="70" height="82">
<path fill-rule="evenodd" clip-rule="evenodd" d="M513.82 391.279L546.554 448.417L506.933 472.944L477.601 414.765L513.82 391.279Z" fill="white"/>
</mask>
<g mask="url(#mask88_52_2)">
<path fill-rule="evenodd" clip-rule="evenodd" d="M472.601 477.944H551.554V386.279H472.601V477.944Z" fill="white"/>
</g>
<mask id="mask89_52_2" style="mask-type:luminance" maskUnits="userSpaceOnUse" x="311" y="229" width="70" height="84">
<path fill-rule="evenodd" clip-rule="evenodd" d="M315.113 232.751C317.039 235.019 319.667 238.467 322.304 243.121C324.951 247.755 327.571 253.635 329.442 260.46C331.378 267.235 332.676 274.85 335.652 282.185C337.197 285.809 339.069 289.182 341.298 292.164C343.546 295.127 346.04 297.727 348.607 299.995C353.853 304.41 359.348 307.447 364.245 309.201C369.138 310.98 373.329 311.778 376.242 312.064C379.153 312.387 380.798 312.434 380.8 312.625C380.808 312.745 379.168 312.995 376.179 312.938C373.191 312.915 368.843 312.344 363.722 310.702C358.598 309.084 352.808 306.088 347.271 301.576C344.555 299.258 341.916 296.573 339.539 293.487C337.181 290.384 335.189 286.835 333.572 283.037C330.472 275.37 329.247 267.688 327.443 261.003C325.722 254.296 323.328 248.524 320.908 243.88C318.503 239.223 316.115 235.692 314.423 233.285C313.425 231.877 312.669 230.847 312.24 230.213L312.103 230.006C311.896 229.688 311.807 229.508 311.851 229.469C311.955 229.376 313.179 230.486 315.113 232.751Z" fill="white"/>
</mask>
<g mask="url(#mask89_52_2)">
<path fill-rule="evenodd" clip-rule="evenodd" d="M306.84 317.946H385.8V224.464H306.84V317.946Z" fill="#22343D"/>
</g>
<mask id="mask90_52_2" style="mask-type:luminance" maskUnits="userSpaceOnUse" x="379" y="191" width="42" height="86">
<path fill-rule="evenodd" clip-rule="evenodd" d="M379.913 191.659C380.32 191.598 380.716 197.051 383.767 205.117C385.291 209.135 387.558 213.757 390.813 218.391C392.44 220.712 394.312 222.998 396.431 225.275C398.536 227.563 400.828 229.887 402.995 232.493C407.339 237.753 410.328 243.439 413.143 248.457C415.937 253.525 418.162 258.345 419.294 262.657C420.474 266.956 420.543 270.656 420.169 273.111C419.778 275.576 419.165 276.826 419.063 276.792C418.996 276.774 418.99 276.605 419.016 276.291L419.037 276.061C419.1 275.433 419.233 274.41 419.297 273.032C419.394 270.646 419.089 267.17 417.77 263.107C416.495 259.027 414.2 254.429 411.337 249.469C408.43 244.512 405.415 238.941 401.265 233.927C399.182 231.419 396.922 229.103 394.804 226.759C392.676 224.425 390.74 221.995 389.106 219.564C385.829 214.696 383.641 209.844 382.271 205.65C380.87 201.458 380.273 197.919 379.99 195.481C379.711 193.038 379.786 191.671 379.913 191.659Z" fill="white"/>
</mask>
<g mask="url(#mask90_52_2)">
<path fill-rule="evenodd" clip-rule="evenodd" d="M374.799 281.793H425.371V186.659H374.799V281.793Z" fill="#22343D"/>
</g>
<mask id="mask91_52_2" style="mask-type:luminance" maskUnits="userSpaceOnUse" x="390" y="290" width="10" height="9">
<path fill-rule="evenodd" clip-rule="evenodd" d="M391.882 292.137C392.35 292.647 392.94 293.232 393.636 293.796C394.323 294.344 395.164 294.843 396.003 294.71C396.447 294.653 396.966 294.445 397.597 294.403C398.239 294.339 398.954 294.635 399.346 295.077C399.763 295.528 399.997 296.059 399.948 296.689C399.824 297.333 399.482 297.634 399.199 297.915C397.978 298.985 396.858 298.81 396.897 298.664C396.876 298.507 397.778 298.363 398.63 297.363C398.826 297.132 399.024 296.795 399.021 296.599C399.016 296.388 398.869 296.022 398.615 295.811C398.352 295.575 398.06 295.461 397.674 295.5C397.275 295.529 396.789 295.727 396.155 295.822C394.765 296.007 393.681 295.222 392.968 294.586C392.235 293.917 391.676 293.239 391.259 292.63C390.428 291.406 390.17 290.521 390.298 290.456C390.445 290.377 390.945 291.11 391.882 292.137Z" fill="white"/>
</mask>
<g mask="url(#mask91_52_2)">
<path fill-rule="evenodd" clip-rule="evenodd" d="M385.267 303.773H404.955V285.45H385.267V303.773Z" fill="#FF7B5B"/>
</g>
<mask id="mask92_52_2" style="mask-type:luminance" maskUnits="userSpaceOnUse" x="392" y="299" width="12" height="8">
<path fill-rule="evenodd" clip-rule="evenodd" d="M403.444 299.586C401.832 311.352 392.804 303.454 392.804 303.454L403.444 299.586Z" fill="white"/>
</mask>
<g mask="url(#mask92_52_2)">
<path fill-rule="evenodd" clip-rule="evenodd" d="M387.804 311.048H408.444V294.586H387.804V311.048Z" fill="white"/>
</g>
<mask id="mask93_52_2" style="mask-type:luminance" maskUnits="userSpaceOnUse" x="387" y="298" width="5" height="4">
<path fill-rule="evenodd" clip-rule="evenodd" d="M391.743 298.927C392.168 299.735 391.538 300.902 390.336 301.533C389.134 302.166 387.817 302.026 387.391 301.218C386.966 300.412 387.596 299.244 388.798 298.611C389.999 297.978 391.317 298.119 391.743 298.927Z" fill="white"/>
</mask>
<g mask="url(#mask93_52_2)">
<path fill-rule="evenodd" clip-rule="evenodd" d="M382.259 306.929H396.875V293.215H382.259V306.929Z" fill="#FFB2A0"/>
</g>
<mask id="mask94_52_2" style="mask-type:luminance" maskUnits="userSpaceOnUse" x="399" y="291" width="6" height="5">
<path fill-rule="evenodd" clip-rule="evenodd" d="M404.356 292.459C404.704 293.303 403.968 294.405 402.714 294.923C401.458 295.443 400.158 295.18 399.81 294.336C399.462 293.492 400.198 292.39 401.453 291.872C402.708 291.353 404.007 291.615 404.356 292.459Z" fill="white"/>
</mask>
<g mask="url(#mask94_52_2)">
<path fill-rule="evenodd" clip-rule="evenodd" d="M394.724 300.19H409.442V286.606H394.724V300.19Z" fill="#FFB2A0"/>
</g>
<mask id="mask95_52_2" style="mask-type:luminance" maskUnits="userSpaceOnUse" x="393" y="313" width="9" height="4">
<path fill-rule="evenodd" clip-rule="evenodd" d="M401.216 313.578C401.216 313.578 398.979 315.751 395.325 316.256C395.325 316.256 394.506 314.742 393.119 313.987C393.119 313.987 396.679 314.711 401.216 313.578Z" fill="white"/>
</mask>
<g mask="url(#mask95_52_2)">
<path fill-rule="evenodd" clip-rule="evenodd" d="M388.119 321.256H406.216V308.578H388.119V321.256Z" fill="#FFA192"/>
</g>
<mask id="mask96_52_2" style="mask-type:luminance" maskUnits="userSpaceOnUse" x="395" y="289" width="3" height="3">
<path fill-rule="evenodd" clip-rule="evenodd" d="M396.756 290.07C397.155 290.408 397.204 291.007 396.865 291.406C396.527 291.805 395.93 291.854 395.529 291.515C395.13 291.179 395.081 290.58 395.42 290.18C395.758 289.781 396.357 289.732 396.756 290.07Z" fill="white"/>
</mask>
<g mask="url(#mask96_52_2)">
<path fill-rule="evenodd" clip-rule="evenodd" d="M390.195 296.74H402.09V284.845H390.195V296.74Z" fill="#22343D"/>
</g>
<mask id="mask97_52_2" style="mask-type:luminance" maskUnits="userSpaceOnUse" x="388" y="293" width="2" height="3">
<path fill-rule="evenodd" clip-rule="evenodd" d="M389.606 294.183C390.005 294.522 390.054 295.12 389.716 295.519C389.379 295.918 388.78 295.967 388.38 295.629C387.981 295.29 387.932 294.694 388.27 294.293C388.609 293.894 389.207 293.845 389.606 294.183Z" fill="white"/>
</mask>
<g mask="url(#mask97_52_2)">
<path fill-rule="evenodd" clip-rule="evenodd" d="M383.045 300.854H394.941V288.958H383.045V300.854Z" fill="#22343D"/>
</g>
<mask id="mask98_52_2" style="mask-type:luminance" maskUnits="userSpaceOnUse" x="392" y="285" width="5" height="3">
<path fill-rule="evenodd" clip-rule="evenodd" d="M396.798 286.112C396.703 286.416 395.815 286.405 394.839 286.701C393.855 286.966 393.108 287.446 392.866 287.239C392.615 287.065 393.194 285.999 394.53 285.62C395.863 285.236 396.917 285.831 396.798 286.112Z" fill="white"/>
</mask>
<g mask="url(#mask98_52_2)">
<path fill-rule="evenodd" clip-rule="evenodd" d="M387.809 292.289H401.807V280.494H387.809V292.289Z" fill="#22343D"/>
</g>
<mask id="mask99_52_2" style="mask-type:luminance" maskUnits="userSpaceOnUse" x="384" y="290" width="4" height="4">
<path fill-rule="evenodd" clip-rule="evenodd" d="M387.71 290.264C387.843 290.547 387.125 291.206 386.319 292.12C385.501 293.031 384.705 293.766 384.447 293.572C384.208 293.395 384.582 292.378 385.492 291.361C386.41 290.321 387.588 289.975 387.71 290.264Z" fill="white"/>
</mask>
<g mask="url(#mask99_52_2)">
<path fill-rule="evenodd" clip-rule="evenodd" d="M379.376 298.603H392.726V285.166H379.376V298.603Z" fill="#22343D"/>
</g>
<mask id="mask100_52_2" style="mask-type:luminance" maskUnits="userSpaceOnUse" x="375" y="300" width="8" height="6">
<path fill-rule="evenodd" clip-rule="evenodd" d="M375.383 301.199C377.021 298.606 380.434 301.472 380.434 301.472L382.754 305.158C382.754 305.158 373.746 303.792 375.383 301.199Z" fill="white"/>
</mask>
<g mask="url(#mask100_52_2)">
<path fill-rule="evenodd" clip-rule="evenodd" d="M370.184 310.158H387.754V295.113H370.184V310.158Z" fill="#FFC6B2"/>
</g>
<mask id="mask101_52_2" style="mask-type:luminance" maskUnits="userSpaceOnUse" x="280" y="562" width="19" height="29">
<path fill-rule="evenodd" clip-rule="evenodd" d="M298.38 562.843C284.13 586.03 293.947 584.171 293.947 584.171C293.947 584.171 291.175 586.218 288.154 588.029L287.634 588.337C284.594 590.114 281.449 591.524 280.725 590.283C279.997 589.035 282.421 583.567 285.239 578.155L285.625 577.418L286.015 576.684C288.75 571.561 291.616 566.843 292.212 566.248C293.488 564.97 298.38 562.843 298.38 562.843Z" fill="white"/>
</mask>
<g mask="url(#mask101_52_2)">
<path fill-rule="evenodd" clip-rule="evenodd" d="M275.595 595.753H303.38V557.843H275.595V595.753Z" fill="#775298"/>
</g>
<mask id="mask102_52_2" style="mask-type:luminance" maskUnits="userSpaceOnUse" x="389" y="589" width="12" height="33">
<path fill-rule="evenodd" clip-rule="evenodd" d="M393.839 589.572L393.847 589.618C392.159 614.6 398.954 611.17 400.052 610.462L400.115 610.42C400.17 610.382 400.2 610.359 400.2 610.359C400.2 610.359 393.352 623.233 390.847 621.664C388.34 620.098 389.3 596.767 389.836 595.046C390.372 593.32 393.847 589.564 393.847 589.564L393.839 589.572Z" fill="white"/>
</mask>
<g mask="url(#mask102_52_2)">
<path fill-rule="evenodd" clip-rule="evenodd" d="M384.2 626.797H405.2V584.564H384.2V626.797Z" fill="#775298"/>
</g>
</svg>
