<svg width="53" height="53" viewBox="0 0 53 53" fill="none" xmlns="http://www.w3.org/2000/svg">
<mask id="mask0_0_1157" style="mask-type:luminance" maskUnits="userSpaceOnUse" x="0" y="0" width="53" height="53">
<path fill-rule="evenodd" clip-rule="evenodd" d="M53 0V53H0V0H53ZM26.5 10C17.387 10 10 17.387 10 26.5C10 35.613 17.387 43 26.5 43C35.613 43 43 35.613 43 26.5C43 17.387 35.613 10 26.5 10Z" fill="white"/>
</mask>
<g mask="url(#mask0_0_1157)">
<path fill-rule="evenodd" clip-rule="evenodd" d="M26.5 43C35.6127 43 43 35.6127 43 26.5C43 17.3873 35.6127 10 26.5 10C17.3873 10 10 17.3873 10 26.5C10 35.6127 17.3873 43 26.5 43Z" stroke="#979797" stroke-width="2"/>
</g>
</svg>
