<svg width="336" height="56" viewBox="0 0 336 56" fill="none" xmlns="http://www.w3.org/2000/svg">
<rect x="144" y="4" width="48" height="48" rx="24" fill="#FEF7C3"/>
<path d="M165.395 35.3711L165.979 36.6856C166.153 37.0768 166.437 37.4093 166.796 37.6426C167.155 37.8759 167.574 38.0001 168.002 38C168.43 38.0001 168.849 37.8759 169.208 37.6426C169.567 37.4093 169.85 37.0768 170.024 36.6856L170.608 35.3711C170.816 34.9047 171.166 34.5159 171.608 34.26C172.053 34.0034 172.568 33.8941 173.078 33.9478L174.508 34.1C174.934 34.145 175.364 34.0656 175.745 33.8713C176.126 33.6771 176.443 33.3763 176.657 33.0056C176.871 32.635 176.973 32.2103 176.951 31.7829C176.929 31.3555 176.782 30.9438 176.531 30.5978L175.684 29.4344C175.382 29.0171 175.221 28.5148 175.224 28C175.224 27.4866 175.386 26.9864 175.688 26.5711L176.535 25.4078C176.787 25.0618 176.933 24.6501 176.955 24.2227C176.978 23.7953 176.876 23.3705 176.662 23C176.448 22.6292 176.131 22.3285 175.75 22.1342C175.368 21.94 174.938 21.8605 174.513 21.9056L173.083 22.0578C172.572 22.1114 172.058 22.0021 171.613 21.7456C171.17 21.4883 170.82 21.0974 170.613 20.6289L170.024 19.3144C169.85 18.9232 169.567 18.5907 169.208 18.3574C168.849 18.1241 168.43 17.9999 168.002 18C167.574 17.9999 167.155 18.1241 166.796 18.3574C166.437 18.5907 166.153 18.9232 165.979 19.3144L165.395 20.6289C165.188 21.0974 164.838 21.4883 164.395 21.7456C163.95 22.0021 163.436 22.1114 162.925 22.0578L161.491 21.9056C161.065 21.8605 160.635 21.94 160.254 22.1342C159.872 22.3285 159.556 22.6292 159.342 23C159.128 23.3705 159.025 23.7953 159.048 24.2227C159.07 24.6501 159.216 25.0618 159.468 25.4078L160.315 26.5711C160.617 26.9864 160.78 27.4866 160.779 28C160.78 28.5134 160.617 29.0137 160.315 29.4289L159.468 30.5922C159.216 30.9382 159.07 31.3499 159.048 31.7773C159.025 32.2047 159.128 32.6295 159.342 33C159.556 33.3706 159.873 33.6712 160.254 33.8654C160.635 34.0596 161.065 34.1392 161.491 34.0944L162.921 33.9422C163.431 33.8886 163.946 33.9979 164.391 34.2544C164.835 34.511 165.187 34.902 165.395 35.3711Z" stroke="#CA8504" stroke-width="2" stroke-linecap="round" stroke-linejoin="round"/>
<path d="M168 31C169.657 31 171 29.6569 171 28C171 26.3431 169.657 25 168 25C166.343 25 165 26.3431 165 28C165 29.6569 166.343 31 168 31Z" stroke="#CA8504" stroke-width="2" stroke-linecap="round" stroke-linejoin="round"/>
<rect x="144" y="4" width="48" height="48" rx="24" stroke="#FEFBE8" stroke-width="8"/>
</svg>
