<svg width="336" height="56" viewBox="0 0 336 56" fill="none" xmlns="http://www.w3.org/2000/svg">
<rect x="144" y="4" width="48" height="48" rx="24" fill="#FEF7C3"/>
<path d="M162.5 36H161C159.895 36 159 35.1046 159 34V20C159 18.8954 159.895 18 161 18H175C176.105 18 177 18.8954 177 20V34C177 35.1046 176.105 36 175 36H173.5M168 35C169.657 35 171 33.6569 171 32C171 30.3431 169.657 29 168 29C166.343 29 165 30.3431 165 32C165 33.6569 166.343 35 168 35ZM168 35L168.021 34.9998L164.829 38.1926L162 35.3641L165.02 32.3447M168 35L171.193 38.1926L174.021 35.3641L171.002 32.3447M165 22H171M163 25.5H173" stroke="#CA8504" stroke-width="2" stroke-linecap="round" stroke-linejoin="round"/>
<rect x="144" y="4" width="48" height="48" rx="24" stroke="#FEFBE8" stroke-width="8"/>
</svg>
