<svg width="15" height="15" viewBox="0 0 15 15" fill="none" xmlns="http://www.w3.org/2000/svg">
<path fill-rule="evenodd" clip-rule="evenodd" d="M7.86669 0.734863C4.02987 0.734863 0.916687 3.84804 0.916687 7.68486C0.916687 11.5217 4.02987 14.6349 7.86669 14.6349C11.696 14.6349 14.8167 11.5217 14.8167 7.68486C14.8167 3.84804 11.696 0.734863 7.86669 0.734863ZM12.4573 3.9385C13.2865 4.94858 13.784 6.23757 13.7991 7.63209C13.6031 7.59443 11.6432 7.19489 9.66826 7.44366C9.62304 7.34566 9.58534 7.24011 9.54012 7.1346C9.41949 6.84817 9.28384 6.55419 9.14814 6.27527C11.3341 5.3858 12.3292 4.10433 12.4573 3.9385ZM7.86669 1.76003C9.37427 1.76003 10.7537 2.32538 11.8015 3.25254C11.696 3.4033 10.7989 4.60184 8.68831 5.39332C7.71592 3.60682 6.63801 2.14446 6.47217 1.91832C6.91688 1.81279 7.38427 1.76003 7.86669 1.76003ZM5.34149 2.31783C5.49978 2.5289 6.55509 3.9988 7.54256 5.74759C4.76859 6.48634 2.31875 6.47126 2.05492 6.47126C2.43935 4.63199 3.68312 3.10178 5.34149 2.31783ZM1.92677 7.69242C1.92677 7.63209 1.92677 7.5718 1.92677 7.5115C2.18306 7.51902 5.06257 7.55672 8.02497 6.66725C8.19838 6.9989 8.35666 7.3381 8.50743 7.67731C8.43203 7.69994 8.3491 7.72257 8.27374 7.74516C5.21332 8.73262 3.58513 11.4312 3.44944 11.6574C2.50719 10.6096 1.92677 9.21508 1.92677 7.69242ZM7.86669 13.6248C6.49476 13.6248 5.2284 13.1574 4.22585 12.3735C4.33138 12.1549 5.53744 9.8332 8.8843 8.66481C8.89937 8.65726 8.90693 8.65726 8.922 8.64974C9.7587 10.8131 10.0979 12.6297 10.1884 13.1499C9.47227 13.4589 8.68831 13.6248 7.86669 13.6248ZM11.1758 12.6072C11.1156 12.2453 10.7989 10.5116 10.0225 8.37834C11.8844 8.08436 13.5126 8.56682 13.7162 8.63467C13.4599 10.2855 12.5101 11.7101 11.1758 12.6072Z" fill="#FEFDF0"/>
</svg>
