<svg width="33" height="34" viewBox="0 0 33 34" fill="none" xmlns="http://www.w3.org/2000/svg">
<rect x="2.78882" y="3.11664" width="27.8" height="27.8" rx="13.9" fill="#FEF7C3"/>
<g clip-path="url(#clip0_602_102470)">
<path d="M10.8971 14.1208L15.6259 17.431C16.0089 17.699 16.2003 17.8331 16.4086 17.885C16.5926 17.9308 16.785 17.9308 16.9689 17.885C17.1772 17.8331 17.3687 17.699 17.7516 17.431L22.4804 14.1208M13.6771 21.65H19.7004C20.6735 21.65 21.1601 21.65 21.5317 21.4606C21.8587 21.294 22.1245 21.0282 22.2911 20.7013C22.4804 20.3296 22.4804 19.8431 22.4804 18.87V15.1633C22.4804 14.1902 22.4804 13.7037 22.2911 13.332C22.1245 13.0051 21.8587 12.7393 21.5317 12.5727C21.1601 12.3833 20.6735 12.3833 19.7004 12.3833H13.6771C12.704 12.3833 12.2175 12.3833 11.8458 12.5727C11.5189 12.7393 11.2531 13.0051 11.0865 13.332C10.8971 13.7037 10.8971 14.1902 10.8971 15.1633V18.87C10.8971 19.8431 10.8971 20.3296 11.0865 20.7013C11.2531 21.0282 11.5189 21.294 11.8458 21.4606C12.2175 21.65 12.704 21.65 13.6771 21.65Z" stroke="#FDB022" stroke-width="1.15833" stroke-linecap="round" stroke-linejoin="round"/>
</g>
<rect x="2.78882" y="3.11664" width="27.8" height="27.8" rx="13.9" stroke="#FEFBE8" stroke-width="4.63333"/>
<defs>
<clipPath id="clip0_602_102470">
<rect width="13.9" height="13.9" fill="white" transform="translate(9.73877 10.0667)"/>
</clipPath>
</defs>
</svg>
