<svg width="15" height="15" viewBox="0 0 15 15" fill="none" xmlns="http://www.w3.org/2000/svg">
<g clip-path="url(#clip0_602_102533)">
<path d="M14.0834 7.68486C14.0834 3.84648 10.9717 0.734863 7.13335 0.734863C3.29497 0.734863 0.18335 3.84648 0.18335 7.68486C0.18335 11.1538 2.72485 14.029 6.04741 14.5504V9.69385H4.28276V7.68486H6.04741V6.15369C6.04741 4.41185 7.08503 3.44971 8.67253 3.44971C9.43269 3.44971 10.2283 3.58545 10.2283 3.58545V5.2958H9.35192C8.4886 5.2958 8.21929 5.83158 8.21929 6.38174V7.68486H10.1468L9.83869 9.69385H8.21929V14.5504C11.5418 14.029 14.0834 11.1538 14.0834 7.68486Z" fill="#FEFDF0"/>
</g>
<defs>
<clipPath id="clip0_602_102533">
<rect width="13.9" height="13.9" fill="white" transform="translate(0.18335 0.734863)"/>
</clipPath>
</defs>
</svg>
