<svg width="14" height="15" viewBox="0 0 14 15" fill="none" xmlns="http://www.w3.org/2000/svg">
<g clip-path="url(#clip0_602_102535)">
<path d="M12.9211 0.734863H1.07626C0.508857 0.734863 0.0500488 1.18281 0.0500488 1.73664V13.6304C0.0500488 14.1842 0.508857 14.6349 1.07626 14.6349H12.9211C13.4885 14.6349 13.95 14.1842 13.95 13.6331V1.73664C13.95 1.18281 13.4885 0.734863 12.9211 0.734863ZM4.1739 12.5797H2.11062V5.94465H4.1739V12.5797ZM3.14226 5.04061C2.47983 5.04061 1.94501 4.50578 1.94501 3.84607C1.94501 3.18637 2.47983 2.65154 3.14226 2.65154C3.80196 2.65154 4.33679 3.18637 4.33679 3.84607C4.33679 4.50307 3.80196 5.04061 3.14226 5.04061ZM11.8949 12.5797H9.83435V9.35449C9.83435 8.58619 9.82077 7.59527 8.76198 7.59527C7.68962 7.59527 7.52673 8.43416 7.52673 9.3002V12.5797H5.46888V5.94465H7.44528V6.85141H7.47243C7.74663 6.33016 8.41991 5.77904 9.42169 5.77904C11.5094 5.77904 11.8949 7.15275 11.8949 8.93912V12.5797V12.5797Z" fill="#FEFDF0"/>
</g>
<defs>
<clipPath id="clip0_602_102535">
<rect width="13.9" height="13.9" fill="white" transform="translate(0.0500488 0.734863)"/>
</clipPath>
</defs>
</svg>
