<svg width="336" height="56" viewBox="0 0 336 56" fill="none" xmlns="http://www.w3.org/2000/svg">
<rect x="144" y="4" width="48" height="48" rx="24" fill="#FEF7C3"/>
<path d="M158 30L178 30M164 37H172M162.8 34H173.2C174.88 34 175.72 34 176.362 33.673C176.926 33.3854 177.385 32.9265 177.673 32.362C178 31.7202 178 30.8802 178 29.2V23.8C178 22.1198 178 21.2798 177.673 20.638C177.385 20.0735 176.926 19.6146 176.362 19.327C175.72 19 174.88 19 173.2 19H162.8C161.12 19 160.28 19 159.638 19.327C159.074 19.6146 158.615 20.0735 158.327 20.638C158 21.2798 158 22.1198 158 23.8V29.2C158 30.8802 158 31.7202 158.327 32.362C158.615 32.9265 159.074 33.3854 159.638 33.673C160.28 34 161.12 34 162.8 34Z" stroke="#CA8504" stroke-width="2" stroke-linecap="round" stroke-linejoin="round"/>
<rect x="144" y="4" width="48" height="48" rx="24" stroke="#FEFBE8" stroke-width="8"/>
</svg>
