<svg width="33" height="34" viewBox="0 0 33 34" fill="none" xmlns="http://www.w3.org/2000/svg">
<rect x="2.41113" y="3.11664" width="27.8" height="27.8" rx="13.9" fill="#FEF7C3"/>
<g clip-path="url(#clip0_602_102488)">
<path d="M14.2147 15.1941C14.6178 16.0337 15.1673 16.8206 15.8632 17.5165C16.5592 18.2124 17.346 18.7619 18.1856 19.165C18.2578 19.1997 18.2939 19.217 18.3396 19.2303C18.502 19.2777 18.7014 19.2437 18.8389 19.1452C18.8776 19.1175 18.9107 19.0844 18.9769 19.0182C19.1794 18.8157 19.2806 18.7145 19.3824 18.6483C19.7663 18.3987 20.2613 18.3987 20.6452 18.6483C20.747 18.7145 20.8483 18.8157 21.0507 19.0182L21.1636 19.131C21.4714 19.4388 21.6253 19.5927 21.7089 19.758C21.8751 20.0867 21.8751 20.4749 21.7089 20.8036C21.6253 20.9689 21.4714 21.1228 21.1636 21.4306L21.0723 21.5219C20.7656 21.8287 20.6122 21.982 20.4037 22.0992C20.1723 22.2291 19.8129 22.3226 19.5475 22.3218C19.3084 22.3211 19.1449 22.2747 18.818 22.1819C17.0612 21.6833 15.4034 20.7424 14.0203 19.3594C12.6373 17.9763 11.6965 16.3186 11.1978 14.5617C11.105 14.2348 11.0586 14.0714 11.0579 13.8322C11.0571 13.5668 11.1506 13.2074 11.2806 12.9761C11.3977 12.7675 11.5511 12.6142 11.8578 12.3074L11.9491 12.2161C12.2569 11.9083 12.4108 11.7544 12.5761 11.6708C12.9048 11.5046 13.293 11.5046 13.6217 11.6708C13.787 11.7544 13.9409 11.9083 14.2487 12.2161L14.3615 12.329C14.564 12.5315 14.6653 12.6327 14.7315 12.7345C14.9811 13.1184 14.9811 13.6134 14.7315 13.9973C14.6653 14.0991 14.564 14.2004 14.3615 14.4028C14.2953 14.469 14.2622 14.5021 14.2345 14.5408C14.1361 14.6783 14.1021 14.8777 14.1494 15.0401C14.1627 15.0858 14.18 15.1219 14.2147 15.1941Z" stroke="#FDB022" stroke-width="1.15833" stroke-linecap="round" stroke-linejoin="round"/>
</g>
<rect x="2.41113" y="3.11664" width="27.8" height="27.8" rx="13.9" stroke="#FEFBE8" stroke-width="4.63333"/>
<defs>
<clipPath id="clip0_602_102488">
<rect width="13.9" height="13.9" fill="white" transform="translate(9.36115 10.0667)"/>
</clipPath>
</defs>
</svg>
