<svg width="52" height="52" viewBox="0 0 52 52" fill="none" xmlns="http://www.w3.org/2000/svg">
<g filter="url(#filter0_d_602_102036)">
<rect x="2" y="1" width="48" height="48" rx="10" fill="white"/>
<path d="M23.213 27.5C23.5252 28.0945 24.1486 28.5 24.8667 28.5H27C28.1046 28.5 29 27.6046 29 26.5C29 25.3954 28.1046 24.5 27 24.5H25C23.8954 24.5 23 23.6046 23 22.5C23 21.3954 23.8954 20.5 25 20.5H27.1333C27.8514 20.5 28.4748 20.9055 28.787 21.5M26 19V20.5M26 28.5V30M34 25C34 29.9084 28.646 33.4784 26.698 34.6149C26.4766 34.744 26.3659 34.8086 26.2097 34.8421C26.0884 34.8681 25.9116 34.8681 25.7903 34.8421C25.6341 34.8086 25.5234 34.744 25.302 34.6149C23.354 33.4784 18 29.9084 18 25V20.2176C18 19.4181 18 19.0183 18.1308 18.6747C18.2463 18.3711 18.434 18.1003 18.6777 17.8855C18.9535 17.6424 19.3278 17.5021 20.0764 17.2213L25.4382 15.2107C25.6461 15.1327 25.75 15.0937 25.857 15.0783C25.9518 15.0646 26.0482 15.0646 26.143 15.0783C26.25 15.0937 26.3539 15.1327 26.5618 15.2107L31.9236 17.2213C32.6722 17.5021 33.0465 17.6424 33.3223 17.8855C33.566 18.1003 33.7537 18.3711 33.8692 18.6747C34 19.0183 34 19.4181 34 20.2176V25Z" stroke="#CA8504" stroke-width="2" stroke-linecap="round" stroke-linejoin="round"/>
<rect x="2.5" y="1.5" width="47" height="47" rx="9.5" stroke="#EAECF0"/>
</g>
<defs>
<filter id="filter0_d_602_102036" x="0" y="0" width="52" height="52" filterUnits="userSpaceOnUse" color-interpolation-filters="sRGB">
<feFlood flood-opacity="0" result="BackgroundImageFix"/>
<feColorMatrix in="SourceAlpha" type="matrix" values="0 0 0 0 0 0 0 0 0 0 0 0 0 0 0 0 0 0 127 0" result="hardAlpha"/>
<feOffset dy="1"/>
<feGaussianBlur stdDeviation="1"/>
<feColorMatrix type="matrix" values="0 0 0 0 0.0627451 0 0 0 0 0.0941176 0 0 0 0 0.156863 0 0 0 0.05 0"/>
<feBlend mode="normal" in2="BackgroundImageFix" result="effect1_dropShadow_602_102036"/>
<feBlend mode="normal" in="SourceGraphic" in2="effect1_dropShadow_602_102036" result="shape"/>
</filter>
</defs>
</svg>
