<svg width="336" height="56" viewBox="0 0 336 56" fill="none" xmlns="http://www.w3.org/2000/svg">
<rect x="144" y="4" width="48" height="48" rx="24" fill="#FEF7C3"/>
<path d="M165 27.5L167 29.5L171.5 25M176 28C176 32.9084 170.646 36.4784 168.698 37.6149C168.477 37.744 168.366 37.8086 168.21 37.8421C168.088 37.8681 167.912 37.8681 167.79 37.8421C167.634 37.8086 167.523 37.744 167.302 37.6149C165.354 36.4784 160 32.9084 160 28V23.2176C160 22.4181 160 22.0183 160.131 21.6747C160.246 21.3711 160.434 21.1003 160.678 20.8855C160.953 20.6424 161.328 20.5021 162.076 20.2213L167.438 18.2107C167.646 18.1327 167.75 18.0937 167.857 18.0783C167.952 18.0646 168.048 18.0646 168.143 18.0783C168.25 18.0937 168.354 18.1327 168.562 18.2107L173.924 20.2213C174.672 20.5021 175.047 20.6424 175.322 20.8855C175.566 21.1003 175.754 21.3711 175.869 21.6747C176 22.0183 176 22.4181 176 23.2176V28Z" stroke="#CA8504" stroke-width="2" stroke-linecap="round" stroke-linejoin="round"/>
<rect x="144" y="4" width="48" height="48" rx="24" stroke="#FEFBE8" stroke-width="8"/>
</svg>
