<svg width="15" height="15" viewBox="0 0 15 15" fill="none" xmlns="http://www.w3.org/2000/svg">
<g clip-path="url(#clip0_602_102534)">
<path d="M4.9895 13.3318C10.2335 13.3318 13.1025 8.98611 13.1025 5.21872C13.1025 5.09656 13.0998 4.97167 13.0944 4.84951C13.6525 4.44589 14.1342 3.94594 14.5167 3.37317C13.9969 3.60444 13.445 3.75547 12.8799 3.82112C13.4749 3.46446 13.9205 2.90415 14.1339 2.24407C13.5741 2.57581 12.962 2.80983 12.3236 2.93608C11.8936 2.47909 11.3249 2.17651 10.7056 2.07512C10.0863 1.97373 9.45084 2.07917 8.89747 2.37515C8.34411 2.67113 7.90366 3.14116 7.64422 3.71257C7.38478 4.28398 7.3208 4.92494 7.46218 5.53636C6.32873 5.47948 5.21988 5.18504 4.20752 4.67213C3.19516 4.15922 2.3019 3.43928 1.58563 2.55899C1.22158 3.18665 1.11018 3.92937 1.27407 4.63622C1.43796 5.34306 1.86484 5.96098 2.46795 6.36439C2.01517 6.35001 1.57231 6.22811 1.17596 6.00874V6.04404C1.17555 6.70272 1.40326 7.34121 1.82039 7.85098C2.23751 8.36076 2.8183 8.71035 3.46403 8.84033C3.0446 8.95508 2.60439 8.9718 2.17746 8.88919C2.35968 9.45566 2.71419 9.95111 3.19154 10.3064C3.66889 10.6617 4.24525 10.8591 4.84018 10.871C3.83016 11.6644 2.58249 12.0947 1.29813 12.0927C1.07035 12.0924 0.842805 12.0784 0.616699 12.0509C1.92148 12.888 3.43929 13.3326 4.9895 13.3318Z" fill="#FEFDF0"/>
</g>
<defs>
<clipPath id="clip0_602_102534">
<rect width="13.9" height="13.9" fill="white" transform="translate(0.616699 0.734863)"/>
</clipPath>
</defs>
</svg>
