<svg width="62" height="62" viewBox="0 0 62 62" fill="none" xmlns="http://www.w3.org/2000/svg">
<rect x="15.3831" y="1.21845" width="47" height="47" rx="9.5" transform="rotate(15 15.3831 1.21845)" fill="#EAAA08"/>
<rect x="15.3831" y="1.21845" width="47" height="47" rx="9.5" transform="rotate(15 15.3831 1.21845)" stroke="#CA8504"/>
<g filter="url(#filter0_b_789_102453)">
<rect y="14" width="48" height="48" rx="10" fill="white" fill-opacity="0.6"/>
<path d="M25.1218 40.8446L30.0004 47.9999M22.879 40.8446L18.0004 47.9999M26.0004 39.2C26.0004 40.3045 25.105 41.2 24.0004 41.2C22.8958 41.2 22.0004 40.3045 22.0004 39.2C22.0004 38.0954 22.8958 37.2 24.0004 37.2C25.105 37.2 26.0004 38.0954 26.0004 39.2ZM29.1489 30.5322L17.3646 33.6898C17.0941 33.7623 16.9589 33.7986 16.8697 33.8789C16.7912 33.9495 16.7371 34.0432 16.7152 34.1465C16.6902 34.2639 16.7265 34.3992 16.7989 34.6696L17.6789 37.9538C17.7514 38.2243 17.7876 38.3595 17.868 38.4487C17.9386 38.5272 18.0323 38.5813 18.1356 38.6032C18.253 38.6282 18.3882 38.5919 18.6587 38.5195L30.443 35.3619L29.1489 30.5322ZM33.7928 35.4996C32.7109 35.7895 32.1699 35.9344 31.7002 35.8346C31.2871 35.7468 30.9124 35.5304 30.6298 35.2166C30.3085 34.8597 30.1635 34.3188 29.8736 33.2368L29.7183 32.6573C29.4284 31.5753 29.2835 31.0344 29.3833 30.5647C29.4711 30.1516 29.6875 29.7769 30.0013 29.4942C30.3582 29.173 30.8991 29.028 31.9811 28.7381C32.2515 28.6656 32.3868 28.6294 32.5042 28.6543C32.6075 28.6763 32.7012 28.7304 32.7718 28.8089C32.8521 28.8981 32.8884 29.0333 32.9609 29.3038L34.3585 34.5198C34.431 34.7903 34.4672 34.9255 34.4422 35.0429C34.4203 35.1462 34.3662 35.2399 34.2877 35.3105C34.1985 35.3909 34.0633 35.4271 33.7928 35.4996ZM15.5021 38.33L16.8544 37.9677C17.1249 37.8952 17.2601 37.8589 17.3493 37.7786C17.4278 37.708 17.4819 37.6143 17.5039 37.511C17.5288 37.3936 17.4926 37.2583 17.4201 36.9879L17.0578 35.6356C16.9853 35.3651 16.949 35.2298 16.8687 35.1406C16.7981 35.0622 16.7044 35.0081 16.6011 34.9861C16.4837 34.9612 16.3484 34.9974 16.078 35.0699L14.7257 35.4322C14.4552 35.5047 14.3199 35.5409 14.2307 35.6213C14.1523 35.6919 14.0982 35.7856 14.0762 35.8889C14.0513 36.0063 14.0875 36.1415 14.16 36.412L14.5223 37.7643C14.5948 38.0348 14.631 38.17 14.7114 38.2592C14.782 38.3377 14.8757 38.3918 14.979 38.4138C15.0964 38.4387 15.2316 38.4025 15.5021 38.33Z" stroke="#2A2D2D" stroke-width="2" stroke-linecap="round" stroke-linejoin="round"/>
<rect x="0.5" y="14.5" width="47" height="47" rx="9.5" stroke="white" stroke-opacity="0.6"/>
</g>
<defs>
<filter id="filter0_b_789_102453" x="-16" y="-2" width="80" height="80" filterUnits="userSpaceOnUse" color-interpolation-filters="sRGB">
<feFlood flood-opacity="0" result="BackgroundImageFix"/>
<feGaussianBlur in="BackgroundImageFix" stdDeviation="8"/>
<feComposite in2="SourceAlpha" operator="in" result="effect1_backgroundBlur_789_102453"/>
<feBlend mode="normal" in="SourceGraphic" in2="effect1_backgroundBlur_789_102453" result="shape"/>
</filter>
</defs>
</svg>
