<svg width="15" height="15" viewBox="0 0 15 15" fill="none" xmlns="http://www.w3.org/2000/svg">
<g clip-path="url(#clip0_602_102536)">
<path d="M14.2449 4.9049C14.2449 4.9049 14.1092 3.94657 13.6911 3.52576C13.1617 2.97194 12.5699 2.96922 12.2984 2.93664C10.3546 2.79547 7.43611 2.79547 7.43611 2.79547H7.43068C7.43068 2.79547 4.51223 2.79547 2.5684 2.93664C2.29691 2.96922 1.70508 2.97194 1.17568 3.52576C0.757598 3.94657 0.62457 4.9049 0.62457 4.9049C0.62457 4.9049 0.483398 6.03157 0.483398 7.15551V8.20887C0.483398 9.33282 0.621855 10.4595 0.621855 10.4595C0.621855 10.4595 0.757598 11.4178 1.17297 11.8386C1.70236 12.3924 2.39736 12.3734 2.70686 12.4332C3.81994 12.539 7.4334 12.5716 7.4334 12.5716C7.4334 12.5716 10.3546 12.5662 12.2984 12.4277C12.5699 12.3952 13.1617 12.3924 13.6911 11.8386C14.1092 11.4178 14.2449 10.4595 14.2449 10.4595C14.2449 10.4595 14.3834 9.33553 14.3834 8.20887V7.15551C14.3834 6.03157 14.2449 4.9049 14.2449 4.9049ZM5.99725 9.48756V5.5809L9.75188 7.54102L5.99725 9.48756Z" fill="#FEFDF0"/>
</g>
<defs>
<clipPath id="clip0_602_102536">
<rect width="13.9" height="13.9" fill="white" transform="translate(0.483398 0.734863)"/>
</clipPath>
</defs>
</svg>
