<svg width="256" height="256" viewBox="0 0 256 256" fill="none" xmlns="http://www.w3.org/2000/svg">
<path d="M256 128C256 198.692 198.692 256 128 256C57.3076 256 0 198.692 0 128C0 121.409 0.498112 114.935 1.45874 108.613C10.802 47.1201 63.8982 0 128 0C198.692 0 256 57.3076 256 128Z" fill="white"/>
<path d="M237.649 128C237.649 188.557 188.558 237.648 128 237.648C67.4429 237.648 18.3514 188.557 18.3514 128C18.3514 122.354 18.7781 116.808 19.601 111.392C27.6047 58.7153 73.0886 18.3508 128 18.3508C188.558 18.3508 237.649 67.4422 237.649 128Z" fill="#790202"/>
<path d="M253.89 128C253.89 197.527 197.527 253.89 128 253.89C58.4731 253.89 2.11039 197.527 2.11039 128C2.11039 121.516 2.60045 115.147 3.54519 108.93C12.7341 48.4528 64.957 2.11039 128 2.11039C197.527 2.11039 253.89 58.4731 253.89 128Z" stroke="#790202" stroke-width="4.22079"/>
<path d="M102.136 203.288C89.597 198.509 78.4301 190.71 69.6247 180.584C60.8192 170.458 54.647 158.316 51.6547 145.235C48.6624 132.154 48.9425 118.536 52.47 105.589C55.9976 92.6419 62.6637 80.7644 71.878 71.0088C81.0924 61.2533 92.5704 53.9207 105.295 49.6606C118.02 45.4006 131.6 44.3445 144.83 46.586C158.061 48.8275 170.535 54.2974 181.147 62.5111C191.758 70.7248 200.181 81.4289 205.667 93.6751L203.053 94.8466C197.758 83.0304 189.632 72.7022 179.393 64.7769C169.154 56.8516 157.118 51.5738 144.352 49.411C131.586 47.2482 118.483 48.2672 106.205 52.3776C93.9268 56.4881 82.8518 63.5632 73.961 72.9763C65.0703 82.3893 58.6382 93.8497 55.2345 106.342C51.8308 118.835 51.5606 131.974 54.4478 144.596C57.335 157.218 63.2905 168.933 71.7868 178.704C80.283 188.475 91.0578 195.999 103.157 200.611L102.136 203.288Z" fill="white"/>
<path d="M163.49 57.5276C160.925 61.4291 150.448 74.1601 149.842 74.1601C149.735 74.1601 150.02 73.2874 150.519 72.2094C150.983 71.1827 151.517 69.4886 151.66 68.5133L151.873 66.7166L149.985 69.1806C147.455 72.4661 144.675 74.6221 136.978 79.3449C128.996 84.2218 126.68 85.8645 123.009 89.3552C117.771 94.3347 114.172 101.419 112.675 109.581C112.034 113.175 111.82 123.801 112.283 129.088L112.533 131.912L111.82 129.602C110.751 126.214 110.074 122.158 109.825 117.897C109.682 115.536 109.468 114.253 109.219 114.355C109.005 114.458 108.007 116.357 106.974 118.565C100.524 132.528 98.4571 147.107 100.809 162.456C101.165 164.869 101.415 166.871 101.379 166.974C101.308 167.025 100.417 164.355 99.3836 161.07C98.3502 157.733 97.4237 154.91 97.3524 154.756C97.0673 154.294 97.6731 160.146 98.3502 164.407C99.0629 168.822 100.845 175.546 102.377 179.499L103.268 181.809L102.234 187.661C100.417 197.98 100.453 199.263 102.519 200.187C103.303 200.495 103.339 200.444 103.125 198.031C102.947 196.337 103.125 193.976 103.66 190.434C104.087 187.61 104.658 182.99 104.907 180.167C105.727 171.08 108.221 159.068 112.925 141.665C117.201 125.752 122.261 111.789 127.428 101.778C131.811 93.3594 134.306 89.8686 138.76 86.1725L140.506 84.7351L138.083 88.2772C126.181 105.731 117.486 129.088 110.787 161.429C109.076 169.746 107.223 179.807 107.223 180.885C107.223 182.015 109.29 181.399 112.07 179.448C115.776 176.83 121.513 170.875 126.644 164.304L128.07 162.456L126.644 163.329C125.183 164.15 121.94 165.536 121.335 165.536C121.156 165.536 121.976 164.663 123.188 163.637C124.399 162.559 126.323 160.505 127.428 159.119C130.029 155.834 131.704 154.345 134.448 152.908L136.622 151.778L135.196 151.214C132.524 150.136 130.635 150.598 126.395 153.267C124.078 154.705 116.56 157.836 115.419 157.836C115.134 157.836 116.31 157.117 118.056 156.296C124.72 153.01 129.103 149.366 130.813 145.67C131.312 144.592 134.02 140.331 136.871 136.173C140.007 131.604 141.753 128.678 141.29 128.832C136.657 130.32 122.938 132.99 122.119 132.528C121.869 132.374 122.047 132.22 122.546 132.22C125.29 132.066 135.695 128.524 139.971 126.214L142.573 124.828L146.029 118.103C147.954 114.407 150.199 109.992 151.018 108.298L152.515 105.218L148.666 105.064C145.21 104.91 141.468 105.474 139.758 106.347C139.33 106.552 139.223 106.501 139.473 106.142C140.292 104.961 148.595 101.778 152.479 101.111L154.439 100.803L156.435 96.3368C160.746 86.6858 163.277 77.4455 164.417 67.2299C165.023 61.6344 165.308 55.6796 164.987 55.6796C164.844 55.6796 164.167 56.5009 163.49 57.5276Z" fill="white"/>
<path fill-rule="evenodd" clip-rule="evenodd" d="M232.02 162.775C235.671 151.848 237.649 140.155 237.649 127.999C237.649 120.36 236.868 112.902 235.38 105.703H20.62C20.2318 107.582 19.8917 109.479 19.601 111.392C18.7781 116.808 18.3514 122.354 18.3514 127.999C18.3514 140.155 20.3293 151.848 23.9808 162.775H232.02Z" fill="white"/>
<path d="M84.1574 123.831C82.8698 123.831 81.8298 123.484 81.0374 122.791C80.2697 122.073 79.8859 121.181 79.8859 120.116C79.8859 119.027 80.2697 118.123 81.0374 117.405C81.8298 116.687 82.8698 116.328 84.1574 116.328C85.4203 116.328 86.4355 116.687 87.2031 117.405C87.9955 118.123 88.3917 119.027 88.3917 120.116C88.3917 121.181 87.9955 122.073 87.2031 122.791C86.4355 123.484 85.4203 123.831 84.1574 123.831ZM87.7603 125.762V146.599H80.4802V125.762H87.7603Z" fill="#767676"/>
<path d="M108.025 135.056C108.292 135.751 110.964 135.858 112.727 135.858C115.025 135.858 116.468 135.965 117.002 136.072C117.483 136.179 117.697 136.125 117.857 135.644C118.445 132.759 119.728 125.063 119.835 124.529C119.995 123.994 119.835 123.887 119.3 124.368C116.575 126.613 110.75 132.01 108.025 135.056ZM96.5349 151.356L95.8402 148.203C95.8936 147.027 96.8556 146.012 98.245 144.462C106.101 135.591 114.277 127.468 120.102 122.765C120.583 122.338 123.736 121.91 124.644 121.215C125.125 120.841 125.072 121.322 124.912 121.59C124.217 122.658 123.789 124.262 123.629 125.17C123.415 126.079 120.636 140.08 120.636 142.485C120.636 144.889 121.919 144.996 122.293 144.996C122.667 144.996 123.148 144.836 123.736 144.729C124.324 144.622 124.377 144.943 123.789 145.05C123.201 145.157 118.713 146.599 117.27 146.867C116.682 146.867 116.415 146.599 116.201 145.798C116.361 144.996 117.216 139.439 117.27 138.637C117.27 137.835 116.628 136.927 115.079 136.606C114.598 136.499 113.048 136.339 111.071 136.339C108.986 136.339 107.864 136.339 106.902 136.232C102.146 140.881 99.1001 145.317 97.6572 148.096C97.1762 149.004 97.0159 150.02 96.8556 151.195C96.8021 151.409 96.6952 151.463 96.5349 151.356ZM161.172 110.581C161.172 110.795 160.21 112.131 160.05 112.879C159.997 113.093 159.997 113.36 159.836 113.36C159.462 113.36 158.714 112.558 157.057 112.558C155.882 112.558 154.279 113.093 153.317 113.787C151.713 114.91 150.11 116.833 148.186 119.612C138.621 133.346 134.452 144.195 134.452 147.348C134.452 148.203 134.559 148.897 135.788 148.897C138.781 148.897 142.255 143.927 144.178 140.026C144.339 139.759 144.82 139.813 144.499 140.294C141.987 145.477 138.247 149.806 134.773 149.806C132.315 149.806 131.62 148.684 131.62 147.027C131.62 145.317 132.315 143.5 133.704 140.668C129.963 145.531 127.291 147.615 125.742 147.615C124.619 147.615 124.192 147.08 124.192 146.225C124.192 145.584 124.78 144.034 125.421 143.019C128.039 138.744 131.994 135.27 136.59 134.789C139.957 128.644 142.789 124.208 146.102 120.093C149.095 116.406 153.53 112.451 156.683 110.955C157.806 110.421 158.874 110.1 159.836 110.1C160.691 110.1 161.172 110.26 161.172 110.581ZM136.109 135.751C133.223 135.751 132.315 136.606 131.192 138.049C128.948 140.828 127.933 143.233 127.933 144.355C127.933 144.676 128.146 145.05 128.574 145.05C129.589 145.05 133.544 141.149 136.109 135.751ZM164.532 141.79C162.502 144.088 158.814 147.989 155.661 147.989C154.272 147.989 153.524 147.561 153.524 146.332C153.524 144.729 157.639 138.316 157.639 136.873C157.639 136.66 157.585 136.553 157.371 136.553C156.249 136.98 153.256 139.545 152.348 140.988C151.92 141.683 149.676 146.92 148.928 146.92C148.019 146.92 147.218 146.225 147.218 145.851C147.218 145.638 147.485 145.103 147.966 144.302C150.104 140.775 151.012 138.209 151.012 137.889C151.012 137.622 150.905 137.568 150.798 137.568C149.89 137.568 146.47 141.255 145.08 143.821C144.172 145.477 143.53 146.867 142.996 146.867C141.981 146.867 141.393 145.584 141.393 145.103C141.393 144.889 141.446 144.622 141.607 144.408C143.53 141.362 145.401 138.049 147.218 134.95C147.378 134.629 147.592 134.469 147.806 134.469C148.5 134.469 149.248 135.537 149.248 135.858C148.554 137.247 147.218 139.492 146.309 141.202C149.142 137.942 152.348 135.484 153.577 135.484C154.005 135.484 154.165 135.805 154.165 136.286C154.165 136.873 153.524 138.263 152.989 139.385C152.829 139.652 153.043 139.545 153.15 139.439C155.127 137.408 158.12 135.27 160.204 134.415C160.685 134.415 161.219 134.629 161.219 135.163C161.219 135.377 161.166 135.591 161.005 135.858C160.15 137.408 156.623 143.981 156.623 146.012C156.623 146.493 156.784 146.867 157.425 146.867C159.456 146.867 162.555 143.5 164.212 141.523C164.479 141.095 164.96 141.149 164.532 141.79ZM175.083 127.147C175.083 128.43 173.747 129.98 172.358 129.98C171.717 129.98 171.449 129.659 171.449 129.071C171.449 127.735 172.625 126.132 174.068 126.132C174.656 126.132 175.083 126.559 175.083 127.147ZM176.954 139.278C175.244 141.469 172.679 143.767 170.808 144.996C169.419 145.905 166.854 146.974 165.411 146.974C163.968 146.974 163.38 146.599 163.38 145.05C163.38 143.179 166.426 137.996 167.548 136.392C167.922 135.858 170.594 134.843 170.862 134.843C171.075 134.843 171.129 134.896 171.129 135.003C171.129 135.163 170.968 135.484 170.862 135.644C168.938 138.53 166.586 142.966 166.586 144.515C166.586 145.157 167.014 145.584 167.762 145.584C170.594 145.584 175.137 141.202 176.74 139.011C177.114 138.637 177.114 138.904 176.954 139.278ZM192.466 139.492C189.9 143.072 185.305 147.294 181.35 147.294C180.495 147.294 179.373 147.027 179.373 146.065C179.373 144.034 182.419 140.133 183.595 137.194C183.755 136.82 183.595 136.499 183.274 136.713C181.724 137.728 179.106 139.919 177.77 141.469C176.647 143.233 175.739 145.05 174.51 146.92C174.403 147.08 174.243 147.401 173.868 147.401C173.12 147.401 172.479 145.958 172.479 145.317C172.479 144.676 173.815 143.019 174.884 141.683C176.006 139.385 177.502 136.339 178.357 134.362C178.464 134.201 178.892 133.988 179.052 133.988C180.174 133.988 180.976 134.789 180.976 135.537C180.976 135.805 179.426 138.049 178.304 140.24C181.083 137.461 186.16 133.667 187.228 133.667C187.603 133.667 188.19 134.255 188.19 134.522C188.19 134.736 188.083 134.896 187.923 135.163C186.32 137.461 182.633 143.447 182.633 145.263C182.633 145.905 182.846 146.172 183.434 146.172C185.786 146.172 190.221 142.324 192.198 139.171C192.359 138.958 192.786 139.064 192.466 139.492Z" fill="#767676"/>
</svg>
