<svg width="600" height="287" viewBox="0 0 600 287" fill="none" xmlns="http://www.w3.org/2000/svg">
<g clip-path="url(#clip0_12_1060)">
<path d="M468.686 43.1187H321.559V40.0858H254.846V43.1187H107.112C104.473 43.1187 101.941 44.1676 100.074 46.0345C98.2079 47.9015 97.1593 50.4336 97.1593 53.0739V254.58C97.1593 257.22 98.2079 259.753 100.074 261.62C101.941 263.486 104.473 264.535 107.112 264.535H468.686C471.326 264.535 473.857 263.486 475.724 261.62C477.59 259.753 478.639 257.22 478.639 254.58V53.0727C478.639 50.4327 477.59 47.9008 475.723 46.0341C473.857 44.1674 471.325 43.1187 468.686 43.1187Z" fill="#3F3D56"/>
<path d="M465.295 60.7104H110.503V260.895H465.295V60.7104Z" fill="#E6E6E6"/>
<path d="M450.37 71.2969H125.549V244.331H450.37V71.2969Z" fill="white"/>
<path d="M287.596 55.2516C289.605 55.2516 291.235 53.622 291.235 51.6118C291.235 49.6015 289.605 47.9719 287.596 47.9719C285.586 47.9719 283.957 49.6015 283.957 51.6118C283.957 53.622 285.586 55.2516 287.596 55.2516Z" fill="#173468"/>
<path d="M488.6 257.255H453.974V254.76C453.974 254.628 453.922 254.502 453.829 254.41C453.737 254.317 453.611 254.265 453.48 254.265H441.608C441.477 254.265 441.351 254.317 441.258 254.41C441.165 254.502 441.113 254.628 441.113 254.76V257.255H433.694V254.76C433.694 254.628 433.642 254.502 433.549 254.41C433.456 254.317 433.33 254.265 433.199 254.265H421.327C421.196 254.265 421.07 254.317 420.977 254.41C420.885 254.502 420.832 254.628 420.832 254.76V257.255H413.413V254.76C413.413 254.628 413.361 254.502 413.268 254.41C413.175 254.317 413.049 254.265 412.918 254.265H401.047C400.915 254.265 400.79 254.317 400.697 254.41C400.604 254.502 400.552 254.628 400.552 254.76V257.255H393.132V254.76C393.132 254.628 393.08 254.502 392.987 254.41C392.895 254.317 392.769 254.265 392.638 254.265H380.766C380.635 254.265 380.509 254.317 380.417 254.41C380.324 254.502 380.272 254.628 380.272 254.76V257.255H372.852V254.76C372.852 254.628 372.8 254.502 372.707 254.41C372.614 254.317 372.488 254.265 372.357 254.265H360.486C360.355 254.265 360.229 254.317 360.136 254.41C360.043 254.502 359.991 254.628 359.991 254.76V257.255H352.571V254.76C352.571 254.628 352.519 254.502 352.426 254.41C352.333 254.317 352.207 254.265 352.076 254.265H340.207C340.076 254.265 339.95 254.317 339.857 254.41C339.765 254.502 339.713 254.628 339.713 254.76V257.255H332.29V254.76C332.29 254.628 332.238 254.502 332.145 254.41C332.053 254.317 331.927 254.265 331.795 254.265H238.802C238.67 254.265 238.545 254.317 238.452 254.41C238.359 254.502 238.307 254.628 238.307 254.76V257.255H230.887V254.76C230.887 254.628 230.835 254.502 230.743 254.41C230.65 254.317 230.524 254.265 230.393 254.265H218.521C218.39 254.265 218.264 254.317 218.171 254.41C218.078 254.502 218.026 254.628 218.026 254.76V257.255H210.607V254.76C210.607 254.628 210.555 254.502 210.462 254.41C210.369 254.317 210.243 254.265 210.112 254.265H198.241C198.11 254.265 197.984 254.317 197.891 254.41C197.798 254.502 197.746 254.628 197.746 254.76V257.255H190.326V254.76C190.326 254.628 190.274 254.502 190.181 254.41C190.088 254.317 189.963 254.265 189.831 254.265H177.96C177.829 254.265 177.703 254.317 177.61 254.41C177.518 254.502 177.465 254.628 177.465 254.76V257.255H170.047V254.76C170.047 254.628 169.995 254.502 169.902 254.41C169.809 254.317 169.684 254.265 169.552 254.265H157.68C157.548 254.265 157.422 254.317 157.33 254.41C157.237 254.502 157.185 254.628 157.185 254.76V257.255H149.765V254.76C149.765 254.628 149.713 254.502 149.62 254.41C149.528 254.317 149.402 254.265 149.27 254.265H137.399C137.268 254.265 137.142 254.317 137.049 254.41C136.956 254.502 136.904 254.628 136.904 254.76V257.255H129.485V254.76C129.485 254.628 129.433 254.502 129.34 254.41C129.247 254.317 129.121 254.265 128.99 254.265H117.116C116.985 254.265 116.859 254.317 116.766 254.41C116.673 254.502 116.621 254.628 116.621 254.76V257.255H93.8697C90.7212 257.255 87.7016 258.506 85.4752 260.733C83.2489 262.96 81.9981 265.98 81.9981 269.129V274.498C81.9981 277.648 83.2489 280.668 85.4752 282.895C87.7016 285.122 90.7212 286.373 93.8697 286.373H488.6C491.748 286.373 494.768 285.122 496.994 282.895C499.22 280.668 500.471 277.648 500.471 274.499V269.13C500.471 265.981 499.221 262.961 496.994 260.734C494.768 258.507 491.748 257.256 488.6 257.256V257.255Z" fill="#3F3D56"/>
<path d="M359.779 83.4331H216.141V234.457H359.779V83.4331Z" fill="#E6E6E6"/>
<path d="M600 285.869H0V287H600V285.869Z" fill="#E6E6E6"/>
<path d="M541.729 246.351C549.858 255.076 550.279 267.901 550.279 267.901C550.279 267.901 537.518 266.579 529.388 257.854C521.259 249.128 520.838 236.303 520.838 236.303C520.838 236.303 533.599 237.625 541.729 246.351Z" fill="#173468"/>
<path d="M567.322 259.971C558.598 268.102 545.776 268.522 545.776 268.522C545.776 268.522 547.098 255.759 555.822 247.627C564.545 239.496 577.367 239.076 577.367 239.076C577.367 239.076 576.046 251.839 567.322 259.971Z" fill="#173468"/>
<path d="M565.154 285.868H533.067C532.452 285.868 531.848 285.695 531.327 285.369C530.805 285.042 530.385 284.575 530.116 284.021L523.13 269.658C522.886 269.158 522.774 268.604 522.803 268.048C522.832 267.492 523.003 266.952 523.298 266.48C523.593 266.009 524.004 265.619 524.491 265.35C524.978 265.08 525.525 264.939 526.082 264.94H572.14C572.696 264.939 573.244 265.08 573.731 265.35C574.218 265.619 574.628 266.009 574.924 266.48C575.219 266.952 575.389 267.492 575.418 268.048C575.448 268.604 575.335 269.158 575.091 269.658L568.105 284.022C567.836 284.576 567.417 285.043 566.895 285.369C566.373 285.696 565.77 285.869 565.154 285.869L565.154 285.868Z" fill="#E5E5E5"/>
<path d="M34.4715 246.351C42.6012 255.076 43.0213 267.901 43.0213 267.901C43.0213 267.901 30.2607 266.579 22.131 257.854C14.0013 249.128 13.5812 236.303 13.5812 236.303C13.5812 236.303 26.3418 237.625 34.4715 246.351Z" fill="#E5E5E5"/>
<path d="M52.8068 285.868H20.7206C20.105 285.868 19.5017 285.695 18.9798 285.369C18.4578 285.042 18.0383 284.575 17.7693 284.021L10.7836 269.658C10.5396 269.158 10.427 268.604 10.4563 268.048C10.4856 267.492 10.6559 266.952 10.9511 266.48C11.2463 266.009 11.6568 265.619 12.1438 265.35C12.6308 265.08 13.1784 264.939 13.7349 264.94H59.793C60.3496 264.939 60.8972 265.08 61.3842 265.35C61.8712 265.619 62.2816 266.009 62.5768 266.48C62.872 266.952 63.0423 267.492 63.0716 268.048C63.1009 268.604 62.9883 269.158 62.7444 269.658L55.7587 284.022C55.4896 284.576 55.0701 285.043 54.5482 285.369C54.0263 285.696 53.423 285.869 52.8073 285.869L52.8068 285.868Z" fill="#E5E5E5"/>
<path d="M305.291 126.185C315.834 126.185 324.381 117.637 324.381 107.091C324.381 96.5459 315.834 87.9972 305.291 87.9972C294.748 87.9972 286.201 96.5459 286.201 107.091C286.201 117.637 294.748 126.185 305.291 126.185Z" fill="#A0616A"/>
<path d="M261.368 234.768L273.696 157.142C274.352 153.015 275.878 149.075 278.175 145.584C280.471 142.092 283.484 139.131 287.014 136.895C290.544 134.659 294.509 133.201 298.646 132.617C302.783 132.033 306.997 132.338 311.008 133.51C318.019 135.538 324.023 140.108 327.846 146.327C331.67 152.547 333.038 159.968 331.683 167.142L318.789 236.465L261.368 234.768Z" fill="#173468"/>
<path d="M310.561 248.657C311.515 248.027 312.319 247.196 312.916 246.222C313.514 245.248 313.89 244.154 314.02 243.019C314.149 241.883 314.028 240.733 313.665 239.65C313.302 238.566 312.706 237.575 311.919 236.747L324.662 212.063L310.311 213.595L300.409 236.801C299.111 238.217 298.377 240.06 298.344 241.981C298.312 243.902 298.984 245.768 300.233 247.228C301.483 248.687 303.223 249.638 305.126 249.902C307.029 250.165 308.962 249.722 310.561 248.657L310.561 248.657Z" fill="#A0616A"/>
<path d="M313.291 232.393C312.586 232.294 311.928 231.982 311.405 231.499L306.529 226.992C306.002 226.503 305.638 225.864 305.487 225.161C305.335 224.459 305.403 223.726 305.681 223.063L315.425 199.96L314.043 154.311C314.447 151.349 316.01 148.669 318.389 146.861C320.769 145.053 323.769 144.264 326.729 144.668C329.69 145.072 332.369 146.635 334.177 149.015C335.985 151.395 336.774 154.396 336.37 157.357L338.734 186.053C339.453 194.763 336.984 203.437 331.788 210.462L316.591 231.01C316.298 231.405 315.926 231.734 315.498 231.976C315.071 232.217 314.597 232.366 314.108 232.413C313.835 232.438 313.561 232.432 313.291 232.393Z" fill="#173468"/>
<path d="M195.359 96.6881C195.567 97.8118 196.018 98.8762 196.682 99.8064C197.346 100.737 198.206 101.51 199.2 102.072C200.195 102.634 201.301 102.971 202.44 103.059C203.58 103.147 204.724 102.985 205.794 102.583L223.551 123.944L227.735 110.128L210.232 91.9605C209.433 90.2138 208.023 88.8199 206.268 88.0419C204.512 87.2638 202.533 87.1554 200.703 87.7371C198.873 88.3188 197.319 89.5503 196.334 91.1993C195.35 92.8484 195.003 94.8008 195.359 96.6881Z" fill="#A0616A"/>
<path d="M209.268 105.543C209.635 104.932 210.179 104.448 210.827 104.154L216.878 101.421C217.534 101.126 218.264 101.04 218.97 101.175C219.677 101.309 220.325 101.657 220.827 102.171L238.297 120.154L280.864 136.679C282.137 137.435 283.249 138.434 284.136 139.619C285.023 140.805 285.667 142.153 286.033 143.588C286.399 145.022 286.478 146.515 286.267 147.981C286.056 149.446 285.558 150.855 284.802 152.128C284.046 153.401 283.046 154.513 281.86 155.399C280.675 156.285 279.326 156.929 277.891 157.294C276.457 157.659 274.964 157.738 273.499 157.525C272.034 157.313 270.626 156.814 269.354 156.057L242.013 147.045C233.715 144.311 226.691 138.656 222.25 131.13L209.257 109.121C209.007 108.698 208.85 108.227 208.794 107.739C208.738 107.25 208.786 106.756 208.934 106.287C209.016 106.027 209.129 105.777 209.27 105.543L209.268 105.543Z" fill="#173468"/>
<path opacity="0.1" d="M320.775 173.3L319.998 198.177L305.68 223.065L317.635 195.332L320.775 173.3Z" fill="black"/>
<path d="M292.363 97.5206C294.332 99.8516 297.664 100.509 300.738 100.779C306.981 101.326 316.058 100.439 322.159 99.0292C322.594 103.25 321.407 107.802 323.893 111.274C325.058 107.07 325.735 102.746 325.912 98.3872C325.987 96.5206 325.958 94.5839 325.198 92.8678C324.439 91.1516 322.782 89.6951 320.875 89.6799C322.292 88.6046 323.952 87.8947 325.708 87.613L319.669 84.5773L321.22 82.9845L310.285 82.3153L313.452 80.3028C308.686 79.6483 303.864 79.4966 299.065 79.8503C296.837 80.0143 294.507 80.3283 292.702 81.6196C290.897 82.9109 289.854 85.4772 290.975 87.3732C289.571 87.6037 288.25 88.1886 287.136 89.0726C286.022 89.9567 285.153 91.1105 284.609 92.4249C283.805 94.4657 283.878 96.7327 284.126 98.9076C284.538 102.386 285.347 105.806 286.535 109.1" fill="#2F2E41"/>
<path d="M373.971 49.6873L200.023 89.8555C199.169 90.0517 198.271 89.9009 197.528 89.4364C196.785 88.9718 196.256 88.2313 196.058 87.3774L186.096 44.2186C185.9 43.3642 186.051 42.4668 186.515 41.7233C186.98 40.9799 187.72 40.451 188.574 40.2528L362.522 0.0847079C363.376 -0.111479 364.273 0.039242 365.016 0.503805C365.76 0.968368 366.288 1.70884 366.487 2.5628L376.448 45.7216C376.644 46.5761 376.494 47.4734 376.029 48.2169C375.565 48.9603 374.825 49.4891 373.971 49.6873Z" fill="white"/>
<path d="M373.971 49.6873L200.023 89.8555C199.169 90.0517 198.271 89.9009 197.528 89.4364C196.785 88.9718 196.256 88.2313 196.058 87.3774L186.096 44.2186C185.9 43.3642 186.051 42.4668 186.515 41.7233C186.98 40.9799 187.72 40.451 188.574 40.2528L362.522 0.0847079C363.376 -0.111479 364.273 0.039242 365.016 0.503805C365.76 0.968368 366.288 1.70884 366.487 2.5628L376.448 45.7216C376.644 46.5761 376.494 47.4734 376.029 48.2169C375.565 48.9603 374.825 49.4891 373.971 49.6873ZM188.871 41.5419C188.359 41.6608 187.915 41.9781 187.636 42.4243C187.357 42.8704 187.267 43.4089 187.385 43.9216L197.346 87.0805C197.465 87.593 197.782 88.0374 198.228 88.3162C198.674 88.595 199.213 88.6854 199.726 88.5675L373.674 48.3993C374.186 48.2806 374.63 47.9632 374.909 47.5171C375.188 47.0709 375.278 46.5324 375.16 46.0196L365.198 2.86026C365.08 2.34773 364.762 1.90327 364.316 1.62447C363.87 1.34567 363.332 1.25531 362.819 1.37322L188.871 41.5419Z" fill="#E6E6E6"/>
<path d="M249.23 41.4085C248.942 41.4742 248.671 41.5959 248.43 41.7667C248.19 41.9375 247.986 42.1539 247.829 42.4037C247.672 42.6535 247.566 42.9317 247.517 43.2224C247.468 43.5131 247.476 43.8107 247.542 44.0982C247.608 44.3856 247.73 44.6573 247.901 44.8976C248.071 45.138 248.288 45.3423 248.538 45.499C248.787 45.6556 249.066 45.7615 249.356 45.8106C249.647 45.8597 249.944 45.8511 250.232 45.7851L250.239 45.7834L353.338 21.9759C353.917 21.8411 354.419 21.482 354.734 20.9774C355.049 20.4727 355.15 19.8637 355.017 19.2842C354.883 18.7046 354.524 18.2019 354.02 17.8863C353.516 17.5707 352.908 17.4681 352.328 17.601L249.23 41.4085Z" fill="#E6E6E6"/>
<path d="M252.259 54.5338C251.972 54.5995 251.7 54.7212 251.46 54.892C251.219 55.0627 251.015 55.2792 250.858 55.529C250.702 55.7787 250.596 56.0569 250.546 56.3477C250.497 56.6384 250.506 56.936 250.572 57.2235C250.637 57.5109 250.759 57.7826 250.93 58.0229C251.101 58.2633 251.317 58.4676 251.567 58.6243C251.817 58.7809 252.095 58.8868 252.386 58.9359C252.676 58.985 252.974 58.9763 253.261 58.9104L253.269 58.9087L297.632 48.6642C298.213 48.5311 298.716 48.173 299.032 47.6687C299.348 47.1644 299.451 46.5551 299.318 45.9749C299.186 45.3946 298.828 44.8909 298.324 44.5745C297.82 44.2581 297.21 44.1549 296.63 44.2876L296.623 44.2893L252.259 54.5338Z" fill="#E6E6E6"/>
<path d="M221.045 70.4986C228.482 70.4986 234.512 64.4679 234.512 57.0287C234.512 49.5894 228.482 43.5587 221.045 43.5587C213.607 43.5587 207.578 49.5894 207.578 57.0287C207.578 64.4679 213.607 70.4986 221.045 70.4986Z" fill="#173468"/>
<path d="M220.666 64.7992C220.225 64.9016 219.763 64.8579 219.349 64.6747L219.323 64.6633L213.905 62.2028C213.653 62.0888 213.426 61.9263 213.238 61.7245C213.049 61.5228 212.902 61.2859 212.805 61.0272C212.708 60.7686 212.662 60.4933 212.672 60.2172C212.681 59.9411 212.745 59.6695 212.859 59.418C212.973 59.1665 213.136 58.94 213.338 58.7515C213.54 58.563 213.777 58.4161 214.036 58.3194C214.295 58.2226 214.57 58.1778 214.846 58.1875C215.122 58.1972 215.393 58.2613 215.645 58.376L219.156 59.9749L224.082 49.1487C224.313 48.6418 224.735 48.2474 225.257 48.0521C225.778 47.8568 226.356 47.8766 226.862 48.1072L226.833 48.1779L226.864 48.1069C227.37 48.3382 227.764 48.761 227.96 49.2825C228.155 49.804 228.135 50.3816 227.905 50.8886L222.111 63.6242C221.977 63.9176 221.777 64.1761 221.527 64.3797C221.276 64.5833 220.983 64.7264 220.668 64.7981L220.666 64.7992Z" fill="white"/>
</g>
<defs>
<clipPath id="clip0_12_1060">
<rect width="600" height="287" fill="white"/>
</clipPath>
</defs>
</svg>
