<svg width="600" height="361" viewBox="0 0 600 361" fill="none" xmlns="http://www.w3.org/2000/svg">
<g clip-path="url(#clip0_12_1267)">
<mask id="mask0_12_1267" style="mask-type:luminance" maskUnits="userSpaceOnUse" x="0" y="0" width="600" height="361">
<path d="M600 0H0V361H600V0Z" fill="white"/>
</mask>
<g mask="url(#mask0_12_1267)">
<path d="M31.3046 360.193C31.2645 360.016 27.3825 342.302 35.3105 327.589C43.2384 312.877 60.1612 306.388 60.3312 306.324L61.1047 306.034L61.2874 306.841C61.3275 307.018 65.2094 324.732 57.2815 339.445C49.354 354.157 32.4308 360.646 32.2607 360.71L31.4869 361L31.3046 360.193ZM60.044 308.003C56.6542 309.462 43.2757 315.848 36.5799 328.274C29.8834 340.701 31.9038 355.397 32.548 359.031C35.9364 357.576 49.3096 351.199 56.0121 338.76C62.7082 326.333 60.6886 311.639 60.044 308.003Z" fill="#F1F1F1"/>
<path d="M51.2232 334.284C36.9763 342.861 31.4893 359.899 31.4893 359.899C31.4893 359.899 49.1012 363.029 63.348 354.452C77.5949 345.874 83.0819 328.837 83.0819 328.837C83.0819 328.837 65.47 325.707 51.2232 334.284Z" fill="#F1F1F1"/>
<path d="M266.974 196.78C267.191 195.658 267.16 194.501 266.882 193.393C266.605 192.284 266.087 191.249 265.367 190.362C264.647 189.475 263.741 188.757 262.713 188.258C261.685 187.759 260.561 187.492 259.419 187.475L252.821 170.872L241.761 172.423L251.407 195.739C251.505 197.661 252.305 199.48 253.655 200.851C255.004 202.223 256.809 203.051 258.728 203.179C260.647 203.307 262.547 202.727 264.066 201.547C265.586 200.368 266.621 198.672 266.974 196.78Z" fill="#9F616A"/>
<path d="M246.597 190.946L243.17 182.768L221.814 142.087L222.975 66.8128L223.198 66.7832C236.863 64.9765 246.109 127.986 246.496 130.669L259.99 176.85L263.202 187.029L246.597 190.946Z" fill="white"/>
<path d="M213.782 349.674L224.166 349.673L229.105 309.594L213.78 309.595L213.782 349.674Z" fill="#9F616A"/>
<path d="M211.133 346.281H231.582C235.038 346.281 238.354 347.655 240.798 350.1C243.242 352.546 244.615 355.863 244.615 359.321V359.745L211.134 359.746L211.133 346.281Z" fill="#2F2E41"/>
<path d="M118.308 333.842L126.828 339.783L153.78 309.727L141.206 300.959L118.308 333.842Z" fill="#9F616A"/>
<path d="M118.074 329.544L134.851 341.243H134.852C137.687 343.221 139.622 346.245 140.23 349.649C140.837 353.054 140.069 356.561 138.093 359.399L137.851 359.746L110.381 340.591L118.074 329.544Z" fill="#2F2E41"/>
<path d="M208.075 340.253L207.627 265.067L201.093 217.791L188.912 259.366L188.889 259.4L144.747 323.529L127.571 314.821L127.665 314.597C128.715 312.099 153.449 253.42 160.097 253.42C160.678 253.46 161.259 253.359 161.792 253.125C162.325 252.89 162.793 252.53 163.156 252.075C165.107 249.467 163.518 243.934 163.502 243.879C161.598 235.981 166.384 233.292 167.337 232.843L169.9 179.888L170.166 179.906L239.66 184.784L236.745 250.992L230.473 337.737L230.258 337.762L208.075 340.253Z" fill="#2F2E41"/>
<path d="M240.722 196.518L240.422 196.494L165.682 190.465L165.866 165.718L169.525 101.103L169.545 101.058L184.443 68.6932L195.003 63.9079L210.41 63.0966L210.448 63.106L224.509 66.5921L239.136 171.668L240.722 196.518Z" fill="white"/>
<path d="M212.825 54.802C222.361 49.5854 225.866 37.6205 220.653 28.0777C215.44 18.5348 203.483 15.0277 193.947 20.2443C184.411 25.4609 180.906 37.4258 186.119 46.9687C191.332 56.5115 203.289 60.0187 212.825 54.802Z" fill="#9F616A"/>
<path d="M183.596 42.4663V34.7938C183.596 34.7938 177.413 27.5066 184.214 25.6709C184.214 25.6709 186.069 7.31422 202.145 15.8807C202.145 15.8807 224.404 12.2093 221.931 25.059C221.931 25.059 227.496 21.7044 225.641 30.2708L222.053 44.0699C222.053 44.0699 223.786 34.9546 218.221 33.7308L215.129 31.8951C215.129 31.8951 206.473 40.4616 193.489 30.0595C193.489 30.0595 187.924 28.7304 188.542 34.2374C189.161 39.7444 183.596 42.4663 183.596 42.4663Z" fill="#2F2E41"/>
<path d="M201.337 178.038C201.35 176.895 201.111 175.763 200.639 174.722C200.168 173.681 199.473 172.756 198.605 172.013C197.738 171.27 196.718 170.726 195.617 170.42C194.517 170.113 193.362 170.052 192.236 170.241L182.768 155.092L172.165 158.604L185.836 179.81C186.278 181.683 187.391 183.328 188.964 184.435C190.538 185.542 192.462 186.032 194.373 185.814C196.284 185.596 198.048 184.683 199.332 183.25C200.615 181.817 201.329 179.962 201.337 178.038Z" fill="#9F616A"/>
<path d="M176.884 173.263L159.755 138.462L159.77 138.377C159.839 137.992 166.734 99.6815 172.007 85.5997C177.314 71.4286 184.578 68.5834 184.885 68.4692L185.038 68.4121L191.551 74.664L182.529 134.928L192.254 163.992L176.884 173.263Z" fill="white"/>
<path d="M600 0H566.835V33.1884H600V0Z" fill="#F1F1F1"/>
<path d="M340.449 129.146H307.284V162.334H340.449V129.146Z" fill="#F1F1F1"/>
<path d="M325.899 147.791H588.099V14.9592H325.899V147.791Z" fill="white"/>
<path d="M590.262 149.956H323.736V12.7947H590.262V149.956ZM328.062 145.627H585.936V17.1236H328.062V145.627Z" fill="#E5E5E5"/>
<path d="M559.105 61.5542H357.371V68.249H559.105V61.5542Z" fill="#173468"/>
<path d="M559.105 77.7898H357.371V84.4846H559.105V77.7898Z" fill="#173468"/>
<path d="M559.105 101.762H521.614V107.572H559.105V101.762Z" fill="white"/>
<path d="M275.413 360.971H0.720975C0.529761 360.971 0.346377 360.895 0.211168 360.76C0.0759591 360.624 0 360.441 0 360.249C0 360.058 0.0759591 359.874 0.211168 359.739C0.346377 359.604 0.529761 359.528 0.720975 359.528H275.413C275.604 359.528 275.787 359.604 275.922 359.739C276.058 359.874 276.134 360.058 276.134 360.249C276.134 360.441 276.058 360.624 275.922 360.76C275.787 360.895 275.604 360.971 275.413 360.971Z" fill="#CBCBCB"/>
</g>
</g>
<defs>
<clipPath id="clip0_12_1267">
<rect width="600" height="361" fill="white"/>
</clipPath>
</defs>
</svg>
