<svg width="20" height="20" viewBox="0 0 20 20" fill="none" xmlns="http://www.w3.org/2000/svg">
<path d="M1.15123 17.1514C0.682598 17.62 0.682598 18.3798 1.15123 18.8485C1.61986 19.3171 2.37965 19.3171 2.84828 18.8485L1.15123 17.1514ZM10.8483 10.8485C11.3169 10.3798 11.3169 9.62004 10.8483 9.15141C10.3797 8.68278 9.61986 8.68278 9.15123 9.15141L10.8483 10.8485ZM9.15123 9.15141C8.6826 9.62004 8.6826 10.3798 9.15123 10.8485C9.61986 11.3171 10.3797 11.3171 10.8483 10.8485L9.15123 9.15141ZM18.8483 2.84847C19.3169 2.37984 19.3169 1.62004 18.8483 1.15141C18.3797 0.682782 17.6199 0.682782 17.1512 1.15141L18.8483 2.84847ZM10.8483 9.15141C10.3797 8.68278 9.61986 8.68278 9.15123 9.15141C8.6826 9.62004 8.6826 10.3798 9.15123 10.8485L10.8483 9.15141ZM17.1512 18.8485C17.6199 19.3171 18.3797 19.3171 18.8483 18.8485C19.3169 18.3798 19.3169 17.62 18.8483 17.1514L17.1512 18.8485ZM9.15123 10.8485C9.61986 11.3171 10.3797 11.3171 10.8483 10.8485C11.3169 10.3798 11.3169 9.62004 10.8483 9.15141L9.15123 10.8485ZM2.84828 1.15141C2.37965 0.682782 1.61986 0.682782 1.15123 1.15141C0.682598 1.62004 0.682598 2.37984 1.15123 2.84847L2.84828 1.15141ZM2.84828 18.8485L10.8483 10.8485L9.15123 9.15141L1.15123 17.1514L2.84828 18.8485ZM10.8483 10.8485L18.8483 2.84847L17.1512 1.15141L9.15123 9.15141L10.8483 10.8485ZM9.15123 10.8485L17.1512 18.8485L18.8483 17.1514L10.8483 9.15141L9.15123 10.8485ZM10.8483 9.15141L2.84828 1.15141L1.15123 2.84847L9.15123 10.8485L10.8483 9.15141Z" fill="#FA6400"/>
</svg>
