<svg width="25" height="24" viewBox="0 0 25 24" fill="none" xmlns="http://www.w3.org/2000/svg">
<path fill-rule="evenodd" clip-rule="evenodd" d="M3.44189 0H14.6919C15.9345 0 16.9419 1.00736 16.9419 2.25V13.5C16.9419 14.7426 15.9345 15.75 14.6919 15.75H3.44189C2.19925 15.75 1.19189 14.7426 1.19189 13.5V2.25C1.19189 1.00736 2.19925 0 3.44189 0Z" stroke="black" stroke-width="1.125" stroke-linecap="round" stroke-linejoin="round"/>
<path fill-rule="evenodd" clip-rule="evenodd" d="M21.4419 22.5H10.1919C8.94925 22.5 7.94189 21.4926 7.94189 20.25V15.75H14.6919C15.9345 15.75 16.9419 14.7426 16.9419 13.5V6.75H21.4419C22.6845 6.75 23.6919 7.75736 23.6919 9V20.25C23.6919 21.4926 22.6845 22.5 21.4419 22.5Z" stroke="black" stroke-width="1.125" stroke-linecap="round" stroke-linejoin="round"/>
</svg>
