<svg width="78" height="78" viewBox="0 0 78 78" fill="none" xmlns="http://www.w3.org/2000/svg">
<path fill-rule="evenodd" clip-rule="evenodd" d="M22 22V70C22 73.3137 24.6863 76 28 76H70C73.3137 76 76 73.3137 76 70V39.49C76.0013 37.8909 75.3641 36.3574 74.23 35.23L56.77 17.77C55.6426 16.6359 54.1091 15.9987 52.51 16H28C24.6863 16 22 18.6863 22 22Z" stroke="black" stroke-width="3" stroke-linecap="round" stroke-linejoin="round"/>
<path d="M74.8 37H61C57.6863 37 55 34.3137 55 31V17.2" stroke="black" stroke-width="3" stroke-linecap="round" stroke-linejoin="round"/>
<path d="M61 49H37" stroke="black" stroke-width="3" stroke-linecap="round" stroke-linejoin="round"/>
<path d="M43 37H37" stroke="black" stroke-width="3" stroke-linecap="round" stroke-linejoin="round"/>
<path d="M61 61H37" stroke="black" stroke-width="3" stroke-linecap="round" stroke-linejoin="round"/>
<circle cx="16.5" cy="16.5" r="16.5" fill="#4DADF7"/>
<path d="M3.51641 20V13.7H6.27041C6.95441 13.7 7.55441 13.832 8.07041 14.096C8.58641 14.36 8.98841 14.726 9.27641 15.194C9.56441 15.662 9.70841 16.214 9.70841 16.85C9.70841 17.48 9.56441 18.032 9.27641 18.506C8.98841 18.974 8.58641 19.34 8.07041 19.604C7.55441 19.868 6.95441 20 6.27041 20H3.51641ZM4.68641 19.01H6.21641C6.69041 19.01 7.09841 18.92 7.44041 18.74C7.78841 18.56 8.05541 18.308 8.24141 17.984C8.43341 17.66 8.52941 17.282 8.52941 16.85C8.52941 16.412 8.43341 16.034 8.24141 15.716C8.05541 15.392 7.78841 15.14 7.44041 14.96C7.09841 14.78 6.69041 14.69 6.21641 14.69H4.68641V19.01ZM13.904 20.09C13.412 20.09 12.959 20.009 12.545 19.847C12.131 19.685 11.771 19.46 11.465 19.172C11.159 18.878 10.922 18.536 10.754 18.146C10.586 17.75 10.502 17.318 10.502 16.85C10.502 16.382 10.586 15.953 10.754 15.563C10.922 15.167 11.159 14.825 11.465 14.537C11.771 14.243 12.131 14.015 12.545 13.853C12.959 13.691 13.409 13.61 13.895 13.61C14.387 13.61 14.837 13.691 15.245 13.853C15.659 14.015 16.019 14.243 16.325 14.537C16.631 14.825 16.868 15.167 17.036 15.563C17.204 15.953 17.288 16.382 17.288 16.85C17.288 17.318 17.204 17.75 17.036 18.146C16.868 18.542 16.631 18.884 16.325 19.172C16.019 19.46 15.659 19.685 15.245 19.847C14.837 20.009 14.39 20.09 13.904 20.09ZM13.895 19.064C14.213 19.064 14.507 19.01 14.777 18.902C15.047 18.794 15.281 18.641 15.479 18.443C15.677 18.239 15.83 18.005 15.938 17.741C16.052 17.471 16.109 17.174 16.109 16.85C16.109 16.526 16.052 16.232 15.938 15.968C15.83 15.698 15.677 15.464 15.479 15.266C15.281 15.062 15.047 14.906 14.777 14.798C14.507 14.69 14.213 14.636 13.895 14.636C13.577 14.636 13.283 14.69 13.013 14.798C12.749 14.906 12.515 15.062 12.311 15.266C12.113 15.464 11.957 15.698 11.843 15.968C11.735 16.232 11.681 16.526 11.681 16.85C11.681 17.168 11.735 17.462 11.843 17.732C11.957 18.002 12.113 18.239 12.311 18.443C12.509 18.641 12.743 18.794 13.013 18.902C13.283 19.01 13.577 19.064 13.895 19.064ZM21.4441 20.09C20.9641 20.09 20.5171 20.012 20.1031 19.856C19.6951 19.694 19.3381 19.469 19.0321 19.181C18.7321 18.887 18.4981 18.542 18.3301 18.146C18.1621 17.75 18.0781 17.318 18.0781 16.85C18.0781 16.382 18.1621 15.95 18.3301 15.554C18.4981 15.158 18.7351 14.816 19.0411 14.528C19.3471 14.234 19.7041 14.009 20.1121 13.853C20.5201 13.691 20.9671 13.61 21.4531 13.61C21.9691 13.61 22.4401 13.7 22.8661 13.88C23.2921 14.054 23.6521 14.315 23.9461 14.663L23.1901 15.374C22.9621 15.128 22.7071 14.945 22.4251 14.825C22.1431 14.699 21.8371 14.636 21.5071 14.636C21.1771 14.636 20.8741 14.69 20.5981 14.798C20.3281 14.906 20.0911 15.059 19.8871 15.257C19.6891 15.455 19.5331 15.689 19.4191 15.959C19.3111 16.229 19.2571 16.526 19.2571 16.85C19.2571 17.174 19.3111 17.471 19.4191 17.741C19.5331 18.011 19.6891 18.245 19.8871 18.443C20.0911 18.641 20.3281 18.794 20.5981 18.902C20.8741 19.01 21.1771 19.064 21.5071 19.064C21.8371 19.064 22.1431 19.004 22.4251 18.884C22.7071 18.758 22.9621 18.569 23.1901 18.317L23.9461 19.037C23.6521 19.379 23.2921 19.64 22.8661 19.82C22.4401 20 21.9661 20.09 21.4441 20.09ZM24.1704 20L26.8254 16.346V17.228L24.2964 13.7H25.6194L27.5004 16.31L26.9604 16.319L28.8234 13.7H30.0924L27.5814 17.165V16.319L30.2544 20H28.9044L26.9244 17.228H27.4554L25.5024 20H24.1704Z" fill="white"/>
</svg>
