<svg width="25" height="24" viewBox="0 0 25 24" fill="none" xmlns="http://www.w3.org/2000/svg">
<path d="M19.0675 18.1575L18.5725 18.5175L18.0325 18.8437L17.4587 19.1475C17.2675 19.2375 17.065 19.3387 16.8512 19.4175L16.2212 19.665L15.5462 19.8675L14.8375 20.025L14.0837 20.1487L13.2962 20.2275L12.475 20.25H11.6537L10.8662 20.1712L10.1125 20.025L9.40373 19.8675L8.72873 19.665L8.09873 19.4175C7.88498 19.3387 7.68248 19.2375 7.49123 19.1475L6.91748 18.8437L6.37748 18.5175L5.88248 18.1575C5.71385 18.0437 5.5523 17.9197 5.39873 17.7862L4.95998 17.4037L4.59998 16.9987L4.21748 16.5937C4.09373 16.4475 3.96998 16.3125 3.85748 16.1662L3.47498 15.75L3.17123 15.3337L2.88998 14.9062C2.79998 14.7712 2.72123 14.6362 2.64248 14.5012L2.40623 14.0962L2.20373 13.7137L2.02373 13.3425L1.85498 12.9825L1.71998 12.6562C1.71998 12.555 1.62998 12.4537 1.59623 12.3525L1.49498 12.0825C1.49498 11.9925 1.42748 11.9137 1.40498 11.835L1.33748 11.6325C1.3338 11.5801 1.3338 11.5274 1.33748 11.475C1.33449 11.4338 1.33449 11.3924 1.33748 11.3512V11.25V11.1712C1.33449 11.13 1.33449 11.0887 1.33748 11.0475L1.40498 10.89L1.49498 10.6875C1.49498 10.6087 1.57373 10.53 1.60748 10.44L1.71998 10.125C1.71998 10.0237 1.82123 9.9225 1.87748 9.82125L2.04623 9.495L2.24873 9.13499C2.34998 8.99999 2.34998 8.92125 2.46248 8.78625L2.70998 8.40375C2.78873 8.26875 2.87873 8.13375 2.96873 7.99875L3.26123 7.59375C3.35123 7.4475 3.46373 7.3125 3.56498 7.16625L3.89123 6.75L4.25123 6.33375L4.59998 5.90625L4.99373 5.50125L5.42123 5.09625L5.87123 4.71375" stroke="black" stroke-width="1.125" stroke-linecap="round" stroke-linejoin="round"/>
<path d="M10.3826 2.475L11.0463 2.35125L11.7551 2.25H12.4751H13.1951L13.9038 2.32875L14.5676 2.4525L15.2201 2.61L15.8388 2.8125L16.4351 3.06C16.6263 3.13875 16.8176 3.24 17.0088 3.33L17.5601 3.63375L18.0776 3.96L18.5726 4.32L19.0451 4.69125L19.4951 5.07375L19.9226 5.47875L20.3163 5.88375L20.6988 6.31125C20.8226 6.44625 20.9351 6.58125 21.0476 6.7275C21.1601 6.87375 21.2726 7.00875 21.3851 7.14375C21.4976 7.27875 21.5988 7.425 21.6888 7.57125L21.9813 7.97625C22.0713 8.11125 22.1613 8.24625 22.2401 8.38125L22.4876 8.76375C22.5551 8.89875 22.6338 9.0225 22.7013 9.135L22.9038 9.495L23.0726 9.82125C23.0726 9.9225 23.1851 10.0237 23.2301 10.125L23.3651 10.395C23.3651 10.485 23.4438 10.5637 23.4776 10.6425L23.5676 10.845L23.6351 11.0025C23.6381 11.0437 23.6381 11.0851 23.6351 11.1263L23.7251 11.25V11.3737C23.7281 11.4149 23.7281 11.4563 23.7251 11.4975C23.7288 11.5499 23.7288 11.6026 23.7251 11.655L23.6576 11.8575C23.6576 11.9363 23.6013 12.015 23.5676 12.105C23.5338 12.195 23.5001 12.285 23.4663 12.375C23.4326 12.465 23.3876 12.5775 23.3426 12.6788L23.2076 13.005L23.0388 13.365L22.8588 13.7362L22.6563 14.1187L22.4201 14.5238" stroke="black" stroke-width="1.125" stroke-linecap="round" stroke-linejoin="round"/>
<path d="M15.6587 14.4337C13.9003 16.1921 11.0495 16.1921 9.29116 14.4337C7.53283 12.6754 7.53283 9.82456 9.29116 8.06622" stroke="black" stroke-width="1.125" stroke-linecap="round" stroke-linejoin="round"/>
<path d="M1.2251 0L23.7251 22.5" stroke="black" stroke-width="1.125" stroke-linecap="round" stroke-linejoin="round"/>
</svg>
