<svg width="25" height="24" viewBox="0 0 25 24" fill="none" xmlns="http://www.w3.org/2000/svg">
<path fill-rule="evenodd" clip-rule="evenodd" d="M3.28247 12.375H21.2825V20.25C21.2825 21.4926 20.2751 22.5 19.0325 22.5H5.53247C4.28983 22.5 3.28247 21.4926 3.28247 20.25V12.375Z" stroke="black" stroke-width="1.125" stroke-linecap="round" stroke-linejoin="round"/>
<path fill-rule="evenodd" clip-rule="evenodd" d="M3.28247 6.75H21.2825C22.5251 6.75 23.5325 7.75736 23.5325 9V10.125C23.5325 11.3676 22.5251 12.375 21.2825 12.375H3.28247C2.03983 12.375 1.03247 11.3676 1.03247 10.125V9C1.03247 7.75736 2.03983 6.75 3.28247 6.75Z" stroke="black" stroke-width="1.125" stroke-linecap="round" stroke-linejoin="round"/>
<path fill-rule="evenodd" clip-rule="evenodd" d="M12.2821 6.75031H7.26464C5.59632 6.77269 4.16201 5.57265 3.88964 3.92656V3.92656C3.72631 2.94055 4.00838 1.93287 4.65988 1.17496C5.31138 0.417048 6.26529 -0.0131308 7.26464 0.000305633H7.60214C9.05194 0.00301793 10.338 0.93136 10.7971 2.30656L12.2821 6.75031Z" stroke="black" stroke-width="1.125" stroke-linecap="round" stroke-linejoin="round"/>
<path fill-rule="evenodd" clip-rule="evenodd" d="M17.3 6.75033H12.2825L13.7675 2.30658C14.2458 0.953595 15.5274 0.0510479 16.9625 0.05658H17.3C18.2993 0.0431436 19.2532 0.473323 19.9047 1.23123C20.5562 1.98914 20.8383 2.99683 20.675 3.98283V3.98283C20.3781 5.60652 18.9504 6.77725 17.3 6.75033Z" stroke="black" stroke-width="1.125" stroke-linecap="round" stroke-linejoin="round"/>
<path d="M12.2825 22.5V6.75" stroke="black" stroke-width="1.125" stroke-linecap="round" stroke-linejoin="round"/>
</svg>
