<svg width="78" height="78" viewBox="0 0 78 78" fill="none" xmlns="http://www.w3.org/2000/svg">
<path fill-rule="evenodd" clip-rule="evenodd" d="M22 22V70C22 73.3137 24.6863 76 28 76H70C73.3137 76 76 73.3137 76 70V39.49C76.0013 37.8909 75.3641 36.3574 74.23 35.23L56.77 17.77C55.6426 16.6359 54.1091 15.9987 52.51 16H28C24.6863 16 22 18.6863 22 22Z" stroke="black" stroke-width="3" stroke-linecap="round" stroke-linejoin="round"/>
<path d="M74.8 37H61C57.6863 37 55 34.3137 55 31V17.2" stroke="black" stroke-width="3" stroke-linecap="round" stroke-linejoin="round"/>
<path d="M61 49H37" stroke="black" stroke-width="3" stroke-linecap="round" stroke-linejoin="round"/>
<path d="M43 37H37" stroke="black" stroke-width="3" stroke-linecap="round" stroke-linejoin="round"/>
<path d="M61 61H37" stroke="black" stroke-width="3" stroke-linecap="round" stroke-linejoin="round"/>
<circle cx="16.5" cy="16.5" r="16.5" fill="#F03E3D"/>
<path d="M7.5418 20V13.7H10.1338C10.6918 13.7 11.1688 13.79 11.5648 13.97C11.9668 14.15 12.2758 14.408 12.4918 14.744C12.7078 15.08 12.8158 15.479 12.8158 15.941C12.8158 16.403 12.7078 16.802 12.4918 17.138C12.2758 17.474 11.9668 17.732 11.5648 17.912C11.1688 18.092 10.6918 18.182 10.1338 18.182H8.1898L8.7118 17.633V20H7.5418ZM8.7118 17.759L8.1898 17.192H10.0798C10.5958 17.192 10.9828 17.084 11.2408 16.868C11.5048 16.646 11.6368 16.337 11.6368 15.941C11.6368 15.539 11.5048 15.23 11.2408 15.014C10.9828 14.798 10.5958 14.69 10.0798 14.69H8.1898L8.7118 14.114V17.759ZM13.9842 20V13.7H16.7382C17.4222 13.7 18.0222 13.832 18.5382 14.096C19.0542 14.36 19.4562 14.726 19.7442 15.194C20.0322 15.662 20.1762 16.214 20.1762 16.85C20.1762 17.48 20.0322 18.032 19.7442 18.506C19.4562 18.974 19.0542 19.34 18.5382 19.604C18.0222 19.868 17.4222 20 16.7382 20H13.9842ZM15.1542 19.01H16.6842C17.1582 19.01 17.5662 18.92 17.9082 18.74C18.2562 18.56 18.5232 18.308 18.7092 17.984C18.9012 17.66 18.9972 17.282 18.9972 16.85C18.9972 16.412 18.9012 16.034 18.7092 15.716C18.5232 15.392 18.2562 15.14 17.9082 14.96C17.5662 14.78 17.1582 14.69 16.6842 14.69H15.1542V19.01ZM22.4907 16.598H25.6317V17.588H22.4907V16.598ZM22.5897 20H21.4197V13.7H26.0187V14.681H22.5897V20Z" fill="white"/>
</svg>
