<svg width="78" height="78" viewBox="0 0 78 78" fill="none" xmlns="http://www.w3.org/2000/svg">
<path fill-rule="evenodd" clip-rule="evenodd" d="M22 22V70C22 73.3137 24.6863 76 28 76H70C73.3137 76 76 73.3137 76 70V39.49C76.0013 37.8909 75.3641 36.3574 74.23 35.23L56.77 17.77C55.6426 16.6359 54.1091 15.9987 52.51 16H28C24.6863 16 22 18.6863 22 22Z" stroke="black" stroke-width="3" stroke-linecap="round" stroke-linejoin="round"/>
<path d="M74.8 37H61C57.6863 37 55 34.3137 55 31V17.2" stroke="black" stroke-width="3" stroke-linecap="round" stroke-linejoin="round"/>
<path d="M61 49H37" stroke="black" stroke-width="3" stroke-linecap="round" stroke-linejoin="round"/>
<path d="M43 37H37" stroke="black" stroke-width="3" stroke-linecap="round" stroke-linejoin="round"/>
<path d="M61 61H37" stroke="black" stroke-width="3" stroke-linecap="round" stroke-linejoin="round"/>
<circle cx="16.5" cy="16.5" r="16.5" fill="#B620E0"/>
<path d="M5.30498 20V13.7H7.89698C8.45498 13.7 8.93198 13.79 9.32798 13.97C9.72998 14.15 10.039 14.408 10.255 14.744C10.471 15.08 10.579 15.479 10.579 15.941C10.579 16.403 10.471 16.802 10.255 17.138C10.039 17.474 9.72998 17.732 9.32798 17.912C8.93198 18.092 8.45498 18.182 7.89698 18.182H5.95298L6.47498 17.633V20H5.30498ZM6.47498 17.759L5.95298 17.192H7.84298C8.35898 17.192 8.74598 17.084 9.00398 16.868C9.26798 16.646 9.39998 16.337 9.39998 15.941C9.39998 15.539 9.26798 15.23 9.00398 15.014C8.74598 14.798 8.35898 14.69 7.84298 14.69H5.95298L6.47498 14.114V17.759ZM11.7474 20V13.7H14.3394C14.8974 13.7 15.3744 13.79 15.7704 13.97C16.1724 14.15 16.4814 14.408 16.6974 14.744C16.9134 15.08 17.0214 15.479 17.0214 15.941C17.0214 16.403 16.9134 16.802 16.6974 17.138C16.4814 17.474 16.1724 17.732 15.7704 17.912C15.3744 18.092 14.8974 18.182 14.3394 18.182H12.3954L12.9174 17.633V20H11.7474ZM12.9174 17.759L12.3954 17.192H14.2854C14.8014 17.192 15.1884 17.084 15.4464 16.868C15.7104 16.646 15.8424 16.337 15.8424 15.941C15.8424 15.539 15.7104 15.23 15.4464 15.014C15.1884 14.798 14.8014 14.69 14.2854 14.69H12.3954L12.9174 14.114V17.759ZM19.2832 20V14.69H17.1952V13.7H22.5412V14.69H20.4532V20H19.2832ZM22.3818 20L25.0368 16.346V17.228L22.5078 13.7H23.8308L25.7118 16.31L25.1718 16.319L27.0348 13.7H28.3038L25.7928 17.165V16.319L28.4658 20H27.1158L25.1358 17.228H25.6668L23.7138 20H22.3818Z" fill="white"/>
</svg>
