<svg width="52" height="55" viewBox="0 0 52 55" fill="none" xmlns="http://www.w3.org/2000/svg">
<path fill-rule="evenodd" clip-rule="evenodd" d="M10 4.6V33.4C10 35.3882 11.6118 37 13.6 37H38.8C40.7882 37 42.4 35.3882 42.4 33.4V15.094C42.4008 14.1345 42.0185 13.2144 41.338 12.538L30.862 2.062C30.1856 1.38153 29.2655 0.999241 28.306 1H13.6C11.6118 1 10 2.61178 10 4.6Z" stroke="#F03E3D" stroke-width="1.8" stroke-linecap="round" stroke-linejoin="round"/>
<path d="M41.6798 13.6H33.3998C31.4116 13.6 29.7998 11.9882 29.7998 9.99997V1.71997" stroke="#F03E3D" stroke-width="1.8" stroke-linecap="round" stroke-linejoin="round"/>
<path d="M33.4 20.8H19" stroke="#F03E3D" stroke-width="1.8" stroke-linecap="round" stroke-linejoin="round"/>
<path d="M22.6 13.6H19" stroke="#F03E3D" stroke-width="1.8" stroke-linecap="round" stroke-linejoin="round"/>
<path d="M33.4 28H19" stroke="#F03E3D" stroke-width="1.8" stroke-linecap="round" stroke-linejoin="round"/>
<rect y="42" width="52" height="13" rx="6.5" fill="#4F4F4F"/>
<path d="M5.16338 52V45.7H7.75538C8.31338 45.7 8.79038 45.79 9.18638 45.97C9.58838 46.15 9.89738 46.408 10.1134 46.744C10.3294 47.08 10.4374 47.479 10.4374 47.941C10.4374 48.403 10.3294 48.802 10.1134 49.138C9.89738 49.474 9.58838 49.732 9.18638 49.912C8.79038 50.092 8.31338 50.182 7.75538 50.182H5.81138L6.33338 49.633V52H5.16338ZM6.33338 49.759L5.81138 49.192H7.70138C8.21738 49.192 8.60438 49.084 8.86238 48.868C9.12638 48.646 9.25838 48.337 9.25838 47.941C9.25838 47.539 9.12638 47.23 8.86238 47.014C8.60438 46.798 8.21738 46.69 7.70138 46.69H5.81138L6.33338 46.114V49.759ZM11.4538 52V47.194H12.5248V48.517L12.3988 48.13C12.5428 47.806 12.7678 47.56 13.0738 47.392C13.3858 47.224 13.7728 47.14 14.2348 47.14V48.211C14.1868 48.199 14.1418 48.193 14.0998 48.193C14.0578 48.187 14.0158 48.184 13.9738 48.184C13.5478 48.184 13.2088 48.31 12.9568 48.562C12.7048 48.808 12.5788 49.177 12.5788 49.669V52H11.4538ZM17.4042 52.063C16.8702 52.063 16.4022 51.958 16.0002 51.748C15.6042 51.532 15.2952 51.238 15.0732 50.866C14.8572 50.494 14.7492 50.071 14.7492 49.597C14.7492 49.117 14.8542 48.694 15.0642 48.328C15.2802 47.956 15.5742 47.665 15.9462 47.455C16.3242 47.245 16.7532 47.14 17.2332 47.14C17.7012 47.14 18.1182 47.242 18.4842 47.446C18.8502 47.65 19.1382 47.938 19.3482 48.31C19.5582 48.682 19.6632 49.12 19.6632 49.624C19.6632 49.672 19.6602 49.726 19.6542 49.786C19.6542 49.846 19.6512 49.903 19.6452 49.957H15.6402V49.21H19.0512L18.6102 49.444C18.6162 49.168 18.5592 48.925 18.4392 48.715C18.3192 48.505 18.1542 48.34 17.9442 48.22C17.7402 48.1 17.5032 48.04 17.2332 48.04C16.9572 48.04 16.7142 48.1 16.5042 48.22C16.3002 48.34 16.1382 48.508 16.0182 48.724C15.9042 48.934 15.8472 49.183 15.8472 49.471V49.651C15.8472 49.939 15.9132 50.194 16.0452 50.416C16.1772 50.638 16.3632 50.809 16.6032 50.929C16.8432 51.049 17.1192 51.109 17.4312 51.109C17.7012 51.109 17.9442 51.067 18.1602 50.983C18.3762 50.899 18.5682 50.767 18.7362 50.587L19.3392 51.28C19.1232 51.532 18.8502 51.727 18.5202 51.865C18.1962 51.997 17.8242 52.063 17.4042 52.063ZM26.8099 47.14C27.1939 47.14 27.5329 47.215 27.8269 47.365C28.1269 47.515 28.3609 47.746 28.5289 48.058C28.6969 48.364 28.7809 48.76 28.7809 49.246V52H27.6559V49.39C27.6559 48.964 27.5629 48.646 27.3769 48.436C27.1909 48.226 26.9239 48.121 26.5759 48.121C26.3299 48.121 26.1109 48.175 25.9189 48.283C25.7329 48.391 25.5859 48.55 25.4779 48.76C25.3759 48.97 25.3249 49.237 25.3249 49.561V52H24.1999V49.39C24.1999 48.964 24.1069 48.646 23.9209 48.436C23.7349 48.226 23.4679 48.121 23.1199 48.121C22.8739 48.121 22.6549 48.175 22.4629 48.283C22.2769 48.391 22.1299 48.55 22.0219 48.76C21.9199 48.97 21.8689 49.237 21.8689 49.561V52H20.7439V47.194H21.8149V48.472L21.6259 48.094C21.7879 47.782 22.0219 47.545 22.3279 47.383C22.6399 47.221 22.9939 47.14 23.3899 47.14C23.8399 47.14 24.2299 47.251 24.5599 47.473C24.8959 47.695 25.1179 48.031 25.2259 48.481L24.7849 48.328C24.9409 47.968 25.1989 47.68 25.5589 47.464C25.9189 47.248 26.3359 47.14 26.8099 47.14ZM30.2185 52V47.194H31.3435V52H30.2185ZM30.7855 46.402C30.5755 46.402 30.4015 46.336 30.2635 46.204C30.1315 46.072 30.0655 45.913 30.0655 45.727C30.0655 45.535 30.1315 45.376 30.2635 45.25C30.4015 45.118 30.5755 45.052 30.7855 45.052C30.9955 45.052 31.1665 45.115 31.2985 45.241C31.4365 45.361 31.5055 45.514 31.5055 45.7C31.5055 45.898 31.4395 46.066 31.3075 46.204C31.1755 46.336 31.0015 46.402 30.7855 46.402ZM34.854 52.063C34.446 52.063 34.086 51.988 33.774 51.838C33.462 51.682 33.219 51.448 33.045 51.136C32.871 50.818 32.784 50.419 32.784 49.939V47.194H33.909V49.786C33.909 50.218 34.005 50.542 34.197 50.758C34.395 50.968 34.674 51.073 35.034 51.073C35.298 51.073 35.526 51.019 35.718 50.911C35.916 50.803 36.069 50.641 36.177 50.425C36.291 50.209 36.348 49.942 36.348 49.624V47.194H37.473V52H36.402V50.704L36.591 51.1C36.429 51.412 36.192 51.652 35.88 51.82C35.568 51.982 35.226 52.063 34.854 52.063ZM45.012 47.14C45.396 47.14 45.735 47.215 46.029 47.365C46.329 47.515 46.563 47.746 46.731 48.058C46.899 48.364 46.983 48.76 46.983 49.246V52H45.858V49.39C45.858 48.964 45.765 48.646 45.579 48.436C45.393 48.226 45.126 48.121 44.778 48.121C44.532 48.121 44.313 48.175 44.121 48.283C43.935 48.391 43.788 48.55 43.68 48.76C43.578 48.97 43.527 49.237 43.527 49.561V52H42.402V49.39C42.402 48.964 42.309 48.646 42.123 48.436C41.937 48.226 41.67 48.121 41.322 48.121C41.076 48.121 40.857 48.175 40.665 48.283C40.479 48.391 40.332 48.55 40.224 48.76C40.122 48.97 40.071 49.237 40.071 49.561V52H38.946V47.194H40.017V48.472L39.828 48.094C39.99 47.782 40.224 47.545 40.53 47.383C40.842 47.221 41.196 47.14 41.592 47.14C42.042 47.14 42.432 47.251 42.762 47.473C43.098 47.695 43.32 48.031 43.428 48.481L42.987 48.328C43.143 47.968 43.401 47.68 43.761 47.464C44.121 47.248 44.538 47.14 45.012 47.14Z" fill="white"/>
</svg>
