<svg width="120" height="120" viewBox="0 0 120 120" fill="none" xmlns="http://www.w3.org/2000/svg">
<mask id="mask0_36_2" style="mask-type:luminance" maskUnits="userSpaceOnUse" x="0" y="0" width="120" height="120">
<path fill-rule="evenodd" clip-rule="evenodd" d="M74.4 0C99.5842 0 120 20.416 120 45.6V74.4C120 99.584 99.5842 120 74.4 120H45.6C20.4158 120 0 99.584 0 74.4V45.6C0 20.416 20.4158 0 45.6 0H74.4Z" fill="white"/>
</mask>
<g mask="url(#mask0_36_2)">
<path fill-rule="evenodd" clip-rule="evenodd" d="M-5 125H125V-5H-5V125Z" fill="#F03E3D"/>
</g>
<path fill-rule="evenodd" clip-rule="evenodd" d="M96 64V56C96 53.7909 94.2091 52 92 52H84V68H92C94.2091 68 96 66.2091 96 64Z" stroke="white" stroke-width="6" stroke-linecap="round" stroke-linejoin="round"/>
<path d="M81 52C81 53.6569 82.3431 55 84 55C85.6569 55 87 53.6569 87 52H81ZM72 37C70.3431 37 69 38.3431 69 40C69 41.6569 70.3431 43 72 43V37ZM87 68C87 66.3431 85.6569 65 84 65C82.3431 65 81 66.3431 81 68H87ZM72 77C70.3431 77 69 78.3431 69 80C69 81.6569 70.3431 83 72 83V77ZM44 83C45.6569 83 47 81.6569 47 80C47 78.3431 45.6569 77 44 77V83ZM44 43C45.6569 43 47 41.6569 47 40C47 38.3431 45.6569 37 44 37V43ZM61.1778 49.4363C61.9711 47.9817 61.4349 46.1594 59.9803 45.3662C58.5257 44.5729 56.7034 45.1091 55.9102 46.5637L61.1778 49.4363ZM52 60L49.3662 58.5637C48.8593 59.4932 48.8799 60.6211 49.4204 61.5315C49.9609 62.4419 50.9412 63 52 63V60ZM64 60L66.6338 61.4363C67.1407 60.5068 67.1201 59.3789 66.5796 58.4685C66.0391 57.5581 65.0588 57 64 57V60ZM54.8222 70.5637C54.0289 72.0183 54.5651 73.8406 56.0197 74.6338C57.4743 75.4271 59.2966 74.8909 60.0898 73.4363L54.8222 70.5637ZM87 52C87 43.7157 80.2843 37 72 37V43C76.9706 43 81 47.0294 81 52H87ZM81 68C81 72.9706 76.9706 77 72 77V83C80.2843 83 87 76.2843 87 68H81ZM44 77C39.0294 77 35 72.9706 35 68H29C29 76.2843 35.7157 83 44 83V77ZM35 68V52H29V68H35ZM35 52C35 47.0294 39.0294 43 44 43V37C35.7157 37 29 43.7157 29 52H35ZM55.9102 46.5637L49.3662 58.5637L54.6338 61.4363L61.1778 49.4363L55.9102 46.5637ZM52 63H64V57H52V63ZM61.3662 58.5637L54.8222 70.5637L60.0898 73.4363L66.6338 61.4363L61.3662 58.5637Z" fill="white"/>
</svg>
