<svg width="120" height="120" viewBox="0 0 120 120" fill="none" xmlns="http://www.w3.org/2000/svg">
<mask id="mask0_0_1301" style="mask-type:luminance" maskUnits="userSpaceOnUse" x="0" y="0" width="120" height="120">
<path fill-rule="evenodd" clip-rule="evenodd" d="M74.4 0C99.584 0 120 20.416 120 45.6V74.4C120 99.584 99.584 120 74.4 120H45.6C20.416 120 0 99.584 0 74.4V45.6C0 20.416 20.416 0 45.6 0H74.4Z" fill="white"/>
</mask>
<g mask="url(#mask0_0_1301)">
<path fill-rule="evenodd" clip-rule="evenodd" d="M-5 125H125V-5H-5V125Z" fill="#4DADF7"/>
<path d="M35.0171 69.1209C35.0942 67.4659 33.8151 66.0616 32.1601 65.9845C30.505 65.9073 29.1008 67.1864 29.0236 68.8415L35.0171 69.1209ZM49.2398 88L49.0852 90.996C49.1367 90.9987 49.1883 91 49.2398 91V88ZM70.7602 88V91C70.8117 91 70.8633 90.9987 70.9148 90.996L70.7602 88ZM90.9764 68.8415C90.8992 67.1864 89.495 65.9073 87.8399 65.9845C86.1849 66.0616 84.9058 67.4659 84.9829 69.1209L90.9764 68.8415ZM29.0203 68.9812C29.0203 70.6381 30.3635 71.9812 32.0203 71.9812C33.6772 71.9812 35.0203 70.6381 35.0203 68.9812H29.0203ZM32.0203 63.3352H35.0203C35.0203 63.2884 35.0192 63.2416 35.017 63.1948L32.0203 63.3352ZM49.2398 44.3124V41.3124C49.1883 41.3124 49.1367 41.3137 49.0853 41.3164L49.2398 44.3124ZM70.7602 44.3124L70.9147 41.3164C70.8633 41.3137 70.8117 41.3124 70.7602 41.3124V44.3124ZM87.9797 63.3352L84.983 63.1948C84.9808 63.2416 84.9797 63.2884 84.9797 63.3352L87.9797 63.3352ZM84.9797 68.9812C84.9797 70.6381 86.3228 71.9812 87.9797 71.9812C89.6365 71.9812 90.9797 70.6381 90.9797 68.9812H84.9797ZM32.0203 65.9812C30.3635 65.9812 29.0203 67.3244 29.0203 68.9812C29.0203 70.6381 30.3635 71.9812 32.0203 71.9812V65.9812ZM46.0102 71.9812C47.667 71.9812 49.0102 70.6381 49.0102 68.9812C49.0102 67.3244 47.667 65.9812 46.0102 65.9812V71.9812ZM43.0102 68.9812C43.0102 70.6381 44.3533 71.9812 46.0102 71.9812C47.667 71.9812 49.0102 70.6381 49.0102 68.9812H43.0102ZM49.0102 64.8677C49.0102 63.2109 47.667 61.8677 46.0102 61.8677C44.3533 61.8677 43.0102 63.2109 43.0102 64.8677H49.0102ZM49.0102 68.9772C49.0102 67.3204 47.667 65.9772 46.0102 65.9772C44.3533 65.9772 43.0102 67.3204 43.0102 68.9772H49.0102ZM43.0102 73.0867C43.0102 74.7435 44.3533 76.0867 46.0102 76.0867C47.667 76.0867 49.0102 74.7435 49.0102 73.0867H43.0102ZM46.0102 65.9772C44.3533 65.9772 43.0102 67.3204 43.0102 68.9772C43.0102 70.6341 44.3533 71.9772 46.0102 71.9772V65.9772ZM73.9898 71.9772C75.6467 71.9772 76.9898 70.6341 76.9898 68.9772C76.9898 67.3204 75.6467 65.9772 73.9898 65.9772V71.9772ZM87.9797 71.9772C89.6365 71.9772 90.9797 70.6341 90.9797 68.9772C90.9797 67.3204 89.6365 65.9772 87.9797 65.9772V71.9772ZM73.9898 65.9772C72.333 65.9772 70.9898 67.3204 70.9898 68.9772C70.9898 70.6341 72.333 71.9772 73.9898 71.9772V65.9772ZM70.9898 68.9772C70.9898 70.6341 72.333 71.9772 73.9898 71.9772C75.6467 71.9772 76.9898 70.6341 76.9898 68.9772H70.9898ZM76.9898 64.8677C76.9898 63.2109 75.6467 61.8677 73.9898 61.8677C72.333 61.8677 70.9898 63.2109 70.9898 64.8677H76.9898ZM76.9898 68.9772C76.9898 67.3204 75.6467 65.9772 73.9898 65.9772C72.333 65.9772 70.9898 67.3204 70.9898 68.9772H76.9898ZM70.9898 73.0867C70.9898 74.7435 72.333 76.0867 73.9898 76.0867C75.6467 76.0867 76.9898 74.7435 76.9898 73.0867H70.9898ZM45.0087 44.3604C45.0087 46.0173 46.3519 47.3604 48.0087 47.3604C49.6656 47.3604 51.0087 46.0173 51.0087 44.3604H45.0087ZM69.6068 44.4204C69.6068 46.0773 70.95 47.4204 72.6068 47.4204C74.2637 47.4204 75.6068 46.0773 75.6068 44.4204H69.6068ZM29.0236 68.8415C28.4804 80.4909 37.4433 90.3953 49.0852 90.996L49.3944 85.004C41.0563 84.5737 34.6274 77.4779 35.0171 69.1209L29.0236 68.8415ZM49.2398 91H70.7602V85H49.2398V91ZM70.9148 90.996C82.5566 90.3953 91.5196 80.4909 90.9764 68.8415L84.9829 69.1209C85.3726 77.4779 78.9437 84.5737 70.6056 85.004L70.9148 90.996ZM35.0203 68.9812V63.3352H29.0203V68.9812H35.0203ZM35.017 63.1948C34.6254 54.8365 41.0549 47.7386 49.3944 47.3084L49.0853 41.3164C37.4415 41.9171 28.4777 51.8244 29.0236 63.4756L35.017 63.1948ZM49.2398 47.3124H70.7602V41.3124H49.2398V47.3124ZM70.6056 47.3084C78.9451 47.7386 85.3745 54.8365 84.983 63.1948L90.9764 63.4756C91.5223 51.8244 82.5585 41.9171 70.9147 41.3164L70.6056 47.3084ZM84.9797 63.3352V68.9812H90.9797V63.3352H84.9797ZM32.0203 71.9812H46.0102V65.9812H32.0203V71.9812ZM49.0102 68.9812V64.8677H43.0102V68.9812H49.0102ZM43.0102 68.9772V73.0867H49.0102V68.9772H43.0102ZM46.0102 71.9772H73.9898V65.9772H46.0102V71.9772ZM87.9797 65.9772H73.9898V71.9772H87.9797V65.9772ZM76.9898 68.9772V64.8677H70.9898V68.9772H76.9898ZM70.9898 68.9772V73.0867H76.9898V68.9772H70.9898ZM51.0087 44.3604V44.3124H45.0087V44.3604H51.0087ZM51.0087 44.3124C51.0087 39.1662 55.1751 35 60.3078 35V29C51.8553 29 45.0087 35.8587 45.0087 44.3124H51.0087ZM60.3078 35C65.4404 35 69.6068 39.1662 69.6068 44.3124H75.6068C75.6068 35.8587 68.7603 29 60.3078 29V35ZM69.6068 44.3124V44.4204H75.6068V44.3124H69.6068Z" fill="white"/>
</g>
</svg>
