<svg width="78" height="78" viewBox="0 0 78 78" fill="none" xmlns="http://www.w3.org/2000/svg">
<path fill-rule="evenodd" clip-rule="evenodd" d="M22 22V70C22 73.3137 24.6863 76 28 76H70C73.3137 76 76 73.3137 76 70V39.49C76.0013 37.8909 75.3641 36.3574 74.23 35.23L56.77 17.77C55.6426 16.6359 54.1091 15.9987 52.51 16H28C24.6863 16 22 18.6863 22 22Z" stroke="black" stroke-width="3" stroke-linecap="round" stroke-linejoin="round"/>
<path d="M74.8 37H61C57.6863 37 55 34.3137 55 31V17.2" stroke="black" stroke-width="3" stroke-linecap="round" stroke-linejoin="round"/>
<path d="M61 49H37" stroke="black" stroke-width="3" stroke-linecap="round" stroke-linejoin="round"/>
<path d="M43 37H37" stroke="black" stroke-width="3" stroke-linecap="round" stroke-linejoin="round"/>
<path d="M61 61H37" stroke="black" stroke-width="3" stroke-linecap="round" stroke-linejoin="round"/>
<circle cx="16.5" cy="16.5" r="16.5" fill="#6DD400"/>
<path d="M5.00141 20L7.65641 16.346V17.228L5.12741 13.7H6.45041L8.33141 16.31L7.79141 16.319L9.65441 13.7H10.9234L8.41241 17.165V16.319L11.0854 20H9.73541L7.75541 17.228H8.28641L6.33341 20H5.00141ZM11.7957 20V13.7H12.9657V19.01H16.2597V20H11.7957ZM19.0925 20.09C18.6005 20.09 18.1295 20.021 17.6795 19.883C17.2295 19.739 16.8725 19.556 16.6085 19.334L17.0135 18.425C17.2655 18.623 17.5775 18.788 17.9495 18.92C18.3215 19.052 18.7025 19.118 19.0925 19.118C19.4225 19.118 19.6895 19.082 19.8935 19.01C20.0975 18.938 20.2475 18.842 20.3435 18.722C20.4395 18.596 20.4875 18.455 20.4875 18.299C20.4875 18.107 20.4185 17.954 20.2805 17.84C20.1425 17.72 19.9625 17.627 19.7405 17.561C19.5245 17.489 19.2815 17.423 19.0115 17.363C18.7475 17.303 18.4805 17.234 18.2105 17.156C17.9465 17.072 17.7035 16.967 17.4815 16.841C17.2655 16.709 17.0885 16.535 16.9505 16.319C16.8125 16.103 16.7435 15.827 16.7435 15.491C16.7435 15.149 16.8335 14.837 17.0135 14.555C17.1995 14.267 17.4785 14.039 17.8505 13.871C18.2285 13.697 18.7055 13.61 19.2815 13.61C19.6595 13.61 20.0345 13.658 20.4065 13.754C20.7785 13.85 21.1025 13.988 21.3785 14.168L21.0095 15.077C20.7275 14.909 20.4365 14.786 20.1365 14.708C19.8365 14.624 19.5485 14.582 19.2725 14.582C18.9485 14.582 18.6845 14.621 18.4805 14.699C18.2825 14.777 18.1355 14.879 18.0395 15.005C17.9495 15.131 17.9045 15.275 17.9045 15.437C17.9045 15.629 17.9705 15.785 18.1025 15.905C18.2405 16.019 18.4175 16.109 18.6335 16.175C18.8555 16.241 19.1015 16.307 19.3715 16.373C19.6415 16.433 19.9085 16.502 20.1725 16.58C20.4425 16.658 20.6855 16.76 20.9015 16.886C21.1235 17.012 21.3005 17.183 21.4325 17.399C21.5705 17.615 21.6395 17.888 21.6395 18.218C21.6395 18.554 21.5465 18.866 21.3605 19.154C21.1805 19.436 20.9015 19.664 20.5235 19.838C20.1455 20.006 19.6685 20.09 19.0925 20.09ZM21.9204 20L24.5754 16.346V17.228L22.0464 13.7H23.3694L25.2504 16.31L24.7104 16.319L26.5734 13.7H27.8424L25.3314 17.165V16.319L28.0044 20H26.6544L24.6744 17.228H25.2054L23.2524 20H21.9204Z" fill="white"/>
</svg>
